<?xml version="1.0" standalone="no"?>
<!DOCTYPE svg PUBLIC "-//W3C//DTD SVG 20010904//EN"
 "http://www.w3.org/TR/2001/REC-SVG-20010904/DTD/svg10.dtd">
<svg version="1.0" xmlns="http://www.w3.org/2000/svg" viewBox="0 0 256.000000 256.000000"
 preserveAspectRatio="xMidYMid meet">
<metadata>
Created by potrace 1.11, written by Peter Selinger 2001-2013
</metadata>
<g transform="translate(0.000000,256.000000) scale(0.100000,-0.100000)" stroke="none">
<path d="M570 1663 c0 -5 -16 -95 -35 -202 -19 -107 -35 -200 -35 -208 0 -20
133 -18 151 3 41 50 138 57 184 14 66 -62 52 -185 -26 -226 -66 -33 -150 0
-164 66 l-7 30 -83 0 -84 0 6 -37 c13 -82 64 -147 143 -181 137 -60 289 -25
367 86 l27 38 31 -45 c65 -97 207 -130 323 -76 29 13 79 49 111 79 l57 55 57
-53 c73 -69 135 -99 215 -104 162 -11 276 104 276 278 0 136 -66 233 -183 267
-108 31 -208 -1 -303 -98 l-59 -61 -64 61 c-70 68 -124 96 -200 106 -94 13
-194 -32 -238 -106 l-23 -38 -37 39 c-20 22 -51 47 -69 57 -44 23 -151 24
-197 0 -19 -9 -36 -15 -38 -13 -2 2 1 33 8 70 l11 66 154 0 154 0 0 70 0 70
-215 0 c-118 0 -215 -3 -215 -7z m737 -382 c23 -11 63 -39 88 -62 l46 -42 -38
-39 c-77 -79 -168 -100 -223 -50 -60 53 -47 167 22 197 43 19 55 18 105 -4z
m571 -1 c36 -22 52 -54 52 -106 0 -119 -115 -150 -228 -62 -30 24 -57 48 -59
55 -6 17 94 111 130 122 50 14 69 13 105 -9z"/>
</g>
</svg>