<?xml version="1.0" standalone="no"?>
<!DOCTYPE svg PUBLIC "-//W3C//DTD SVG 20010904//EN"
 "http://www.w3.org/TR/2001/REC-SVG-20010904/DTD/svg10.dtd">
<svg version="1.0" xmlns="http://www.w3.org/2000/svg" viewBox="0 0 256.000000 256.000000"
 preserveAspectRatio="xMidYMid meet">
<metadata>
Created by potrace 1.11, written by Peter Selinger 2001-2013
</metadata>
<g transform="translate(0.000000,256.000000) scale(0.100000,-0.100000)" stroke="none">
<path d="M743 1592 c-28 -10 -67 -31 -87 -46 l-36 -27 0 35 0 36 -70 0 -70 0
0 -310 0 -310 70 0 70 0 2 227 3 227 42 30 c33 23 54 30 94 30 44 1 54 -3 75
-27 24 -28 24 -29 24 -258 l0 -229 70 0 70 0 0 221 0 220 31 28 c36 34 100 55
139 46 15 -3 38 -17 51 -31 24 -25 24 -29 27 -255 l3 -229 65 0 64 0 0 253 c0
227 -2 256 -20 294 -49 110 -217 121 -325 22 l-43 -40 -21 35 c-40 64 -139 90
-228 58z"/>
<path d="M1710 1601 c-97 -20 -183 -89 -223 -180 -32 -71 -35 -190 -7 -266 30
-79 105 -155 181 -181 106 -37 249 -19 342 42 l38 25 -31 44 -30 44 -62 -32
c-98 -51 -203 -41 -265 25 -27 28 -56 95 -48 108 4 6 102 10 241 10 l234 0 0
43 c0 55 -23 138 -50 181 -64 105 -200 163 -320 137z m150 -126 c34 -18 66
-54 79 -88 22 -58 26 -57 -164 -57 -193 0 -189 -2 -161 63 38 90 155 129 246
82z"/>
</g>
</svg>
