<?xml version="1.0" standalone="no"?>
<!DOCTYPE svg PUBLIC "-//W3C//DTD SVG 20010904//EN"
 "http://www.w3.org/TR/2001/REC-SVG-20010904/DTD/svg10.dtd">
<svg version="1.0" xmlns="http://www.w3.org/2000/svg" viewBox="0 0 256.000000 256.000000"
 preserveAspectRatio="xMidYMid meet">
<metadata>
Created by potrace 1.11, written by Peter Selinger 2001-2013
</metadata>
<g transform="translate(0.000000,256.000000) scale(0.100000,-0.100000)" stroke="none">
<path d="M1416 2065 c-122 -43 -183 -201 -123 -316 102 -192 388 -148 428 66
13 71 -7 131 -65 190 -70 73 -149 93 -240 60z"/>
<path d="M1165 1536 c-84 -84 -132 -221 -142 -401 -5 -108 -6 -111 -49 -181
-71 -116 -145 -174 -269 -209 -33 -10 -61 -19 -63 -20 -1 -1 22 -56 53 -121
62 -135 52 -130 166 -84 121 49 209 108 314 212 l100 98 47 -16 c110 -36 243
-154 311 -274 l34 -60 106 87 106 87 -26 48 c-61 113 -186 236 -317 312 -64
37 -66 40 -66 78 l0 39 53 -6 c29 -4 80 -2 112 4 67 12 203 75 254 118 l33 29
-50 84 c-28 47 -55 91 -60 98 -7 10 -21 6 -62 -20 -46 -28 -64 -33 -130 -36
-85 -4 -148 15 -157 46 -4 18 -215 132 -242 132 -6 0 -31 -20 -56 -44z"/>
</g>
</svg>
