<?xml version="1.0" standalone="no"?>
<!DOCTYPE svg PUBLIC "-//W3C//DTD SVG 20010904//EN"
 "http://www.w3.org/TR/2001/REC-SVG-20010904/DTD/svg10.dtd">
<svg version="1.0" xmlns="http://www.w3.org/2000/svg" viewBox="0 0 256.000000 256.000000"
 preserveAspectRatio="xMidYMid meet">
<metadata>
Created by potrace 1.11, written by Peter Selinger 2001-2013
</metadata>
<g transform="translate(0.000000,256.000000) scale(0.100000,-0.100000)" stroke="none">
<path d="M895 2029 c-28 -22 -61 -62 -75 -87 -22 -42 -25 -60 -27 -177 -2
-121 -7 -178 -19 -215 -4 -12 -9 -10 -24 8 -19 23 -19 24 0 55 50 82 -5 207
-112 251 -52 22 -54 21 -72 -24 -47 -117 11 -236 129 -264 17 -4 40 -17 53
-29 21 -20 23 -29 23 -132 -1 -100 8 -200 25 -280 11 -54 -25 -6 -41 55 -16
61 -53 105 -104 121 -33 11 -159 15 -168 5 -10 -10 20 -87 47 -125 50 -68 82
-83 167 -77 65 5 75 3 96 -17 21 -19 67 -114 67 -138 0 -23 -32 -4 -61 35 -32
45 -51 57 -127 76 -53 13 -98 -5 -142 -58 -27 -33 -28 -37 -14 -53 35 -39 80
-50 180 -46 53 2 100 9 106 15 28 28 62 13 101 -42 20 -30 37 -57 37 -60 0
-13 -23 -5 -56 20 -27 21 -46 27 -87 27 -57 1 -130 -30 -141 -59 -8 -20 25
-58 68 -81 39 -20 104 -4 174 44 l53 36 37 -35 c20 -19 61 -54 90 -77 45 -34
50 -41 30 -41 -12 0 -41 12 -63 25 -45 28 -81 31 -128 11 -35 -14 -97 -78 -97
-100 0 -23 33 -44 92 -56 51 -12 60 -11 95 7 21 11 51 38 66 61 33 49 59 53
134 21 l48 -21 -34 -26 c-72 -56 -82 -67 -76 -84 5 -14 14 -10 48 24 67 65 83
73 110 55 12 -8 41 -33 64 -55 34 -34 43 -38 48 -24 6 17 -4 29 -75 83 l-34
26 48 22 c75 33 100 29 135 -23 17 -24 47 -51 67 -61 33 -15 44 -16 93 -5 58
12 91 33 91 56 0 22 -62 86 -97 100 -47 20 -83 17 -128 -11 -22 -13 -51 -25
-64 -25 -20 0 -17 5 25 36 27 21 68 55 91 77 l42 40 53 -36 c70 -48 135 -64
174 -44 43 23 76 61 68 81 -10 27 -84 59 -134 59 -41 1 -76 -12 -122 -45 -33
-24 -30 2 8 56 41 59 61 67 107 43 15 -8 65 -14 120 -15 90 -2 95 -1 136 28
47 35 46 47 -11 95 -50 42 -72 47 -136 31 -47 -12 -65 -24 -103 -65 -43 -48
-69 -63 -69 -41 0 25 60 139 78 149 12 6 46 8 84 4 77 -7 109 7 161 67 30 35
66 125 54 136 -2 2 -32 5 -68 6 -118 3 -178 -36 -202 -130 -7 -29 -21 -60 -31
-70 -17 -16 -18 -16 -12 13 17 80 26 180 25 281 0 110 1 112 27 133 15 12 39
24 53 28 48 11 81 33 106 72 40 60 47 98 30 156 -23 76 -26 79 -70 65 -111
-37 -177 -171 -125 -255 18 -30 18 -33 3 -55 l-17 -24 -14 49 c-8 29 -14 105
-15 180 -2 120 -4 134 -29 180 -22 43 -122 137 -132 124 -11 -15 -26 -96 -26
-141 0 -74 38 -148 112 -217 58 -55 78 -94 78 -153 0 -44 -23 -24 -54 48 -53
122 -129 171 -224 145 -26 -7 -49 -14 -51 -17 -3 -2 1 -26 8 -52 24 -90 103
-142 217 -142 88 -1 105 -13 112 -79 5 -55 -4 -121 -17 -121 -5 0 -16 19 -25
43 -39 103 -116 156 -224 157 -56 0 -63 -2 -58 -17 3 -10 12 -43 21 -74 28
-100 85 -134 207 -124 67 6 79 5 84 -9 7 -18 -10 -149 -27 -209 -12 -44 -39
-51 -39 -9 0 54 -22 105 -67 153 -45 49 -74 62 -150 73 -50 7 -51 4 -32 -86
19 -90 117 -168 210 -168 47 0 53 -21 24 -86 -63 -142 -107 -156 -98 -30 5 71
5 73 -27 110 -40 46 -78 66 -123 66 -32 0 -35 -2 -41 -41 -5 -29 -1 -52 12
-82 24 -52 54 -79 113 -101 26 -9 54 -25 64 -36 22 -24 11 -43 -56 -104 -59
-53 -76 -47 -58 18 20 71 -8 123 -101 190 l-50 36 -11 -27 c-16 -41 -6 -129
18 -161 11 -15 44 -41 74 -57 30 -17 54 -37 54 -45 0 -9 -37 -33 -87 -58 l-88
-44 -87 44 c-51 25 -88 49 -88 58 0 8 25 28 55 45 70 39 100 83 100 146 0 26
-4 59 -10 74 l-10 26 -37 -27 c-105 -77 -131 -120 -114 -195 16 -71 2 -77 -58
-23 -67 61 -78 80 -56 104 10 11 38 27 64 36 54 19 116 81 124 123 3 16 3 45
0 65 -5 33 -8 36 -40 36 -45 0 -83 -20 -123 -66 -32 -37 -32 -39 -27 -110 9
-126 -35 -112 -98 30 -29 65 -23 86 24 86 55 0 103 22 151 68 39 38 50 57 59
100 19 91 18 93 -36 86 -67 -9 -106 -29 -152 -79 -39 -43 -61 -95 -61 -147 0
-17 -5 -28 -14 -28 -17 0 -45 112 -49 195 l-2 60 70 -3 c96 -4 130 4 170 39
24 21 39 47 50 87 9 31 18 65 21 75 5 15 -2 17 -48 17 -114 0 -184 -46 -232
-154 l-24 -51 -12 30 c-6 17 -10 56 -8 88 5 74 19 84 124 89 72 3 87 7 125 33
55 39 77 71 85 121 l6 41 -46 13 c-86 24 -157 -8 -206 -92 -17 -29 -33 -66
-37 -81 -3 -15 -14 -32 -24 -38 -16 -8 -19 -6 -19 18 0 59 20 97 79 154 78 74
111 139 111 219 0 56 -18 140 -30 140 -3 0 -28 -18 -55 -41z"/>
<path d="M487 1587 c10 -82 24 -116 69 -166 54 -61 87 -80 156 -90 l51 -8 -6
58 c-10 109 -88 203 -190 229 -91 23 -86 25 -80 -23z"/>
<path d="M2013 1616 c-50 -13 -124 -54 -151 -86 -30 -36 -53 -94 -59 -151 -6
-57 -5 -61 13 -56 10 3 38 9 62 12 53 8 141 85 170 148 20 42 37 148 24 146
-4 0 -31 -6 -59 -13z"/>
</g>
</svg>
