<?xml version="1.0" standalone="no"?>
<!DOCTYPE svg PUBLIC "-//W3C//DTD SVG 20010904//EN"
 "http://www.w3.org/TR/2001/REC-SVG-20010904/DTD/svg10.dtd">
<svg version="1.0" xmlns="http://www.w3.org/2000/svg" viewBox="0 0 256.000000 256.000000"
 preserveAspectRatio="xMidYMid meet">
<metadata>
Created by potrace 1.11, written by Peter Selinger 2001-2013
</metadata>
<g transform="translate(0.000000,256.000000) scale(0.100000,-0.100000)" stroke="none">
<path d="M1220 2000 c-66 -14 -165 -66 -196 -103 -36 -42 -76 -131 -72 -159 3
-26 36 -35 138 -40 l63 -3 24 46 c37 71 111 103 176 75 49 -20 69 -55 71 -124
l1 -56 -105 -13 c-128 -16 -189 -33 -258 -73 -175 -102 -191 -383 -27 -485 46
-28 54 -30 154 -30 119 0 156 13 232 82 38 34 42 36 51 19 23 -41 81 -96 102
-96 25 0 166 115 166 136 0 7 -15 34 -32 59 l-33 47 -6 261 c-4 222 -8 269
-23 305 -23 54 -84 106 -155 133 -64 24 -201 33 -271 19z m203 -587 c-2 -123
-50 -199 -133 -210 -51 -7 -84 9 -105 52 -33 71 -9 159 55 201 33 22 142 46
175 39 6 -1 9 -36 8 -82z"/>
<path d="M1870 901 c-40 -12 -90 -41 -90 -51 0 -5 40 -7 98 -3 143 8 151 -6
95 -156 -13 -35 -21 -66 -19 -69 21 -20 87 71 111 152 23 77 20 115 -11 126
-29 12 -147 12 -184 1z"/>
<path d="M482 868 c7 -21 117 -106 198 -154 350 -206 782 -216 1143 -26 99 52
127 76 109 94 -9 9 -38 3 -119 -25 -200 -67 -292 -81 -523 -81 -174 0 -220 3
-306 22 -131 28 -284 82 -395 138 -93 46 -113 52 -107 32z"/>
</g>
</svg>
