<?xml version="1.0" standalone="no"?>
<!DOCTYPE svg PUBLIC "-//W3C//DTD SVG 20010904//EN"
 "http://www.w3.org/TR/2001/REC-SVG-20010904/DTD/svg10.dtd">
<svg version="1.0" xmlns="http://www.w3.org/2000/svg" viewBox="0 0 256.000000 256.000000"
 preserveAspectRatio="xMidYMid meet">
<metadata>
Created by potrace 1.11, written by Peter Selinger 2001-2013
</metadata>
<g transform="translate(0.000000,256.000000) scale(0.100000,-0.100000)" stroke="none">
<path d="M1386 1993 c-13 -94 -80 -188 -158 -223 l-40 -17 44 -7 c97 -15 183
-76 226 -160 l19 -39 8 48 c14 96 74 179 160 223 l40 21 -31 1 c-85 1 -201 77
-242 160 l-19 40 -7 -47z"/>
<path d="M1800 1837 c0 -42 -36 -103 -76 -131 -38 -25 -37 -29 10 -40 40 -10
84 -42 105 -77 l18 -29 12 41 c13 43 75 119 97 119 31 0 12 18 -25 24 -44 7
-94 44 -122 91 l-19 30 0 -28z"/>
<path d="M951 1540 c-76 -16 -142 -61 -178 -120 -37 -60 -43 -106 -15 -114 9
-2 46 -6 82 -8 l65 -3 17 37 c21 43 62 68 113 68 45 0 81 -33 90 -83 13 -67
10 -70 -98 -84 -163 -22 -242 -64 -287 -152 -55 -110 -17 -261 77 -306 88 -42
207 -28 289 34 l51 38 22 -33 c13 -18 33 -40 46 -48 21 -14 25 -13 52 7 56 42
103 86 103 99 0 6 -12 30 -27 52 -28 39 -28 40 -33 255 -3 121 -11 227 -17
241 -16 38 -63 81 -112 103 -50 22 -173 31 -240 17z m179 -445 c0 -64 -21
-134 -49 -164 -70 -75 -161 -40 -161 63 0 85 59 133 168 135 41 1 42 1 42 -34z"/>
<path d="M542 719 c2 -8 35 -39 71 -70 218 -183 481 -218 716 -94 71 38 127
87 117 103 -3 5 -43 -5 -93 -24 -123 -46 -203 -58 -347 -51 -148 7 -211 23
-346 90 -58 29 -109 54 -114 56 -5 2 -6 -3 -4 -10z"/>
</g>
</svg>
