<?xml version="1.0" standalone="no"?>
<!DOCTYPE svg PUBLIC "-//W3C//DTD SVG 20010904//EN"
 "http://www.w3.org/TR/2001/REC-SVG-20010904/DTD/svg10.dtd">
<svg version="1.0" xmlns="http://www.w3.org/2000/svg" viewBox="0 0 256.000000 256.000000"
 preserveAspectRatio="xMidYMid meet">
<metadata>
Created by potrace 1.11, written by Peter Selinger 2001-2013
</metadata>
<g transform="translate(0.000000,256.000000) scale(0.100000,-0.100000)" stroke="none">
<path d="M1000 2075 c0 -4 16 -36 36 -71 20 -36 35 -66 33 -68 -2 -1 -20 -12
-40 -24 -87 -53 -166 -173 -176 -268 l-6 -54 433 0 433 0 -6 55 c-10 98 -86
212 -177 267 -19 12 -37 23 -38 24 -2 1 12 31 32 67 20 35 36 67 36 71 0 17
-20 -8 -50 -62 -18 -31 -34 -58 -35 -60 -2 -2 -28 4 -59 13 -73 21 -199 21
-272 0 -31 -9 -57 -15 -59 -13 -1 2 -17 29 -35 60 -29 53 -50 79 -50 63z"/>
<path d="M662 1544 c-17 -7 -35 -21 -41 -33 -7 -12 -11 -106 -11 -256 l0 -237
29 -29 c40 -39 82 -39 122 0 l29 29 0 235 0 235 -25 30 c-29 35 -62 44 -103
26z"/>
<path d="M1843 1552 c-12 -2 -34 -17 -48 -33 l-25 -31 0 -235 0 -235 29 -29
c41 -40 87 -40 127 2 l29 30 0 233 c0 201 -2 235 -17 258 -18 28 -60 46 -95
40z"/>
<path d="M840 1210 c0 -409 -3 -400 121 -400 l59 0 0 -136 0 -136 29 -29 c35
-35 77 -38 114 -8 36 28 48 82 46 202 l-2 102 74 0 74 0 5 -138 c5 -137 5
-139 33 -163 39 -33 81 -31 118 5 l29 29 0 136 0 136 59 0 c124 0 121 -9 121
400 l0 330 -440 0 -440 0 0 -330z"/>
</g>
</svg>
