<?xml version="1.0" standalone="no"?>
<!DOCTYPE svg PUBLIC "-//W3C//DTD SVG 20010904//EN"
 "http://www.w3.org/TR/2001/REC-SVG-20010904/DTD/svg10.dtd">
<svg version="1.0" xmlns="http://www.w3.org/2000/svg" viewBox="0 0 256.000000 256.000000"
 preserveAspectRatio="xMidYMid meet">
<metadata>
Created by potrace 1.11, written by Peter Selinger 2001-2013
</metadata>
<g transform="translate(0.000000,256.000000) scale(0.100000,-0.100000)" stroke="none">
<path d="M1007 2062 c-25 -27 -21 -94 12 -213 28 -97 125 -376 135 -386 2 -3
14 1 26 7 15 8 42 10 76 5 30 -3 54 -4 54 -1 0 18 -168 481 -191 528 -39 77
-78 98 -112 60z"/>
<path d="M1674 2008 c-15 -18 -37 -55 -49 -83 -28 -63 -168 -466 -163 -469 10
-8 144 -24 150 -18 15 15 159 462 165 511 5 41 2 55 -12 71 -27 29 -59 25 -91
-12z"/>
<path d="M1206 1384 c-9 -9 -16 -32 -16 -56 0 -96 130 -147 373 -148 82 0 88
-2 96 -22 12 -30 1 -40 -79 -73 -121 -50 -215 -146 -246 -252 -15 -52 -15 -60
1 -122 28 -105 29 -121 12 -121 -45 0 -89 74 -102 171 -6 44 -7 45 -40 45 -33
-1 -35 -3 -35 -38 0 -68 -79 -128 -146 -112 -70 17 -152 82 -185 145 -19 39
-26 109 -10 109 5 0 27 -24 50 -54 75 -100 147 -134 191 -90 19 19 19 20 -4
69 -24 52 -118 173 -160 206 -37 29 -74 24 -112 -16 -59 -63 -58 -151 3 -268
132 -250 431 -347 693 -225 92 43 206 160 253 259 49 101 71 217 65 338 -5
109 -21 149 -70 179 -110 67 -487 121 -532 76z"/>
<path d="M945 1309 c-25 -22 -35 -39 -35 -60 0 -62 107 -229 202 -314 60 -53
98 -60 124 -20 21 32 12 70 -51 200 -67 142 -136 225 -187 225 -10 0 -33 -14
-53 -31z"/>
</g>
</svg>
