<?xml version="1.0" standalone="no"?>
<!DOCTYPE svg PUBLIC "-//W3C//DTD SVG 20010904//EN"
 "http://www.w3.org/TR/2001/REC-SVG-20010904/DTD/svg10.dtd">
<svg version="1.0" xmlns="http://www.w3.org/2000/svg" viewBox="0 0 256.000000 256.000000"
 preserveAspectRatio="xMidYMid meet">
<metadata>
Created by potrace 1.11, written by Peter Selinger 2001-2013
</metadata>
<g transform="translate(0.000000,256.000000) scale(0.100000,-0.100000)" stroke="none">
<path d="M883 1966 c-160 -40 -284 -162 -350 -343 -66 -183 -69 -489 -5 -673
70 -202 204 -328 384 -361 165 -30 347 53 479 219 l55 69 34 -64 c97 -181 247
-264 394 -218 104 33 187 134 202 247 10 69 -1 78 -98 78 l-80 0 -37 -40 c-28
-31 -44 -40 -69 -40 -47 0 -104 57 -150 148 -53 109 -51 142 22 312 61 143
201 553 212 619 8 52 -9 61 -125 61 -77 0 -94 -3 -110 -19 -11 -11 -37 -73
-57 -138 -54 -174 -105 -313 -115 -313 -5 0 -9 6 -9 13 0 27 -111 235 -152
284 -116 140 -272 198 -425 159z m196 -272 c61 -31 116 -97 160 -195 32 -70
101 -282 101 -309 0 -28 -108 -191 -163 -248 -29 -29 -74 -64 -101 -77 -121
-61 -272 -4 -333 126 -67 143 -63 452 7 588 63 122 211 174 329 115z"/>
</g>
</svg>
