<?xml version="1.0" standalone="no"?>
<!DOCTYPE svg PUBLIC "-//W3C//DTD SVG 20010904//EN"
 "http://www.w3.org/TR/2001/REC-SVG-20010904/DTD/svg10.dtd">
<svg version="1.0" xmlns="http://www.w3.org/2000/svg" viewBox="0 0 256.000000 256.000000"
 preserveAspectRatio="xMidYMid meet">
<metadata>
Created by potrace 1.11, written by Peter Selinger 2001-2013
</metadata>
<g transform="translate(0.000000,256.000000) scale(0.100000,-0.100000)" stroke="none">
<path d="M1528 2066 c-143 -51 -248 -183 -248 -311 0 -42 2 -45 28 -45 70 2
166 58 219 130 36 49 73 153 73 206 0 39 -11 42 -72 20z"/>
<path d="M939 1676 c-200 -54 -326 -267 -305 -516 18 -218 112 -436 257 -594
85 -93 154 -105 288 -51 48 20 83 27 131 27 48 0 83 -7 131 -27 89 -36 139
-41 193 -21 80 31 202 185 267 337 17 39 29 72 27 73 -38 20 -119 83 -135 104
-58 78 -68 112 -68 222 0 95 3 110 27 156 15 28 50 74 78 102 51 49 51 50 36
74 -24 36 -99 87 -161 109 -89 31 -176 26 -305 -18 l-110 -38 -110 38 c-116
39 -164 44 -241 23z"/>
</g>
</svg>
