<?xml version="1.0" standalone="no"?>
<!DOCTYPE svg PUBLIC "-//W3C//DTD SVG 20010904//EN"
 "http://www.w3.org/TR/2001/REC-SVG-20010904/DTD/svg10.dtd">
<svg version="1.0" xmlns="http://www.w3.org/2000/svg" viewBox="0 0 256.000000 256.000000"
 preserveAspectRatio="xMidYMid meet">
<metadata>
Created by potrace 1.11, written by Peter Selinger 2001-2013
</metadata>
<g transform="translate(0.000000,256.000000) scale(0.100000,-0.100000)" stroke="none">
<path d="M1240 2060 c-18 -18 -20 -33 -20 -134 0 -120 5 -137 50 -151 20 -6
59 9 72 29 4 6 8 62 8 124 0 99 -2 114 -20 132 -11 11 -31 20 -45 20 -14 0
-34 -9 -45 -20z"/>
<path d="M906 1925 c-42 -43 -27 -82 67 -172 55 -53 71 -63 101 -63 25 0 39 6
50 22 31 43 21 67 -62 150 -64 64 -84 78 -109 78 -18 0 -38 -7 -47 -15z"/>
<path d="M1514 1858 c-92 -90 -103 -117 -61 -156 41 -38 64 -29 154 61 91 91
99 112 58 152 -39 40 -60 32 -151 -57z"/>
<path d="M1190 1682 c-22 -12 -44 -35 -57 -62 -22 -43 -23 -53 -23 -326 0
-273 1 -282 23 -324 29 -55 74 -80 147 -80 74 0 119 24 148 80 21 43 22 53 22
325 0 316 -5 342 -72 383 -46 28 -138 30 -188 4z"/>
<path d="M760 1590 c-24 -24 -26 -57 -4 -88 14 -21 23 -22 134 -22 92 0 122 3
134 15 26 27 29 56 9 84 -19 25 -24 26 -136 29 -106 2 -118 1 -137 -18z"/>
<path d="M1531 1574 c-12 -15 -21 -32 -21 -39 0 -7 9 -24 21 -39 20 -25 23
-26 139 -26 111 0 120 1 134 22 9 12 16 32 16 43 0 11 -7 31 -16 43 -14 21
-23 22 -134 22 -116 0 -119 -1 -139 -26z"/>
<path d="M930 1157 c-36 -18 -47 -71 -32 -158 26 -152 118 -264 255 -310 l52
-18 3 -50 3 -51 -55 0 c-44 0 -57 -4 -66 -19 -14 -27 -13 -37 6 -55 13 -13 44
-16 188 -16 180 0 196 4 196 45 0 33 -20 45 -78 45 l-53 0 3 51 3 50 52 18
c158 53 263 207 263 385 0 76 -60 117 -111 77 -22 -17 -27 -31 -32 -89 -10
-117 -53 -187 -142 -228 -125 -59 -279 -2 -331 123 -8 17 -16 58 -19 90 -9 90
-13 99 -40 111 -32 15 -34 15 -65 -1z"/>
</g>
</svg>
