<?xml version="1.0" standalone="no"?>
<!DOCTYPE svg PUBLIC "-//W3C//DTD SVG 20010904//EN"
 "http://www.w3.org/TR/2001/REC-SVG-20010904/DTD/svg10.dtd">
<svg version="1.0" xmlns="http://www.w3.org/2000/svg" viewBox="0 0 256.000000 256.000000"
 preserveAspectRatio="xMidYMid meet">
<metadata>
Created by potrace 1.11, written by Peter Selinger 2001-2013
</metadata>
<g transform="translate(0.000000,256.000000) scale(0.100000,-0.100000)" stroke="none">
<path d="M973 1756 c-148 -48 -267 -191 -280 -336 l-6 -60 -53 -29 c-124 -71
-186 -237 -134 -359 28 -66 101 -133 178 -164 l57 -23 545 0 545 0 60 24 c81
33 166 117 184 184 44 157 -75 341 -241 372 -32 6 -36 11 -42 44 -18 117 -161
193 -273 146 -47 -20 -49 -20 -63 15 -20 49 -105 126 -177 162 -60 29 -78 33
-163 35 -59 2 -111 -3 -137 -11z m693 -477 c14 -13 24 -34 24 -51 0 -24 -4
-28 -30 -28 -22 0 -30 5 -30 18 0 42 -70 60 -90 23 -25 -48 -6 -76 70 -105 68
-27 90 -51 90 -103 0 -25 -5 -53 -10 -64 -18 -32 -68 -52 -122 -47 -58 6 -86
29 -98 81 -8 37 -8 37 25 37 29 0 34 -4 37 -27 2 -17 13 -33 29 -42 24 -13 29
-13 53 2 18 12 26 26 26 47 0 36 -20 56 -69 71 -61 18 -91 48 -98 96 -4 31 -1
50 11 69 37 56 134 68 182 23z m-686 -61 c12 -46 34 -129 50 -185 l27 -103
-32 0 c-30 0 -33 3 -44 45 l-11 45 -54 0 -53 0 -13 -45 c-11 -40 -16 -45 -41
-45 -16 0 -29 3 -29 8 0 4 23 86 50 182 28 96 50 176 50 177 0 2 18 3 39 3
l39 0 22 -82z m134 65 c2 -10 12 -67 22 -128 9 -60 20 -113 23 -118 4 -4 15
44 25 105 26 166 23 160 60 156 34 -3 30 10 66 -208 15 -88 18 -83 45 93 l19
117 28 0 c15 0 28 -4 28 -8 0 -5 -16 -87 -35 -182 -19 -95 -35 -175 -35 -177
0 -2 -15 -3 -34 -3 -41 0 -39 -5 -62 147 -10 62 -20 110 -23 107 -3 -3 -15
-60 -26 -127 l-20 -122 -36 -3 -36 -3 -32 163 c-17 90 -34 173 -36 186 -5 19
-1 22 24 22 20 0 31 -6 35 -17z"/>
</g>
</svg>
