<?xml version="1.0" standalone="no"?>
<!DOCTYPE svg PUBLIC "-//W3C//DTD SVG 20010904//EN"
 "http://www.w3.org/TR/2001/REC-SVG-20010904/DTD/svg10.dtd">
<svg version="1.0" xmlns="http://www.w3.org/2000/svg" viewBox="0 0 256.000000 256.000000"
 preserveAspectRatio="xMidYMid meet">
<metadata>
Created by potrace 1.11, written by Peter Selinger 2001-2013
</metadata>
<g transform="translate(0.000000,256.000000) scale(0.100000,-0.100000)" stroke="none">
<path d="M1193 1939 c-319 -56 -624 -446 -699 -894 -16 -94 -16 -100 2 -132
24 -46 120 -133 186 -171 71 -41 212 -87 328 -108 130 -24 410 -24 540 0 116
21 257 67 328 108 66 38 162 125 186 171 18 32 18 38 2 132 -58 346 -270 687
-511 825 -108 62 -251 89 -362 69z m374 -351 c89 -53 271 -286 355 -452 55
-110 61 -140 38 -187 -82 -159 -423 -253 -803 -221 -277 23 -433 84 -530 204
-23 28 -30 47 -29 75 2 70 151 325 229 393 33 30 76 39 88 20 4 -6 11 -8 16
-4 5 3 40 -24 77 -59 106 -101 129 -107 193 -50 23 21 86 92 140 159 55 67
109 128 121 137 26 18 58 13 105 -15z"/>
<path d="M1434 1558 c-28 -29 -78 -87 -111 -128 -78 -97 -157 -170 -183 -170
-33 0 -60 18 -133 88 -37 35 -70 63 -72 60 -5 -4 42 -124 68 -175 48 -92 144
-121 210 -63 46 40 120 148 202 295 37 66 71 126 77 133 6 6 6 12 1 12 -5 0
-31 -24 -59 -52z"/>
</g>
</svg>
