<?xml version="1.0" standalone="no"?>
<!DOCTYPE svg PUBLIC "-//W3C//DTD SVG 20010904//EN"
 "http://www.w3.org/TR/2001/REC-SVG-20010904/DTD/svg10.dtd">
<svg version="1.0" xmlns="http://www.w3.org/2000/svg" viewBox="0 0 256.000000 256.000000"
 preserveAspectRatio="xMidYMid meet">
<metadata>
Created by potrace 1.11, written by Peter Selinger 2001-2013
</metadata>
<g transform="translate(0.000000,256.000000) scale(0.100000,-0.100000)" stroke="none">
<path d="M480 1280 l0 -502 288 4 c266 4 291 6 342 26 113 45 184 152 184 279
-1 94 -30 155 -97 200 l-46 31 34 27 c53 40 75 91 75 175 0 85 -25 146 -78
190 -71 59 -99 63 -414 68 l-288 4 0 -502z m530 309 c62 -22 76 -121 23 -171
-23 -22 -33 -23 -174 -26 l-149 -3 0 105 0 106 134 0 c73 0 148 -5 166 -11z
m10 -387 c74 -36 89 -139 30 -206 l-28 -31 -156 -3 -156 -3 0 130 0 131 138 0
c110 0 144 -3 172 -18z"/>
<path d="M1527 1734 c-4 -4 -7 -27 -7 -51 l0 -43 206 0 205 0 -3 48 -3 47
-196 3 c-107 1 -198 -1 -202 -4z"/>
<path d="M1662 1540 c-109 -16 -211 -90 -253 -185 -30 -68 -43 -183 -31 -267
22 -147 98 -237 236 -280 87 -26 207 -22 282 11 76 34 147 109 168 179 7 22 6
22 -87 22 -88 0 -95 -1 -118 -26 -52 -57 -135 -69 -209 -31 -48 24 -75 61 -85
120 l-7 37 261 0 261 0 0 58 c0 124 -53 243 -133 302 -68 50 -183 74 -285 60z
m148 -171 c38 -22 63 -55 74 -101 l6 -28 -161 0 -161 0 6 32 c20 102 139 151
236 97z"/>
</g>
</svg>
