<?xml version="1.0" standalone="no"?>
<!DOCTYPE svg PUBLIC "-//W3C//DTD SVG 20010904//EN"
 "http://www.w3.org/TR/2001/REC-SVG-20010904/DTD/svg10.dtd">
<svg version="1.0" xmlns="http://www.w3.org/2000/svg" viewBox="0 0 256.000000 256.000000"
 preserveAspectRatio="xMidYMid meet">
<metadata>
Created by potrace 1.11, written by Peter Selinger 2001-2013
</metadata>
<g transform="translate(0.000000,256.000000) scale(0.100000,-0.100000)" stroke="none">
<path d="M1120 2074 c-14 -2 -65 -9 -115 -15 -241 -30 -415 -119 -415 -213 0
-56 109 -689 124 -723 40 -87 222 -160 457 -183 278 -28 612 60 673 178 16 31
126 668 126 729 0 33 -6 48 -31 73 -59 59 -185 107 -353 136 -87 15 -413 27
-466 18z m325 -114 c186 -18 279 -50 273 -93 -8 -54 -242 -93 -503 -84 -222 7
-364 41 -373 89 -13 67 316 115 603 88z m-68 -453 c111 -58 152 -186 96 -298
-63 -123 -216 -158 -329 -73 -40 29 -84 116 -84 163 0 92 63 186 145 217 47
17 129 13 172 -9z"/>
<path d="M1228 1404 c-34 -18 -58 -62 -58 -105 0 -22 10 -41 34 -65 28 -28 42
-34 76 -34 34 0 48 6 76 34 24 24 34 43 34 65 0 90 -87 146 -162 105z"/>
<path d="M760 928 c0 -36 49 -278 61 -299 43 -80 254 -149 459 -149 207 0 416
68 460 150 12 23 60 259 60 297 0 13 -6 23 -12 23 -7 0 -53 -20 -103 -45 -140
-71 -221 -88 -405 -88 -184 0 -265 17 -405 88 -50 25 -96 45 -103 45 -6 0 -12
-10 -12 -22z"/>
</g>
</svg>
