<?xml version="1.0" standalone="no"?>
<!DOCTYPE svg PUBLIC "-//W3C//DTD SVG 20010904//EN"
 "http://www.w3.org/TR/2001/REC-SVG-20010904/DTD/svg10.dtd">
<svg version="1.0" xmlns="http://www.w3.org/2000/svg" viewBox="0 0 256.000000 256.000000"
 preserveAspectRatio="xMidYMid meet">
<metadata>
Created by potrace 1.11, written by Peter Selinger 2001-2013
</metadata>
<g transform="translate(0.000000,256.000000) scale(0.100000,-0.100000)" stroke="none">
<path d="M543 1642 c-24 -4 -63 -46 -63 -69 0 -19 27 -28 44 -14 8 7 17 8 20
3 3 -5 6 -92 6 -193 1 -202 6 -220 64 -255 23 -14 50 -19 111 -19 91 0 159 21
218 67 33 26 37 27 37 10 0 -29 37 -70 69 -77 38 -8 103 10 126 35 18 20 18
20 32 1 33 -48 141 -51 208 -5 l37 25 19 -25 c41 -52 138 -42 186 19 l27 33
24 -19 c30 -23 114 -26 156 -4 35 18 36 18 36 0 0 -8 -17 -18 -42 -25 -97 -24
-119 -32 -145 -54 -36 -32 -36 -87 1 -124 22 -22 37 -27 94 -30 114 -7 171 33
188 132 5 29 18 52 45 78 22 21 39 47 39 58 0 33 -28 35 -60 5 l-29 -28 -7 27
c-4 15 -4 72 -2 127 5 110 -4 139 -47 139 -40 0 -54 -32 -48 -114 7 -86 -3
-110 -52 -126 -30 -10 -40 -9 -60 4 -23 15 -24 23 -27 118 -3 102 -3 103 -30
112 -22 8 -32 6 -48 -9 -17 -15 -20 -30 -20 -94 0 -110 -46 -196 -95 -177 -16
6 -17 22 -13 221 4 156 2 220 -7 231 -13 19 -61 22 -77 6 -7 -7 -10 -66 -9
-159 2 -174 -12 -237 -60 -277 -33 -28 -80 -34 -98 -12 -13 16 -14 29 -12 139
l1 77 49 0 c31 0 53 5 61 15 21 26 -5 45 -61 45 l-49 0 0 53 c0 58 -12 77 -46
77 -36 0 -54 -26 -54 -80 0 -33 -5 -50 -15 -54 -23 -8 -19 -47 5 -53 19 -5 20
-11 14 -67 -6 -65 -39 -144 -65 -160 -9 -5 -24 -6 -34 -2 -17 6 -18 17 -12
131 6 116 5 127 -13 145 -23 23 -39 25 -65 7 -14 -11 -19 -30 -21 -80 -3 -69
-26 -127 -63 -161 -28 -25 -33 -18 -20 29 21 77 -10 166 -73 206 -38 23 -101
20 -143 -7 l-25 -16 0 77 c0 63 -8 102 -25 123 -6 7 -63 17 -82 14z m243 -287
c26 -40 15 -132 -20 -162 -31 -27 -72 -30 -104 -7 -21 14 -22 21 -16 82 8 83
30 112 86 112 29 0 41 -6 54 -25z"/>
</g>
</svg>
