<?xml version="1.0" standalone="no"?>
<!DOCTYPE svg PUBLIC "-//W3C//DTD SVG 20010904//EN"
 "http://www.w3.org/TR/2001/REC-SVG-20010904/DTD/svg10.dtd">
<svg version="1.0" xmlns="http://www.w3.org/2000/svg" viewBox="0 0 256.000000 256.000000"
 preserveAspectRatio="xMidYMid meet">
<metadata>
Created by potrace 1.11, written by Peter Selinger 2001-2013
</metadata>
<g transform="translate(0.000000,256.000000) scale(0.100000,-0.100000)" stroke="none">
<path d="M1525 1828 c-60 -33 -74 -114 -29 -167 64 -76 184 -29 184 72 0 76
-90 131 -155 95z"/>
<path d="M480 1422 c0 -299 6 -332 72 -407 131 -149 368 -118 460 60 29 55 35
149 14 212 -35 107 -140 185 -250 187 -33 0 -73 -2 -88 -7 l-28 -7 0 110 0
110 -90 0 -90 0 0 -258z m353 -162 c38 -42 37 -92 -2 -131 -68 -68 -184 -8
-167 85 6 32 36 68 66 79 29 12 75 -3 103 -33z"/>
<path d="M1077 1673 c-4 -3 -7 -172 -7 -375 l0 -368 90 0 90 0 0 375 0 375
-83 0 c-46 0 -87 -3 -90 -7z"/>
<path d="M1712 1461 c-70 -24 -118 -65 -156 -131 l-31 -55 -3 -277 -3 -278 90
0 91 0 0 103 0 104 78 -5 c98 -6 161 19 225 87 141 151 74 397 -125 456 -66
19 -101 19 -166 -4z m161 -201 c30 -34 34 -67 12 -110 -18 -35 -43 -50 -85
-50 -42 0 -67 15 -85 50 -21 40 -19 72 6 104 43 54 105 57 152 6z"/>
<path d="M1300 1200 l0 -270 90 0 90 0 0 270 0 270 -90 0 -90 0 0 -270z"/>
</g>
</svg>
