<?xml version="1.0" standalone="no"?>
<!DOCTYPE svg PUBLIC "-//W3C//DTD SVG 20010904//EN"
 "http://www.w3.org/TR/2001/REC-SVG-20010904/DTD/svg10.dtd">
<svg version="1.0" xmlns="http://www.w3.org/2000/svg" viewBox="0 0 256.000000 256.000000"
 preserveAspectRatio="xMidYMid meet">
<metadata>
Created by potrace 1.11, written by Peter Selinger 2001-2013
</metadata>
<g transform="translate(0.000000,256.000000) scale(0.100000,-0.100000)" stroke="none">
<path d="M883 2066 c-141 -34 -268 -134 -334 -261 -58 -111 -61 -137 -57 -560
3 -428 0 -408 86 -538 70 -107 177 -182 304 -212 92 -21 705 -21 797 0 89 21
176 70 241 135 65 65 100 121 131 210 21 60 23 82 23 306 1 266 -2 281 -59
309 -20 9 -61 15 -103 15 -101 0 -120 18 -133 125 -5 44 -15 96 -21 115 -56
179 -219 326 -397 360 -76 14 -414 11 -478 -4z m473 -439 c27 -32 31 -75 9
-116 -24 -46 -55 -53 -245 -49 l-172 3 -29 33 c-32 35 -37 72 -15 111 26 47
47 51 244 48 l184 -2 24 -28z m290 -580 c25 -30 31 -75 14 -108 -25 -46 -49
-49 -384 -49 l-316 0 -31 28 c-44 39 -44 95 1 135 l31 28 330 -3 331 -3 24
-28z"/>
</g>
</svg>
