<?xml version="1.0" standalone="no"?>
<!DOCTYPE svg PUBLIC "-//W3C//DTD SVG 20010904//EN"
 "http://www.w3.org/TR/2001/REC-SVG-20010904/DTD/svg10.dtd">
<svg version="1.0" xmlns="http://www.w3.org/2000/svg" viewBox="0 0 256.000000 256.000000"
 preserveAspectRatio="xMidYMid meet">
<metadata>
Created by potrace 1.11, written by Peter Selinger 2001-2013
</metadata>
<g transform="translate(0.000000,256.000000) scale(0.100000,-0.100000)" stroke="none">
<path d="M610 1279 l0 -800 458 3 c501 4 508 5 639 68 155 76 243 218 243 395
0 174 -85 316 -225 376 -30 13 -55 26 -55 29 0 3 20 18 45 33 52 33 96 82 127
140 20 37 23 56 23 167 0 113 -2 130 -25 175 -33 66 -94 126 -162 158 -104 50
-189 57 -649 57 l-419 0 0 -801z m825 501 c70 -35 95 -76 95 -157 0 -74 -16
-111 -63 -147 -49 -38 -104 -45 -314 -46 l-193 0 0 183 c0 101 3 187 8 191 4
5 99 6 212 4 194 -3 208 -5 255 -28z m21 -605 c84 -25 131 -85 141 -179 7 -72
-12 -133 -56 -177 -55 -55 -88 -61 -348 -66 l-233 -5 0 221 0 221 223 0 c168
0 236 -4 273 -15z"/>
</g>
</svg>
