<?xml version="1.0" standalone="no"?>
<!DOCTYPE svg PUBLIC "-//W3C//DTD SVG 20010904//EN"
 "http://www.w3.org/TR/2001/REC-SVG-20010904/DTD/svg10.dtd">
<svg version="1.0" xmlns="http://www.w3.org/2000/svg" viewBox="0 0 256.000000 256.000000"
 preserveAspectRatio="xMidYMid meet">
<metadata>
Created by potrace 1.11, written by Peter Selinger 2001-2013
</metadata>
<g transform="translate(0.000000,256.000000) scale(0.100000,-0.100000)" stroke="none">
<path d="M1130 2065 c-329 -66 -572 -313 -636 -643 -66 -346 117 -707 439
-861 127 -61 191 -75 347 -75 156 0 220 14 346 74 163 79 295 211 374 374 60
126 74 190 74 346 0 156 -14 220 -75 347 -155 323 -522 508 -869 438z m230
-184 c0 -5 30 -23 66 -40 57 -27 74 -30 115 -25 96 13 176 -55 202 -171 10
-43 19 -58 46 -77 19 -13 42 -39 52 -58 21 -39 25 -122 8 -167 -15 -39 -57
-81 -94 -93 -31 -10 -32 -13 -38 -76 -4 -39 -2 -74 4 -86 9 -16 7 -19 -8 -16
-15 3 -18 -4 -17 -46 0 -40 -2 -45 -12 -32 -10 15 -14 13 -34 -19 -12 -20 -49
-68 -82 -108 -32 -40 -62 -84 -65 -100 -4 -19 -9 -24 -17 -18 -7 6 -35 -12
-84 -55 l-73 -64 -80 0 c-99 0 -123 11 -174 85 -49 71 -135 166 -144 160 -10
-6 -58 149 -66 212 l-7 52 -24 -16 c-29 -19 -30 -13 -4 29 24 40 25 48 3 48
-15 0 -15 2 1 19 17 18 16 20 -6 26 -137 43 -161 257 -37 328 31 18 39 28 39
52 0 82 45 154 115 186 44 20 129 25 170 9 19 -7 42 -5 93 11 103 32 112 37
112 59 0 18 3 19 20 10 11 -6 20 -15 20 -19z"/>
<path d="M1009 1743 c-1 -4 -1 -11 0 -15 0 -4 -4 -19 -9 -33 -10 -26 -38 -33
-57 -14 -18 18 -47 -45 -33 -71 11 -21 4 -70 -11 -70 -14 0 -10 -39 7 -65 9
-14 13 -33 9 -44 -6 -20 25 -94 46 -106 6 -4 17 2 25 14 8 12 21 21 29 21 20
0 38 -37 32 -67 -4 -21 -1 -24 22 -21 20 2 27 9 29 32 2 16 -2 32 -8 36 -8 5
-7 9 4 13 10 4 16 1 16 -8 0 -21 10 -18 50 16 33 28 35 33 38 107 4 89 -26
191 -58 199 -10 3 -16 11 -14 18 3 7 -9 23 -25 35 l-31 21 0 -29 c0 -17 6 -33
13 -35 6 -3 -4 -6 -23 -6 -23 0 -30 2 -22 8 19 12 11 65 -10 69 -10 2 -19 0
-19 -5z"/>
<path d="M1540 1722 c0 -48 -48 -72 -69 -34 -8 14 -12 15 -22 5 -7 -7 -10 -13
-6 -13 4 0 -3 -10 -14 -21 -13 -13 -17 -24 -11 -28 5 -3 11 -27 13 -53 4 -45
3 -48 -20 -48 -20 0 -22 3 -13 12 7 7 12 26 12 42 0 23 -3 27 -12 18 -7 -7
-14 -51 -16 -102 -4 -78 -2 -90 12 -90 20 0 23 66 4 73 -7 3 -3 6 8 6 19 1 22
-5 26 -44 3 -41 1 -45 -19 -45 -26 0 -29 -17 -10 -44 12 -16 16 -17 35 -5 19
12 24 11 38 -3 10 -9 17 -31 16 -47 -1 -26 3 -31 24 -31 21 0 24 5 24 34 0 19
-6 36 -12 38 -7 3 -2 7 10 10 20 6 22 3 22 -33 0 -21 4 -39 8 -39 5 0 21 13
36 29 20 21 24 30 14 34 -8 4 -7 6 5 6 24 1 50 64 45 108 -3 22 0 33 9 33 7 0
13 9 13 20 0 11 -6 20 -12 20 -9 0 -13 17 -13 50 0 28 3 50 8 50 9 0 -19 58
-41 83 -8 9 -19 17 -24 17 -12 0 -10 -34 4 -48 9 -9 6 -12 -17 -12 -23 0 -26
3 -17 12 17 17 15 55 -4 62 -28 11 -34 7 -34 -22z"/>
<path d="M777 1540 c-79 -69 -63 -211 28 -254 43 -21 55 -20 55 3 0 11 -12 23
-29 31 -16 6 -32 18 -35 26 -5 12 -2 12 16 3 18 -10 20 -9 15 5 -8 19 -3 20
23 4 32 -21 35 0 10 75 -14 40 -26 74 -27 76 -2 3 -14 -6 -28 -19 -14 -13 -25
-19 -25 -13 0 5 11 20 25 33 25 23 34 60 15 60 -5 0 -25 -13 -43 -30z"/>
<path d="M1747 1558 c-2 -7 7 -26 19 -41 30 -36 31 -54 2 -25 l-22 22 -24 -78
c-13 -43 -21 -80 -18 -83 2 -2 14 0 25 6 17 10 20 9 15 -4 -7 -18 7 -20 24 -3
9 9 12 9 12 0 0 -7 -15 -20 -34 -28 -25 -12 -32 -21 -29 -35 16 -61 132 49
133 126 0 42 -22 95 -51 125 -33 33 -45 37 -52 18z"/>
<path d="M1151 1326 c-19 -20 -22 -32 -17 -60 6 -29 3 -35 -14 -41 -34 -11
-89 -65 -112 -108 -17 -34 -20 -54 -16 -127 3 -70 10 -98 36 -154 18 -38 46
-84 62 -103 17 -18 30 -38 30 -43 0 -21 61 -40 129 -40 l70 0 61 55 c68 59
111 115 134 168 24 58 38 145 31 189 -8 45 -55 104 -110 138 -33 20 -34 23
-28 69 5 45 3 50 -21 66 -25 17 -30 17 -68 2 -36 -14 -44 -15 -69 -2 -41 22
-72 18 -98 -9z"/>
</g>
</svg>
