<?xml version="1.0" standalone="no"?>
<!DOCTYPE svg PUBLIC "-//W3C//DTD SVG 20010904//EN"
 "http://www.w3.org/TR/2001/REC-SVG-20010904/DTD/svg10.dtd">
<svg version="1.0" xmlns="http://www.w3.org/2000/svg" viewBox="0 0 256.000000 256.000000"
 preserveAspectRatio="xMidYMid meet">
<metadata>
Created by potrace 1.11, written by Peter Selinger 2001-2013
</metadata>
<g transform="translate(0.000000,256.000000) scale(0.100000,-0.100000)" stroke="none">
<path d="M883 1829 c-208 -138 -384 -258 -390 -267 -18 -23 -18 -541 -1 -564
23 -28 767 -518 788 -518 21 0 765 490 788 518 9 12 12 84 12 282 0 198 -3
270 -12 282 -23 28 -767 518 -788 518 -11 0 -189 -113 -397 -251z m327 -109
l0 -160 -149 -99 -149 -100 -116 81 c-65 44 -115 83 -112 86 6 5 519 350 524
351 1 1 2 -71 2 -159z m418 -22 c138 -92 252 -172 252 -176 0 -4 -53 -42 -117
-84 l-116 -76 -148 99 -149 99 0 161 c0 125 3 159 13 153 6 -4 126 -83 265
-176z m-226 -335 c65 -43 118 -80 118 -83 0 -3 -54 -40 -120 -84 l-120 -79
-120 79 c-66 44 -120 81 -120 84 0 5 232 160 240 160 2 0 57 -35 122 -77z
m-674 -41 c28 -19 52 -38 52 -42 0 -6 -33 -30 -132 -94 l-28 -18 0 112 0 112
28 -18 c15 -9 51 -33 80 -52z m1210 -97 l-3 -55 -75 50 c-41 27 -75 54 -75 60
0 6 34 33 75 60 l75 50 3 -55 c2 -30 2 -80 0 -110z m-728 -386 c0 -125 -3
-159 -12 -153 -7 4 -127 84 -267 177 -169 112 -250 172 -243 179 5 5 59 42
118 82 l109 73 148 -99 147 -98 0 -161z m558 276 c61 -41 112 -77 112 -80 0
-4 -469 -320 -517 -349 -10 -6 -13 28 -13 153 l0 161 142 95 c79 52 147 95
153 95 6 0 61 -34 123 -75z"/>
</g>
</svg>
