<?xml version="1.0" standalone="no"?>
<!DOCTYPE svg PUBLIC "-//W3C//DTD SVG 20010904//EN"
 "http://www.w3.org/TR/2001/REC-SVG-20010904/DTD/svg10.dtd">
<svg version="1.0" xmlns="http://www.w3.org/2000/svg" viewBox="0 0 256.000000 256.000000"
 preserveAspectRatio="xMidYMid meet">
<metadata>
Created by potrace 1.11, written by Peter Selinger 2001-2013
</metadata>
<g transform="translate(0.000000,256.000000) scale(0.100000,-0.100000)" stroke="none">
<path d="M797 1632 c-295 -295 -317 -320 -317 -352 0 -33 22 -57 318 -353 260
-260 322 -317 344 -317 39 0 48 25 48 132 l0 93 -222 222 -223 223 223 223
222 222 0 93 c0 107 -9 132 -48 132 -22 0 -84 -56 -345 -318z"/>
<path d="M1380 1931 c-5 -11 -10 -61 -10 -112 l0 -93 222 -223 222 -223 -222
-223 -222 -223 0 -93 c0 -106 9 -131 48 -131 22 0 84 56 345 318 295 295 317
320 317 352 0 33 -22 57 -318 353 -260 260 -322 317 -344 317 -17 0 -31 -8
-38 -19z"/>
</g>
</svg>
