<?xml version="1.0" standalone="no"?>
<!DOCTYPE svg PUBLIC "-//W3C//DTD SVG 20010904//EN"
 "http://www.w3.org/TR/2001/REC-SVG-20010904/DTD/svg10.dtd">
<svg version="1.0" xmlns="http://www.w3.org/2000/svg" viewBox="0 0 256.000000 256.000000"
 preserveAspectRatio="xMidYMid meet">
<metadata>
Created by potrace 1.11, written by Peter Selinger 2001-2013
</metadata>
<g transform="translate(0.000000,256.000000) scale(0.100000,-0.100000)" stroke="none">
<path d="M1336 2065 c-197 -50 -372 -224 -471 -467 -97 -239 -143 -528 -116
-731 21 -154 69 -251 157 -313 75 -54 138 -69 284 -68 108 0 136 4 205 27 160
53 298 161 363 283 38 72 37 70 14 83 -15 8 -30 -1 -83 -52 -105 -101 -242
-154 -371 -145 -119 9 -184 63 -214 178 -13 52 -15 93 -11 210 15 364 163 761
325 874 81 56 182 43 218 -26 31 -59 6 -167 -53 -230 -28 -30 -25 -41 19 -64
22 -11 48 -15 86 -12 46 4 60 10 83 36 15 17 33 51 40 74 15 58 6 154 -19 205
-27 52 -92 107 -151 128 -65 23 -231 29 -305 10z"/>
</g>
</svg>
