<?xml version="1.0" standalone="no"?>
<!DOCTYPE svg PUBLIC "-//W3C//DTD SVG 20010904//EN"
 "http://www.w3.org/TR/2001/REC-SVG-20010904/DTD/svg10.dtd">
<svg version="1.0" xmlns="http://www.w3.org/2000/svg" viewBox="0 0 256.000000 256.000000"
 preserveAspectRatio="xMidYMid meet">
<metadata>
Created by potrace 1.11, written by Peter Selinger 2001-2013
</metadata>
<g transform="translate(0.000000,256.000000) scale(0.100000,-0.100000)" stroke="none">
<path d="M617 2020 c-107 -32 -165 -162 -118 -265 50 -111 187 -150 290 -82
86 57 108 195 45 274 -54 68 -139 96 -217 73z"/>
<path d="M1194 2005 c-184 -92 -120 -365 86 -365 93 0 165 57 190 148 22 86
-20 175 -102 216 -65 33 -110 33 -174 1z"/>
<path d="M1810 2015 c-106 -48 -149 -168 -99 -273 52 -106 207 -137 296 -59
134 117 68 328 -108 343 -36 3 -65 -1 -89 -11z"/>
<path d="M1216 1465 c-58 -20 -104 -71 -122 -132 -14 -48 -14 -58 0 -106 15
-53 56 -102 106 -127 35 -18 129 -17 166 3 98 51 138 172 89 268 -21 39 -79
87 -122 98 -49 14 -69 13 -117 -4z"/>
<path d="M1830 1469 c-83 -25 -140 -101 -140 -189 0 -91 58 -166 148 -190 119
-31 242 65 242 192 0 123 -132 222 -250 187z"/>
<path d="M1792 899 c-120 -60 -137 -234 -32 -322 155 -131 386 44 301 228 -49
105 -164 145 -269 94z"/>
</g>
</svg>
