<?xml version="1.0" standalone="no"?>
<!DOCTYPE svg PUBLIC "-//W3C//DTD SVG 20010904//EN"
 "http://www.w3.org/TR/2001/REC-SVG-20010904/DTD/svg10.dtd">
<svg version="1.0" xmlns="http://www.w3.org/2000/svg" viewBox="0 0 256.000000 256.000000"
 preserveAspectRatio="xMidYMid meet">
<metadata>
Created by potrace 1.11, written by Peter Selinger 2001-2013
</metadata>
<g transform="translate(0.000000,256.000000) scale(0.100000,-0.100000)" stroke="none">
<path d="M854 1812 c-80 -54 -192 -155 -220 -200 -16 -25 -36 -53 -45 -61 -19
-19 -44 -81 -53 -132 -10 -56 13 -55 86 1 262 203 305 233 418 289 67 34 128
61 136 61 13 0 -168 -150 -272 -225 -95 -69 -140 -105 -161 -127 -35 -37 -51
-48 -91 -62 -66 -24 -130 -57 -136 -71 -3 -8 30 2 80 25 l84 39 -33 -34 c-21
-21 -50 -38 -79 -45 -36 -9 -46 -16 -45 -31 1 -10 5 -19 9 -19 4 0 8 -7 8 -15
0 -8 7 -15 15 -15 8 0 15 -5 15 -11 0 -6 17 4 38 22 55 48 95 79 104 79 4 0
-1 -9 -13 -21 -11 -11 -18 -23 -15 -27 4 -3 25 13 49 35 41 41 212 141 191
112 -9 -12 -107 -136 -153 -194 -16 -19 -15 -19 9 -2 14 9 34 21 46 26 12 5
66 58 120 117 144 157 151 164 166 164 7 -1 -5 -16 -27 -35 -22 -19 -35 -35
-29 -35 5 0 23 14 40 31 16 18 48 40 72 51 93 42 44 -10 -68 -72 -91 -52 -112
-69 -106 -89 3 -10 -8 -25 -30 -41 -20 -14 -60 -44 -90 -67 -29 -24 -57 -43
-60 -43 -7 0 -89 -67 -139 -113 -16 -16 -44 -40 -61 -53 -34 -26 -53 -67 -28
-57 8 3 14 -1 14 -11 0 -9 7 -16 16 -16 8 0 12 -4 9 -10 -3 -5 2 -10 12 -10
10 0 41 23 68 51 28 28 69 64 92 79 23 15 39 31 35 35 -4 5 -1 5 6 1 6 -4 12
-9 12 -11 0 -2 -30 -27 -67 -56 -38 -30 -72 -60 -77 -69 -5 -8 -22 -27 -37
-42 -15 -16 -23 -28 -18 -28 17 0 109 61 106 72 -1 5 9 17 23 25 l25 15 -25
-22 c-15 -13 -18 -20 -9 -17 10 3 31 -9 55 -35 36 -36 42 -39 77 -34 25 4 36
3 32 -4 -3 -5 -1 -10 4 -10 6 0 11 5 11 11 0 5 4 7 10 4 5 -3 22 3 37 14 16
12 51 25 80 31 50 9 200 77 191 86 -3 2 -29 -9 -59 -26 -61 -33 -69 -35 -69
-17 0 6 24 24 54 38 45 22 57 24 76 14 22 -12 22 -12 -12 -32 -45 -26 -52 -53
-23 -89 28 -36 49 -38 91 -9 44 30 100 49 121 41 9 -4 51 13 101 40 77 41 83
43 64 19 -12 -15 -24 -43 -28 -64 -3 -20 -8 -43 -10 -53 -3 -10 7 -24 25 -38
26 -18 35 -20 69 -10 22 5 51 21 66 35 15 14 51 37 79 52 46 23 101 59 132 86
22 19 -46 -14 -139 -68 -114 -65 -150 -81 -143 -63 2 7 10 12 16 11 6 -2 11 1
11 6 0 5 26 24 58 42 31 18 75 48 98 66 22 18 44 30 47 26 4 -3 7 1 7 11 0 15
-2 15 -30 1 -16 -8 -37 -15 -46 -15 -10 0 -27 -8 -38 -17 -21 -18 -21 -18 -3
3 19 23 22 44 7 44 -5 0 -16 -15 -25 -34 -9 -19 -28 -42 -41 -51 -30 -19 -31
-11 -1 25 12 16 30 40 40 55 10 14 22 23 26 20 8 -4 111 142 111 158 0 3 -16
17 -37 31 l-36 25 -45 -40 c-52 -46 -78 -53 -30 -9 l33 31 -40 -23 c-22 -12
-51 -30 -64 -40 -26 -20 -46 -24 -35 -7 3 6 -6 3 -22 -7 l-29 -18 29 32 c16
17 32 30 34 27 7 -7 42 25 42 38 0 17 104 117 118 114 8 -1 21 8 29 21 15 21
13 24 -23 58 -22 19 -50 41 -63 47 -13 7 -25 19 -27 29 -1 12 -57 96 -91 137
-1 2 -14 -1 -28 -7 -21 -10 -24 -9 -22 6 1 9 -2 17 -8 17 -5 0 -9 -4 -7 -8 1
-5 -2 -5 -8 -2 -7 4 -21 -2 -33 -13 -12 -11 -32 -23 -44 -27 -13 -3 -23 -13
-23 -21 0 -8 -5 -14 -12 -14 -6 0 -8 -3 -5 -7 4 -3 -2 -11 -12 -17 -58 -34
-62 -34 -27 -4 l38 33 -23 40 c-12 22 -24 42 -26 44 -2 3 -17 -3 -33 -13 -17
-9 -30 -14 -30 -10 0 4 -9 -1 -20 -11 -11 -10 -23 -16 -26 -12 -6 6 33 31 51
32 6 1 9 6 8 12 -2 7 6 15 17 18 11 4 20 11 20 17 0 18 -48 0 -207 -77 -84
-41 -153 -72 -153 -70 0 2 27 23 60 45 33 22 60 45 60 49 0 5 27 31 60 58 33
26 60 51 60 54 0 3 -6 13 -12 22 -12 15 -18 15 -66 3 -30 -8 -49 -10 -46 -4
11 18 -37 -2 -126 -51 -141 -78 -191 -112 -280 -186 -79 -66 -133 -105 -144
-105 -2 0 7 27 22 61 21 49 45 79 124 154 55 52 93 95 86 97 -7 3 6 17 30 33
36 24 49 35 40 35 -2 0 -21 -12 -44 -28z"/>
<path d="M1173 898 c-12 -13 -27 -51 -34 -86 -9 -40 -20 -67 -31 -73 -9 -5
-69 -10 -132 -12 -63 -1 -118 -6 -122 -9 -4 -4 -15 -3 -25 3 -13 6 -25 6 -38
-1 -11 -5 -44 -10 -73 -11 -45 0 -49 -2 -29 -10 14 -5 31 -7 40 -4 8 3 18 0
22 -7 6 -9 16 -9 47 1 24 8 57 11 84 7 42 -6 180 -8 226 -3 12 1 27 9 32 17 5
8 10 10 10 4 0 -6 21 -12 47 -13 25 0 51 -5 57 -10 19 -15 93 -23 101 -12 3 6
35 10 73 10 52 -1 60 -3 37 -9 -18 -4 32 -8 120 -7 94 0 133 3 105 7 -33 5
-16 7 68 8 67 1 112 6 112 12 0 6 -35 10 -87 9 -49 -1 -160 2 -248 5 -88 3
-185 6 -215 5 -79 0 -102 11 -106 49 -3 20 0 31 7 29 6 -1 16 11 21 27 8 22 7
30 -3 37 -8 5 -11 9 -6 9 9 0 -23 50 -32 50 -4 0 -17 -10 -28 -22z"/>
</g>
</svg>
