<?xml version="1.0" standalone="no"?>
<!DOCTYPE svg PUBLIC "-//W3C//DTD SVG 20010904//EN"
 "http://www.w3.org/TR/2001/REC-SVG-20010904/DTD/svg10.dtd">
<svg version="1.0" xmlns="http://www.w3.org/2000/svg" viewBox="0 0 256.000000 256.000000"
 preserveAspectRatio="xMidYMid meet">
<metadata>
Created by potrace 1.11, written by Peter Selinger 2001-2013
</metadata>
<g transform="translate(0.000000,256.000000) scale(0.100000,-0.100000)" stroke="none">
<path d="M801 1685 c-129 -36 -223 -115 -280 -235 -34 -71 -36 -81 -36 -175 0
-92 3 -106 32 -168 58 -121 168 -208 301 -236 163 -34 335 16 431 125 20 23
71 109 113 191 95 183 126 226 179 254 34 17 56 20 114 17 61 -3 78 -8 110
-32 120 -92 86 -278 -59 -321 -97 -29 -162 -15 -235 51 l-50 45 -55 -107 -54
-107 21 -18 c119 -97 282 -132 432 -94 172 45 299 194 312 367 26 344 -336
565 -659 402 -93 -47 -151 -120 -239 -300 -87 -178 -125 -224 -201 -245 -32
-9 -57 -9 -97 -1 -128 27 -193 145 -142 258 35 76 126 121 223 108 l43 -5 54
97 c42 76 51 98 40 105 -53 34 -216 47 -298 24z"/>
</g>
</svg>
