<?xml version="1.0" standalone="no"?>
<!DOCTYPE svg PUBLIC "-//W3C//DTD SVG 20010904//EN"
 "http://www.w3.org/TR/2001/REC-SVG-20010904/DTD/svg10.dtd">
<svg version="1.0" xmlns="http://www.w3.org/2000/svg" viewBox="0 0 256.000000 256.000000"
 preserveAspectRatio="xMidYMid meet">
<metadata>
Created by potrace 1.11, written by Peter Selinger 2001-2013
</metadata>
<g transform="translate(0.000000,256.000000) scale(0.100000,-0.100000)" stroke="none">
<path d="M715 1988 c-7 -21 -45 -220 -45 -234 0 -12 91 -14 538 -14 296 0 541
-2 544 -5 3 -3 -2 -42 -11 -88 l-17 -82 -546 -3 c-510 -2 -547 -3 -552 -20 -6
-22 -46 -230 -46 -243 0 -5 208 -9 545 -9 l545 0 -5 -22 c-3 -13 -16 -79 -30
-148 -14 -68 -29 -127 -33 -131 -4 -4 -103 -38 -220 -77 l-213 -71 -190 72
-190 72 5 35 c3 19 8 50 12 68 l7 32 -135 0 -134 0 -31 -157 c-17 -87 -28
-161 -25 -165 9 -9 610 -238 625 -238 6 0 171 53 366 118 277 92 355 121 362
137 5 11 58 272 119 580 60 308 112 570 115 583 l5 22 -680 0 c-536 0 -682 -3
-685 -12z"/>
</g>
</svg>
