<?xml version="1.0" standalone="no"?>
<!DOCTYPE svg PUBLIC "-//W3C//DTD SVG 20010904//EN"
 "http://www.w3.org/TR/2001/REC-SVG-20010904/DTD/svg10.dtd">
<svg version="1.0" xmlns="http://www.w3.org/2000/svg" viewBox="0 0 256.000000 256.000000"
 preserveAspectRatio="xMidYMid meet">
<metadata>
Created by potrace 1.11, written by Peter Selinger 2001-2013
</metadata>
<g transform="translate(0.000000,256.000000) scale(0.100000,-0.100000)" stroke="none">
<path d="M505 2055 l-25 -24 0 -751 0 -751 25 -24 24 -25 751 0 751 0 24 25
25 24 0 751 0 751 -25 24 -24 25 -751 0 -751 0 -24 -25z m1513 -37 c9 -9 12
-79 12 -255 0 -134 -2 -243 -6 -243 -3 0 -55 13 -117 30 -279 74 -526 87 -824
44 l-42 -6 -35 71 -36 71 -130 0 -129 0 45 -97 c25 -54 48 -102 50 -108 2 -5
-16 -18 -41 -29 -25 -10 -88 -47 -140 -82 l-95 -63 0 328 c0 241 3 330 12 339
17 17 1459 17 1476 0z m-358 -568 c98 -28 157 -61 215 -120 l48 -48 -39 -11
c-106 -28 -284 -71 -292 -71 -5 0 -32 50 -61 110 l-51 110 -145 0 c-80 0 -145
-2 -145 -5 0 -6 220 -447 226 -454 2 -2 137 33 301 78 164 44 302 81 306 81
13 0 8 -565 -5 -578 -17 -17 -1459 -17 -1476 0 -7 7 -12 43 -12 93 l0 80 403
109 c221 60 406 112 410 116 4 4 -46 118 -113 255 -66 136 -120 249 -120 250
0 3 72 15 165 29 17 2 93 3 170 1 104 -3 159 -9 215 -25z m-716 -230 c38 -83
66 -154 62 -158 -14 -14 -307 -79 -313 -69 -12 20 -15 136 -4 169 19 59 67
124 121 167 29 23 55 41 59 41 3 0 37 -68 75 -150z"/>
</g>
</svg>
