<?xml version="1.0" standalone="no"?>
<!DOCTYPE svg PUBLIC "-//W3C//DTD SVG 20010904//EN"
 "http://www.w3.org/TR/2001/REC-SVG-20010904/DTD/svg10.dtd">
<svg version="1.0" xmlns="http://www.w3.org/2000/svg" viewBox="0 0 256.000000 256.000000"
 preserveAspectRatio="xMidYMid meet">
<metadata>
Created by potrace 1.11, written by Peter Selinger 2001-2013
</metadata>
<g transform="translate(0.000000,256.000000) scale(0.100000,-0.100000)" stroke="none">
<path d="M1278 1838 l-3 -153 -102 -3 -103 -3 0 56 0 55 -55 0 -55 0 0 55 0
56 -132 -3 -133 -3 -3 -52 -3 -53 -50 0 -49 0 0 -55 0 -55 -55 0 -55 0 0 -199
0 -200 53 -3 52 -3 3 -52 3 -53 90 0 89 0 0 -95 0 -95 -40 0 -40 0 0 -55 0
-55 -50 0 -50 0 0 -150 0 -150 240 0 240 0 0 150 0 150 -55 0 -55 0 0 55 0 55
-40 0 -40 0 0 95 0 95 150 0 150 0 2 -297 3 -298 403 -3 402 -2 0 310 0 310
45 0 45 0 0 245 0 245 -100 0 -100 0 0 155 0 155 -300 0 -299 0 -3 -152z m482
-153 l0 -195 -190 0 -190 0 0 195 0 195 190 0 190 0 0 -195z m-800 50 l0 -55
55 0 55 0 0 -200 0 -200 -240 0 -240 0 0 200 0 200 50 0 50 0 0 55 0 55 135 0
135 0 0 -55z m320 -260 l0 -95 300 0 300 0 0 95 0 95 45 0 45 0 0 -145 0 -145
-45 0 -45 0 0 -300 0 -300 -120 0 -120 0 0 150 0 150 -50 0 -50 0 0 -150 0
-150 -125 0 -125 0 0 300 0 300 -55 0 -55 0 0 145 0 145 50 0 50 0 0 -95z
m-320 -700 l0 -95 -135 0 -135 0 0 95 0 95 135 0 135 0 0 -95z"/>
</g>
</svg>
