<?xml version="1.0" standalone="no"?>
<!DOCTYPE svg PUBLIC "-//W3C//DTD SVG 20010904//EN"
 "http://www.w3.org/TR/2001/REC-SVG-20010904/DTD/svg10.dtd">
<svg version="1.0" xmlns="http://www.w3.org/2000/svg" viewBox="0 0 256.000000 256.000000"
 preserveAspectRatio="xMidYMid meet">
<metadata>
Created by potrace 1.11, written by Peter Selinger 2001-2013
</metadata>
<g transform="translate(0.000000,256.000000) scale(0.100000,-0.100000)" stroke="none">
<path d="M550 1280 l0 -802 383 5 c409 5 439 8 582 62 297 111 473 358 492
686 20 363 -149 650 -457 775 -154 62 -192 67 -612 71 l-388 5 0 -802z m722
399 c72 -15 161 -64 204 -112 140 -155 131 -458 -17 -592 -87 -78 -183 -105
-375 -105 l-124 0 0 410 0 410 130 0 c71 0 153 -5 182 -11z"/>
</g>
</svg>
