<?xml version="1.0" standalone="no"?>
<!DOCTYPE svg PUBLIC "-//W3C//DTD SVG 20010904//EN"
 "http://www.w3.org/TR/2001/REC-SVG-20010904/DTD/svg10.dtd">
<svg version="1.0" xmlns="http://www.w3.org/2000/svg" viewBox="0 0 256.000000 256.000000"
 preserveAspectRatio="xMidYMid meet">
<metadata>
Created by potrace 1.11, written by Peter Selinger 2001-2013
</metadata>
<g transform="translate(0.000000,256.000000) scale(0.100000,-0.100000)" stroke="none">
<path d="M1130 2065 c-330 -67 -572 -312 -636 -643 -66 -346 117 -707 439
-861 127 -61 191 -75 347 -75 156 0 220 14 346 74 163 79 295 211 374 374 60
126 74 190 74 346 0 156 -14 220 -75 347 -155 323 -522 508 -869 438z m319
-141 c66 -17 183 -73 226 -108 l30 -25 -40 -41 c-51 -54 -143 -119 -223 -159
l-63 -32 -17 31 c-39 71 -128 199 -183 264 -32 38 -57 71 -55 73 2 2 30 7 62
12 70 11 186 4 263 -15z m-384 -147 c100 -124 182 -256 165 -267 -7 -4 -58
-17 -114 -29 -194 -41 -476 -56 -476 -26 0 28 41 124 79 182 64 100 220 238
260 231 8 -2 47 -43 86 -91z m810 -202 c37 -75 65 -170 65 -220 l0 -30 -226 0
-225 0 -18 41 c-38 83 -38 80 31 115 96 48 167 100 228 166 l55 60 28 -31 c15
-17 44 -62 62 -101z m-550 -225 c24 -47 24 -51 8 -56 -202 -65 -409 -224 -519
-398 -16 -25 -32 -46 -36 -46 -13 0 -69 83 -99 145 -35 74 -54 148 -64 241
l-7 71 164 6 c166 6 338 30 458 66 36 10 66 19 67 20 2 0 14 -22 28 -49z m610
-187 c-22 -149 -129 -326 -248 -411 l-46 -32 -6 47 c-17 123 -70 346 -100 426
-7 16 7 17 200 17 l207 0 -7 -47z m-501 -110 c30 -102 59 -239 79 -366 5 -34
-10 -42 -128 -64 -99 -18 -201 -10 -305 23 -64 20 -176 77 -203 103 -12 12 69
129 142 204 76 79 158 141 251 187 74 37 112 50 122 41 4 -3 23 -61 42 -128z"/>
</g>
</svg>
