<?xml version="1.0" standalone="no"?>
<!DOCTYPE svg PUBLIC "-//W3C//DTD SVG 20010904//EN"
 "http://www.w3.org/TR/2001/REC-SVG-20010904/DTD/svg10.dtd">
<svg version="1.0" xmlns="http://www.w3.org/2000/svg" viewBox="0 0 256.000000 256.000000"
 preserveAspectRatio="xMidYMid meet">
<metadata>
Created by potrace 1.11, written by Peter Selinger 2001-2013
</metadata>
<g transform="translate(0.000000,256.000000) scale(0.100000,-0.100000)" stroke="none">
<path d="M717 1871 c-126 -82 -229 -151 -228 -155 0 -4 70 -63 156 -132 85
-68 155 -126 155 -128 0 -3 -72 -62 -160 -132 l-160 -127 48 -32 c26 -18 132
-87 235 -154 l188 -123 42 35 c23 19 96 80 162 136 66 55 123 100 127 98 4 -1
80 -62 168 -135 l160 -134 173 113 c94 62 200 131 234 154 l63 42 -160 127
c-88 70 -160 129 -160 132 0 2 69 58 153 125 83 67 156 125 160 129 7 6 -420
292 -456 306 -14 5 -322 -249 -322 -266 0 -5 99 -71 220 -146 121 -74 223
-139 228 -143 8 -8 -442 -291 -463 -291 -10 0 -441 261 -463 280 -5 4 95 72
222 150 127 78 231 146 231 150 0 9 -310 270 -320 270 -3 0 -108 -67 -233
-149z"/>
<path d="M1113 964 l-162 -135 -68 46 -68 45 -3 -41 c-2 -23 -1 -47 1 -53 6
-16 463 -289 475 -284 5 1 111 64 235 138 l226 135 1 53 0 53 -27 -19 c-16
-11 -47 -31 -70 -45 l-41 -26 -164 134 c-89 74 -165 135 -168 135 -3 0 -78
-61 -167 -136z"/>
</g>
</svg>
