<?xml version="1.0" standalone="no"?>
<!DOCTYPE svg PUBLIC "-//W3C//DTD SVG 20010904//EN"
 "http://www.w3.org/TR/2001/REC-SVG-20010904/DTD/svg10.dtd">
<svg version="1.0" xmlns="http://www.w3.org/2000/svg" viewBox="0 0 256.000000 256.000000"
 preserveAspectRatio="xMidYMid meet">
<metadata>
Created by potrace 1.11, written by Peter Selinger 2001-2013
</metadata>
<g transform="translate(0.000000,256.000000) scale(0.100000,-0.100000)" stroke="none">
<path d="M1215 2033 c-17 -94 -60 -138 -213 -221 -174 -95 -271 -186 -340
-321 -53 -100 -71 -167 -79 -276 -27 -413 323 -757 747 -732 182 11 329 76
455 202 124 124 182 255 192 435 18 314 -151 577 -464 721 -107 49 -164 91
-228 168 -27 33 -53 60 -56 60 -4 1 -10 -16 -14 -36z m47 -897 c31 -13 85 -43
120 -68 146 -104 152 -104 323 8 107 70 141 77 185 37 26 -24 33 -39 37 -79
14 -138 -75 -299 -153 -280 -14 4 -66 45 -116 93 -89 84 -92 85 -133 81 -27
-4 -79 -27 -149 -68 -153 -89 -206 -109 -290 -110 -153 0 -232 96 -192 233 44
149 210 218 368 153z m378 -495 c0 -14 -17 -28 -57 -48 -50 -24 -72 -28 -162
-31 -110 -4 -172 10 -205 47 -15 16 -15 19 -1 31 13 11 22 10 53 -4 82 -40
244 -38 322 3 46 24 50 24 50 2z"/>
</g>
</svg>
