<?xml version="1.0" standalone="no"?>
<!DOCTYPE svg PUBLIC "-//W3C//DTD SVG 20010904//EN"
 "http://www.w3.org/TR/2001/REC-SVG-20010904/DTD/svg10.dtd">
<svg version="1.0" xmlns="http://www.w3.org/2000/svg" viewBox="0 0 256.000000 256.000000"
 preserveAspectRatio="xMidYMid meet">
<metadata>
Created by potrace 1.11, written by Peter Selinger 2001-2013
</metadata>
<g transform="translate(0.000000,256.000000) scale(0.100000,-0.100000)" stroke="none">
<path d="M880 1468 c0 -128 -1 -132 -16 -101 -30 60 -90 92 -174 93 -130 1
-210 -72 -210 -191 0 -110 60 -173 177 -185 77 -8 138 9 180 51 44 44 44 65
-3 65 -27 0 -41 -7 -56 -25 -57 -73 -186 -41 -213 53 l-6 22 160 0 161 0 0
-80 0 -80 40 0 c33 0 40 3 40 20 0 11 1 20 3 20 1 0 24 -11 51 -25 89 -45 201
-22 249 50 l21 32 15 -30 c22 -43 61 -68 114 -74 62 -7 108 3 151 32 l36 24 0
-24 c0 -22 4 -25 35 -25 l34 0 3 133 3 132 69 -129 68 -130 -31 -63 c-17 -35
-31 -66 -31 -68 0 -3 19 -5 43 -5 l42 0 120 238 c66 130 121 241 123 245 2 5
-16 7 -39 5 l-44 -3 -69 -135 -69 -134 -68 137 -69 137 -46 0 c-36 0 -45 -3
-41 -14 5 -11 -4 -10 -36 5 -48 21 -136 25 -188 8 -42 -14 -89 -57 -89 -81 0
-29 67 -25 91 6 23 29 79 41 125 26 36 -12 54 -35 54 -69 0 -20 -6 -21 -94
-21 -100 0 -138 -9 -172 -41 l-21 -20 -7 48 c-12 90 -69 147 -161 160 -49 6
-128 -11 -146 -33 -23 -28 -29 -12 -29 81 l0 95 -40 0 -40 0 0 -132z m-145
-72 c30 -13 65 -58 65 -86 0 -6 -41 -10 -115 -10 -114 0 -115 0 -115 23 0 37
62 85 113 86 10 1 33 -5 52 -13z m441 -30 c30 -30 34 -40 34 -85 0 -93 -41
-141 -121 -141 -87 0 -143 80 -119 169 15 58 59 91 122 91 44 0 54 -4 84 -34z
m414 -128 c0 -13 -9 -37 -20 -55 -50 -82 -215 -56 -192 30 7 29 59 46 140 47
68 0 72 -1 72 -22z"/>
</g>
</svg>
