<?xml version="1.0" standalone="no"?>
<!DOCTYPE svg PUBLIC "-//W3C//DTD SVG 20010904//EN"
 "http://www.w3.org/TR/2001/REC-SVG-20010904/DTD/svg10.dtd">
<svg version="1.0" xmlns="http://www.w3.org/2000/svg" viewBox="0 0 256.000000 256.000000"
 preserveAspectRatio="xMidYMid meet">
<metadata>
Created by potrace 1.11, written by Peter Selinger 2001-2013
</metadata>
<g transform="translate(0.000000,256.000000) scale(0.100000,-0.100000)" stroke="none">
<path d="M480 1280 l0 -600 800 0 800 0 0 600 0 600 -800 0 -800 0 0 -600z
m1141 211 c-149 -153 -278 -285 -287 -292 -9 -7 -31 -13 -50 -13 -31 0 -50 15
-190 155 -85 84 -214 216 -286 292 l-130 137 607 0 607 0 -271 -279z m-631
-210 c-1 -3 -91 -98 -200 -211 l-200 -205 1 415 0 415 199 -204 c110 -112 200
-207 200 -210z m978 -205 l-3 -205 -199 205 -199 206 199 199 199 199 3 -199
c1 -110 1 -292 0 -405z m-740 5 c80 -23 128 -7 203 66 l55 53 200 -202 199
-203 -303 -3 c-166 -1 -438 -1 -604 0 l-303 3 199 202 198 203 59 -55 c34 -31
75 -58 97 -64z"/>
</g>
</svg>
