<?xml version="1.0" standalone="no"?>
<!DOCTYPE svg PUBLIC "-//W3C//DTD SVG 20010904//EN"
 "http://www.w3.org/TR/2001/REC-SVG-20010904/DTD/svg10.dtd">
<svg version="1.0" xmlns="http://www.w3.org/2000/svg" viewBox="0 0 256.000000 256.000000"
 preserveAspectRatio="xMidYMid meet">
<metadata>
Created by potrace 1.11, written by Peter Selinger 2001-2013
</metadata>
<g transform="translate(0.000000,256.000000) scale(0.100000,-0.100000)" stroke="none">
<path d="M1810 2045 c-30 -15 -84 -66 -157 -147 -352 -391 -588 -721 -794
-1113 l-69 -132 45 -42 c207 -194 648 -166 853 53 33 36 77 95 97 131 124 221
196 609 196 1054 0 159 -2 186 -17 202 -24 27 -97 24 -154 -6z m95 -238 c-373
-332 -628 -622 -928 -1056 -59 -84 -107 -150 -107 -146 0 11 163 247 259 375
142 190 326 404 485 565 134 135 343 325 356 325 3 -1 -26 -29 -65 -63z"/>
<path d="M1073 1820 c-247 -115 -414 -277 -474 -462 -34 -104 -33 -267 4 -388
33 -111 66 -186 76 -174 12 14 483 1055 479 1059 -1 1 -40 -14 -85 -35z"/>
</g>
</svg>
