<?xml version="1.0" standalone="no"?>
<!DOCTYPE svg PUBLIC "-//W3C//DTD SVG 20010904//EN"
 "http://www.w3.org/TR/2001/REC-SVG-20010904/DTD/svg10.dtd">
<svg version="1.0" xmlns="http://www.w3.org/2000/svg" viewBox="0 0 256.000000 256.000000"
 preserveAspectRatio="xMidYMid meet">
<metadata>
Created by potrace 1.11, written by Peter Selinger 2001-2013
</metadata>
<g transform="translate(0.000000,256.000000) scale(0.100000,-0.100000)" stroke="none">
<path d="M1090 2076 c0 -4 40 -52 89 -108 l90 -100 -20 -49 c-10 -27 -28 -72
-39 -99 -11 -28 -20 -54 -20 -59 0 -4 31 -11 68 -14 81 -7 156 -33 230 -82
l54 -36 111 12 c62 6 117 17 123 23 6 6 30 59 52 118 l40 107 -34 40 c-82 95
-232 183 -379 222 -79 21 -365 40 -365 25z"/>
<path d="M1076 1934 c-76 -17 -211 -73 -199 -84 4 -4 29 -14 54 -24 48 -17 59
-36 59 -102 0 -30 3 -30 65 1 28 13 71 30 97 36 42 11 48 17 63 56 l17 43 -37
45 c-21 25 -40 45 -44 44 -3 0 -37 -7 -75 -15z"/>
<path d="M747 1760 c-66 -62 -157 -182 -157 -208 0 -5 26 -3 58 4 31 8 62 14
67 13 6 0 28 -22 50 -50 l39 -50 24 46 c13 26 48 72 78 103 45 47 54 62 54 91
0 66 -8 78 -67 100 -30 12 -58 21 -63 21 -4 0 -42 -32 -83 -70z"/>
<path d="M1845 1640 c-44 -121 -34 -113 -150 -125 -33 -3 -74 -8 -91 -11 l-31
-6 33 -50 c48 -70 65 -137 63 -240 l-2 -87 62 -74 62 -75 106 23 c58 13 109
29 114 36 37 60 43 317 10 444 -20 80 -107 266 -126 272 -5 2 -28 -46 -50
-107z"/>
<path d="M640 1524 c-35 -8 -68 -18 -72 -22 -4 -4 -17 -44 -29 -87 -23 -86
-30 -288 -12 -333 9 -23 11 -22 58 35 27 32 50 59 51 61 1 2 32 -4 68 -13 37
-8 69 -15 71 -15 1 0 1 46 -2 103 -3 60 -1 118 6 142 12 43 8 52 -46 111 l-28
32 -65 -14z"/>
<path d="M593 1078 l-51 -63 24 -64 c45 -120 128 -233 227 -309 29 -23 57 -42
60 -42 4 0 4 42 0 93 l-6 92 72 40 c39 22 71 42 71 45 0 3 -16 16 -36 30 -41
27 -101 103 -137 170 -21 40 -28 45 -77 56 -88 21 -92 20 -147 -48z"/>
<path d="M1620 1034 c-38 -69 -112 -142 -174 -173 -28 -14 -48 -31 -51 -44 -3
-12 -12 -53 -21 -92 l-16 -70 39 -34 c21 -18 57 -49 81 -68 l42 -36 48 18
c146 54 303 197 382 347 25 48 42 89 38 93 -3 3 -52 -3 -108 -15 -55 -12 -102
-21 -104 -19 -1 2 -26 33 -56 69 -30 36 -57 69 -61 73 -3 5 -21 -17 -39 -49z"/>
<path d="M951 808 l-74 -41 7 -60 c3 -33 6 -77 6 -98 0 -37 1 -37 73 -67 113
-48 223 -66 347 -58 116 7 160 14 160 26 0 5 -33 36 -74 69 l-73 61 19 86 c11
47 18 87 16 89 -2 3 -31 0 -63 -5 -65 -11 -152 -1 -225 25 -23 8 -43 15 -44
15 0 0 -34 -19 -75 -42z"/>
</g>
</svg>
