<?xml version="1.0" standalone="no"?>
<!DOCTYPE svg PUBLIC "-//W3C//DTD SVG 20010904//EN"
 "http://www.w3.org/TR/2001/REC-SVG-20010904/DTD/svg10.dtd">
<svg version="1.0" xmlns="http://www.w3.org/2000/svg" viewBox="0 0 256.000000 256.000000"
 preserveAspectRatio="xMidYMid meet">
<metadata>
Created by potrace 1.11, written by Peter Selinger 2001-2013
</metadata>
<g transform="translate(0.000000,256.000000) scale(0.100000,-0.100000)" stroke="none">
<path d="M957 2065 c-48 -16 -81 -46 -102 -92 -22 -45 -285 -1294 -285 -1351
0 -61 23 -100 73 -123 39 -17 72 -19 502 -19 418 0 463 2 495 18 64 32 110
165 75 218 -33 51 -55 54 -435 54 -327 0 -350 1 -349 18 0 9 17 96 37 192 l37
175 302 5 c301 5 301 5 327 29 35 33 58 98 54 151 -3 38 -8 48 -37 67 -33 23
-39 23 -307 23 -231 0 -274 2 -274 14 0 8 16 87 35 175 19 88 35 162 35 165 0
3 165 6 366 6 412 0 414 0 453 71 13 23 25 65 28 99 5 54 4 60 -21 83 -14 14
-40 27 -57 31 -18 3 -230 6 -473 6 -347 -1 -449 -4 -479 -15z"/>
</g>
</svg>
