<?xml version="1.0" standalone="no"?>
<!DOCTYPE svg PUBLIC "-//W3C//DTD SVG 20010904//EN"
 "http://www.w3.org/TR/2001/REC-SVG-20010904/DTD/svg10.dtd">
<svg version="1.0" xmlns="http://www.w3.org/2000/svg" viewBox="0 0 256.000000 256.000000"
 preserveAspectRatio="xMidYMid meet">
<metadata>
Created by potrace 1.11, written by Peter Selinger 2001-2013
</metadata>
<g transform="translate(0.000000,256.000000) scale(0.100000,-0.100000)" stroke="none">
<path d="M1059 2071 c-84 -26 -99 -56 -99 -199 0 -141 2 -138 -151 -144 -133
-5 -161 -16 -186 -76 -19 -45 -14 -112 22 -304 31 -172 59 -261 93 -299 33
-37 136 -69 323 -100 118 -20 131 -20 153 -6 30 20 56 96 65 190 l7 72 7 -54
c16 -112 53 -139 212 -161 108 -15 142 -31 160 -73 18 -45 29 -139 21 -192
-10 -66 -37 -80 -149 -80 -81 0 -90 2 -108 24 -40 49 -20 93 48 100 l47 6 3
59 2 59 -81 -6 c-137 -9 -171 -52 -166 -209 3 -111 17 -139 84 -173 34 -17 59
-20 194 -20 177 0 199 7 250 77 64 88 126 363 137 603 3 72 0 218 -6 325 -20
327 -32 378 -101 412 -50 25 -209 48 -327 48 l-103 0 -20 40 c-25 48 -49 65
-118 79 -60 12 -174 13 -213 2z"/>
<path d="M780 1884 c-93 -93 -126 -132 -107 -124 16 5 75 10 132 10 l104 0 3
123 c2 67 3 123 3 124 -1 1 -62 -59 -135 -133z"/>
</g>
</svg>
