<?xml version="1.0" standalone="no"?>
<!DOCTYPE svg PUBLIC "-//W3C//DTD SVG 20010904//EN"
 "http://www.w3.org/TR/2001/REC-SVG-20010904/DTD/svg10.dtd">
<svg version="1.0" xmlns="http://www.w3.org/2000/svg" viewBox="0 0 256.000000 256.000000"
 preserveAspectRatio="xMidYMid meet">
<metadata>
Created by potrace 1.11, written by Peter Selinger 2001-2013
</metadata>
<g transform="translate(0.000000,256.000000) scale(0.100000,-0.100000)" stroke="none">
<path d="M1331 1526 c-30 -16 -50 -52 -51 -88 0 -21 -5 -28 -20 -28 -17 0 -20
-7 -20 -45 0 -38 3 -45 20 -45 19 0 20 -7 20 -150 l0 -150 55 0 55 0 0 150 0
150 25 0 c23 0 25 4 25 45 0 42 -2 45 -26 45 -32 0 -30 30 4 45 17 8 22 18 22
47 l0 38 -42 0 c-24 -1 -54 -7 -67 -14z"/>
<path d="M1660 1413 c-8 -3 -25 -15 -37 -26 l-23 -20 0 22 c0 20 -4 22 -52 19
l-53 -3 0 -190 0 -190 55 0 55 0 3 125 c3 137 12 160 62 160 51 0 60 -23 60
-164 l0 -127 58 3 57 3 5 133 c5 143 9 152 61 152 45 0 53 -21 57 -161 l4
-129 55 0 54 0 -3 160 -3 160 -38 37 c-35 35 -41 38 -97 38 -51 0 -62 -4 -89
-29 l-31 -30 -29 28 c-30 28 -96 43 -131 29z"/>
<path d="M595 1391 c-124 -57 -153 -214 -57 -314 63 -66 157 -79 236 -33 37
22 86 78 86 100 0 18 -50 3 -64 -19 -67 -102 -227 -75 -261 43 l-6 22 172 0
172 0 -5 50 c-12 125 -157 205 -273 151z m135 -37 c41 -16 71 -50 84 -91 l7
-23 -145 0 -145 0 10 29 c18 50 80 96 136 100 7 1 31 -6 53 -15z"/>
<path d="M939 1312 c34 -49 61 -92 61 -96 0 -4 -27 -47 -60 -96 -33 -49 -60
-92 -60 -95 0 -3 11 -5 25 -5 19 0 35 16 75 75 28 41 52 75 54 75 2 0 24 -32
50 -70 47 -72 62 -84 91 -78 12 2 0 26 -49 100 -64 95 -65 97 -48 120 10 13
39 53 66 91 l47 67 -30 0 c-27 0 -37 -9 -77 -70 -26 -38 -48 -70 -50 -70 -2 0
-25 32 -50 70 -40 60 -51 70 -76 70 l-29 0 60 -88z"/>
</g>
</svg>
