<?xml version="1.0" standalone="no"?>
<!DOCTYPE svg PUBLIC "-//W3C//DTD SVG 20010904//EN"
 "http://www.w3.org/TR/2001/REC-SVG-20010904/DTD/svg10.dtd">
<svg version="1.0" xmlns="http://www.w3.org/2000/svg" viewBox="0 0 256.000000 256.000000"
 preserveAspectRatio="xMidYMid meet">
<metadata>
Created by potrace 1.11, written by Peter Selinger 2001-2013
</metadata>
<g transform="translate(0.000000,256.000000) scale(0.100000,-0.100000)" stroke="none">
<path d="M895 2064 c-99 -19 -190 -67 -255 -134 -62 -63 -101 -136 -132 -248
-21 -73 -22 -102 -25 -582 l-4 -505 184 184 185 184 4 276 c4 224 8 284 21
319 44 116 98 145 280 150 l127 4 0 -136 c0 -116 2 -138 16 -143 12 -4 107 85
343 321 l326 326 -500 -1 c-383 -1 -516 -4 -570 -15z"/>
<path d="M1893 1778 l-182 -183 -4 -275 c-2 -168 -9 -289 -16 -311 -19 -60
-53 -101 -106 -128 -44 -23 -64 -26 -177 -30 l-128 -3 0 136 c0 116 -2 138
-16 143 -12 4 -107 -85 -343 -321 l-326 -327 530 4 c480 3 535 5 585 21 185
61 295 181 346 377 15 54 18 132 21 509 2 245 3 473 1 508 l-3 62 -182 -182z"/>
</g>
</svg>
