<?xml version="1.0" standalone="no"?>
<!DOCTYPE svg PUBLIC "-//W3C//DTD SVG 20010904//EN"
 "http://www.w3.org/TR/2001/REC-SVG-20010904/DTD/svg10.dtd">
<svg version="1.0" xmlns="http://www.w3.org/2000/svg" viewBox="0 0 256.000000 256.000000"
 preserveAspectRatio="xMidYMid meet">
<metadata>
Created by potrace 1.11, written by Peter Selinger 2001-2013
</metadata>
<g transform="translate(0.000000,256.000000) scale(0.100000,-0.100000)" stroke="none">
<path d="M1425 2074 c-136 -21 -295 -105 -359 -188 l-26 -35 53 24 c80 35 151
54 248 66 111 13 287 -8 381 -45 80 -32 93 -32 123 -1 57 56 19 110 -106 150
-83 27 -237 41 -314 29z"/>
<path d="M1305 1910 c-142 -23 -271 -86 -369 -182 -39 -37 -68 -70 -65 -72 3
-3 32 8 66 24 95 45 204 69 371 82 231 18 364 -12 452 -103 77 -80 132 -151
156 -203 l23 -50 12 30 c7 16 13 65 13 109 1 70 -3 86 -28 133 -55 99 -158
170 -308 212 -85 24 -238 33 -323 20z"/>
<path d="M1115 1714 c-152 -33 -298 -114 -391 -217 -243 -269 -147 -638 211
-812 113 -55 184 -74 310 -82 93 -6 110 -10 237 -65 75 -32 146 -58 158 -58
11 0 32 11 45 25 23 22 25 32 25 107 l0 83 59 38 c66 43 156 133 171 171 30
81 -70 131 -127 64 -50 -59 -87 -91 -155 -135 -80 -52 -98 -75 -98 -125 0 -21
-4 -38 -8 -38 -5 0 -45 16 -89 35 -66 29 -96 36 -172 40 -190 10 -332 66 -437
170 -88 89 -109 137 -109 255 0 86 3 100 29 148 61 110 197 208 347 248 79 21
270 24 349 5 91 -22 214 -86 253 -131 71 -83 69 -176 -5 -256 -89 -97 -254
-142 -408 -111 -215 42 -353 166 -369 331 l-6 60 -62 -61 c-42 -41 -63 -69
-63 -84 0 -49 59 -150 128 -219 115 -115 282 -180 463 -180 171 0 309 51 409
150 82 81 105 134 105 245 0 79 -4 96 -29 144 -57 109 -189 201 -351 246 -87
24 -328 29 -420 9z"/>
<path d="M1055 1519 c-27 -11 -51 -22 -53 -24 -10 -10 49 -98 99 -147 67 -66
169 -119 274 -144 111 -26 295 -10 350 29 24 18 33 114 13 140 -13 17 -15 17
-62 -3 -156 -69 -370 -27 -486 96 -27 29 -50 58 -50 63 0 16 -29 12 -85 -10z"/>
</g>
</svg>
