<?xml version="1.0" standalone="no"?>
<!DOCTYPE svg PUBLIC "-//W3C//DTD SVG 20010904//EN"
 "http://www.w3.org/TR/2001/REC-SVG-20010904/DTD/svg10.dtd">
<svg version="1.0" xmlns="http://www.w3.org/2000/svg" viewBox="0 0 256.000000 256.000000"
 preserveAspectRatio="xMidYMid meet">
<metadata>
Created by potrace 1.11, written by Peter Selinger 2001-2013
</metadata>
<g transform="translate(0.000000,256.000000) scale(0.100000,-0.100000)" stroke="none">
<path d="M947 1282 c-180 -433 -327 -790 -327 -794 0 -5 133 -8 295 -8 l295 0
0 170 0 169 -62 42 c-93 62 -99 68 -87 91 9 18 14 16 75 -27 36 -25 67 -45 69
-45 3 0 5 59 5 130 l0 130 75 0 75 0 0 -80 c0 -44 2 -80 5 -80 3 0 32 13 64
30 50 25 61 27 71 15 17 -21 6 -32 -71 -70 l-69 -35 0 -60 c0 -33 2 -60 5 -60
3 0 59 27 125 60 114 57 120 59 130 40 10 -18 -1 -25 -125 -87 l-135 -68 0
-132 0 -133 294 0 294 0 -332 795 c-182 437 -333 795 -336 795 -3 0 -152 -355
-333 -788z"/>
</g>
</svg>
