<?xml version="1.0" standalone="no"?>
<!DOCTYPE svg PUBLIC "-//W3C//DTD SVG 20010904//EN"
 "http://www.w3.org/TR/2001/REC-SVG-20010904/DTD/svg10.dtd">
<svg version="1.0" xmlns="http://www.w3.org/2000/svg" viewBox="0 0 256.000000 256.000000"
 preserveAspectRatio="xMidYMid meet">
<metadata>
Created by potrace 1.11, written by Peter Selinger 2001-2013
</metadata>
<g transform="translate(0.000000,256.000000) scale(0.100000,-0.100000)" stroke="none">
<path d="M1216 2066 c-52 -20 -688 -651 -717 -711 -24 -51 -24 -99 0 -150 12
-26 133 -154 352 -372 296 -294 339 -333 378 -343 51 -13 103 -6 146 20 17 10
177 166 356 347 302 304 327 331 338 376 13 54 2 116 -29 157 l-19 25 -338
-336 c-360 -359 -360 -359 -441 -344 -31 6 -74 43 -280 248 -315 314 -315 315
-163 470 96 99 123 117 176 117 53 0 69 -11 188 -128 l107 -107 207 208 208
207 -140 140 c-77 78 -154 150 -171 160 -43 27 -110 34 -158 16z"/>
<path d="M1570 1505 l-305 -304 -135 139 c-88 92 -142 140 -156 140 -23 0
-184 -159 -184 -181 0 -18 462 -479 480 -479 23 0 810 791 810 815 0 30 -149
175 -180 175 -19 0 -96 -72 -330 -305z"/>
</g>
</svg>
