<?xml version="1.0" standalone="no"?>
<!DOCTYPE svg PUBLIC "-//W3C//DTD SVG 20010904//EN"
 "http://www.w3.org/TR/2001/REC-SVG-20010904/DTD/svg10.dtd">
<svg version="1.0" xmlns="http://www.w3.org/2000/svg" viewBox="0 0 256.000000 256.000000"
 preserveAspectRatio="xMidYMid meet">
<metadata>
Created by potrace 1.11, written by Peter Selinger 2001-2013
</metadata>
<g transform="translate(0.000000,256.000000) scale(0.100000,-0.100000)" stroke="none">
<path d="M557 1966 l-78 -72 56 -39 c39 -26 55 -43 51 -54 -3 -9 -14 -41 -25
-71 -38 -104 -23 -270 33 -359 34 -53 101 -110 165 -140 50 -23 68 -26 176
-27 94 0 127 -4 153 -18 39 -20 49 -40 32 -61 -16 -19 -65 -19 -186 1 -199 34
-364 -20 -425 -139 -29 -56 -35 -151 -15 -221 62 -214 414 -317 718 -212 l68
24 68 -24 c278 -96 605 -18 705 171 31 58 31 202 0 260 -45 85 -119 128 -250
146 -65 10 -96 9 -175 -5 -119 -20 -172 -20 -188 -1 -17 21 -7 41 32 61 26 14
59 18 153 18 109 1 125 4 177 28 76 35 151 107 185 177 23 47 28 72 31 162 4
96 2 111 -22 170 -14 36 -26 68 -26 71 0 2 25 22 56 43 l56 39 -79 72 c-43 40
-82 73 -88 74 -5 0 -30 -23 -55 -50 l-45 -51 -55 23 c-45 18 -75 22 -170 22
-128 0 -200 -19 -268 -70 -35 -27 -35 -27 -66 -9 -113 68 -205 91 -325 82 -43
-3 -103 -15 -132 -27 l-54 -20 -45 50 c-25 28 -49 50 -55 50 -5 -1 -45 -34
-88 -74z m522 -209 c49 -33 70 -79 72 -159 2 -78 -19 -128 -69 -166 -29 -22
-48 -27 -106 -30 -61 -3 -76 0 -106 20 -68 45 -102 170 -69 255 14 37 56 82
94 99 45 22 137 12 184 -19z m578 22 c38 -14 83 -57 99 -96 37 -85 4 -214 -66
-261 -48 -32 -158 -29 -208 6 -96 69 -98 266 -3 328 49 33 126 43 178 23z
m-342 -844 c47 -17 165 -19 289 -5 110 13 168 5 207 -27 65 -55 17 -139 -94
-163 -31 -7 -92 -11 -140 -8 -76 4 -96 9 -170 46 -45 22 -91 50 -100 60 -18
19 -19 19 -83 -24 -84 -56 -174 -84 -273 -84 -100 0 -172 21 -205 61 -35 41
-34 81 3 112 39 32 97 40 207 27 120 -13 241 -12 284 4 19 8 35 14 35 15 0 0
18 -6 40 -14z"/>
</g>
</svg>
