<?xml version="1.0" standalone="no"?>
<!DOCTYPE svg PUBLIC "-//W3C//DTD SVG 20010904//EN"
 "http://www.w3.org/TR/2001/REC-SVG-20010904/DTD/svg10.dtd">
<svg version="1.0" xmlns="http://www.w3.org/2000/svg" viewBox="0 0 256.000000 256.000000"
 preserveAspectRatio="xMidYMid meet">
<metadata>
Created by potrace 1.11, written by Peter Selinger 2001-2013
</metadata>
<g transform="translate(0.000000,256.000000) scale(0.100000,-0.100000)" stroke="none">
<path d="M1142 2050 c-378 -68 -662 -407 -662 -790 0 -229 115 -475 286 -612
77 -61 170 -116 230 -135 75 -23 84 -13 84 91 l0 81 -83 0 c-74 0 -88 3 -124
27 -27 18 -48 44 -65 80 -15 32 -46 72 -74 97 -55 48 -51 68 12 56 38 -7 87
-49 126 -107 43 -65 196 -80 214 -21 3 10 14 34 24 54 l19 37 -46 7 c-162 24
-270 122 -302 273 -23 108 -11 199 36 281 23 39 26 57 27 140 1 53 5 102 10
110 14 21 82 7 159 -34 67 -34 71 -35 125 -25 31 5 95 10 142 10 47 0 111 -5
142 -10 54 -10 58 -9 125 25 77 41 145 55 159 34 5 -8 9 -57 10 -110 1 -83 4
-101 27 -140 37 -64 51 -129 44 -216 -8 -102 -33 -167 -89 -229 -52 -57 -116
-89 -208 -106 l-58 -11 22 -36 c18 -32 21 -54 24 -193 4 -187 6 -190 86 -165
59 19 151 72 227 132 112 88 224 263 265 415 25 90 25 310 0 400 -74 275 -301
502 -571 575 -72 19 -270 28 -343 15z"/>
</g>
</svg>
