<?xml version="1.0" standalone="no"?>
<!DOCTYPE svg PUBLIC "-//W3C//DTD SVG 20010904//EN"
 "http://www.w3.org/TR/2001/REC-SVG-20010904/DTD/svg10.dtd">
<svg version="1.0" xmlns="http://www.w3.org/2000/svg" viewBox="0 0 256.000000 256.000000"
 preserveAspectRatio="xMidYMid meet">
<metadata>
Created by potrace 1.11, written by Peter Selinger 2001-2013
</metadata>
<g transform="translate(0.000000,256.000000) scale(0.100000,-0.100000)" stroke="none">
<path d="M555 1846 c-16 -7 -39 -23 -50 -36 -19 -21 -20 -38 -23 -519 -1 -384
1 -502 11 -521 21 -41 76 -71 122 -68 l40 3 5 426 5 426 305 -218 c168 -120
310 -217 316 -215 6 2 146 101 312 220 l302 216 0 -431 0 -431 57 4 c49 4 60
9 90 41 l33 37 0 492 c0 374 -3 499 -13 518 -13 25 -71 70 -91 70 -6 0 -164
-110 -351 -245 -187 -134 -342 -244 -345 -244 -3 0 -158 110 -345 244 -187
135 -342 245 -345 244 -3 0 -18 -6 -35 -13z"/>
</g>
</svg>
