<?xml version="1.0" standalone="no"?>
<!DOCTYPE svg PUBLIC "-//W3C//DTD SVG 20010904//EN"
 "http://www.w3.org/TR/2001/REC-SVG-20010904/DTD/svg10.dtd">
<svg version="1.0" xmlns="http://www.w3.org/2000/svg" viewBox="0 0 256.000000 256.000000"
 preserveAspectRatio="xMidYMid meet">
<metadata>
Created by potrace 1.11, written by Peter Selinger 2001-2013
</metadata>
<g transform="translate(0.000000,256.000000) scale(0.100000,-0.100000)" stroke="none">
<path d="M1150 2062 c-210 -55 -341 -239 -357 -502 -15 -253 91 -466 274 -553
60 -28 80 -32 175 -35 88 -4 120 0 177 17 126 38 251 145 282 241 6 19 15 39
20 45 12 12 11 -320 -1 -415 -19 -144 -99 -256 -215 -299 -129 -48 -312 -46
-426 5 -101 46 -179 155 -179 251 0 18 -6 23 -25 23 -24 0 -25 -2 -19 -42 33
-216 203 -328 474 -315 218 11 341 91 412 266 23 56 23 58 26 679 3 621 3 622
-18 622 -19 0 -20 -6 -20 -152 l0 -153 -40 81 c-98 201 -313 295 -540 236z
m315 -67 c157 -75 255 -256 255 -472 0 -110 -13 -177 -51 -260 -120 -267 -490
-340 -693 -137 -92 91 -137 220 -137 389 0 250 105 426 294 496 42 15 74 18
162 16 98 -3 117 -6 170 -32z"/>
</g>
</svg>
