<?xml version="1.0" standalone="no"?>
<!DOCTYPE svg PUBLIC "-//W3C//DTD SVG 20010904//EN"
 "http://www.w3.org/TR/2001/REC-SVG-20010904/DTD/svg10.dtd">
<svg version="1.0" xmlns="http://www.w3.org/2000/svg" viewBox="0 0 256.000000 256.000000"
 preserveAspectRatio="xMidYMid meet">
<metadata>
Created by potrace 1.11, written by Peter Selinger 2001-2013
</metadata>
<g transform="translate(0.000000,256.000000) scale(0.100000,-0.100000)" stroke="none">
<path d="M1233 2069 c-112 -19 -222 -78 -287 -156 -70 -84 -101 -216 -73 -314
44 -149 163 -239 323 -242 l71 -2 -5 -62 c-4 -53 -1 -68 22 -108 14 -26 26
-49 26 -50 0 -1 -32 -5 -71 -9 -299 -28 -479 -157 -479 -343 0 -194 194 -313
485 -300 180 9 294 51 397 145 84 78 113 143 113 252 0 124 -35 181 -186 302
-148 118 -150 145 -16 274 110 105 132 150 132 264 0 103 -21 155 -91 230
l-47 50 58 0 c48 0 69 6 122 35 34 20 63 38 63 40 0 9 -504 3 -557 -6z m82
-78 c107 -48 185 -202 185 -365 0 -126 -61 -199 -176 -212 -41 -5 -58 -1 -104
23 -96 51 -158 168 -168 316 -8 130 24 198 112 238 52 23 100 24 151 0z m118
-950 c123 -84 186 -166 187 -242 1 -150 -131 -238 -339 -226 -165 9 -271 62
-317 160 -49 107 -15 211 93 278 48 30 170 58 256 58 71 1 83 -2 120 -28z"/>
</g>
</svg>
