<?xml version="1.0" standalone="no"?>
<!DOCTYPE svg PUBLIC "-//W3C//DTD SVG 20010904//EN"
 "http://www.w3.org/TR/2001/REC-SVG-20010904/DTD/svg10.dtd">
<svg version="1.0" xmlns="http://www.w3.org/2000/svg" viewBox="0 0 256.000000 256.000000"
 preserveAspectRatio="xMidYMid meet">
<metadata>
Created by potrace 1.11, written by Peter Selinger 2001-2013
</metadata>
<g transform="translate(0.000000,256.000000) scale(0.100000,-0.100000)" stroke="none">
<path d="M843 1945 c-109 -30 -190 -90 -238 -176 -25 -46 -30 -65 -30 -124 1
-165 110 -278 292 -301 l51 -6 -5 -54 c-5 -47 -2 -59 21 -94 l26 -40 -62 0
c-130 0 -256 -47 -333 -125 -54 -53 -74 -92 -82 -155 -16 -133 111 -232 338
-262 220 -29 408 50 477 200 21 46 24 65 20 126 -7 111 -36 157 -167 265 -65
54 -92 96 -85 131 4 14 38 57 78 95 96 94 120 145 114 245 -5 87 -29 141 -83
188 l-36 32 62 0 c52 0 67 4 105 32 24 17 44 33 44 35 0 2 -102 3 -227 2 -163
0 -243 -4 -280 -14z m119 -71 c100 -52 170 -207 147 -327 -19 -102 -63 -149
-147 -155 -50 -3 -63 0 -103 26 -137 88 -184 317 -87 427 47 55 119 66 190 29z
m113 -804 c66 -43 104 -79 121 -112 20 -39 18 -122 -5 -166 -24 -47 -45 -66
-106 -94 -42 -19 -67 -23 -160 -23 -100 0 -115 2 -161 27 -62 33 -109 85 -123
135 -21 75 -10 118 47 176 68 71 143 98 257 94 72 -3 86 -7 130 -37z"/>
<path d="M1740 1825 l0 -134 -132 -3 -133 -3 -3 -32 -3 -33 135 0 136 0 0
-135 0 -135 35 0 35 0 0 135 0 135 135 0 135 0 0 35 0 35 -135 0 -135 0 0 135
0 135 -35 0 -35 0 0 -135z"/>
</g>
</svg>
