<?xml version="1.0" standalone="no"?>
<!DOCTYPE svg PUBLIC "-//W3C//DTD SVG 20010904//EN"
 "http://www.w3.org/TR/2001/REC-SVG-20010904/DTD/svg10.dtd">
<svg version="1.0" xmlns="http://www.w3.org/2000/svg" viewBox="0 0 256.000000 256.000000"
 preserveAspectRatio="xMidYMid meet">
<metadata>
Created by potrace 1.11, written by Peter Selinger 2001-2013
</metadata>
<g transform="translate(0.000000,256.000000) scale(0.100000,-0.100000)" stroke="none">
<path d="M1200 1847 c0 -8 9 -39 19 -70 11 -31 17 -58 13 -61 -4 -2 -33 4 -64
14 l-58 18 0 -79 0 -79 61 31 c34 16 63 28 65 26 2 -2 -12 -51 -32 -109 -27
-74 -35 -112 -30 -132 19 -77 120 -103 177 -47 42 42 38 79 -17 190 -25 51
-43 95 -40 99 4 3 36 -8 71 -26 l65 -32 0 79 0 79 -61 -19 c-34 -11 -64 -18
-65 -16 -2 2 7 36 20 75 l25 72 -75 0 c-55 0 -74 -3 -74 -13z"/>
<path d="M755 1635 c-46 -45 -24 -125 39 -141 28 -7 81 18 90 41 22 60 -16
125 -74 125 -19 0 -40 -9 -55 -25z"/>
<path d="M1696 1637 c-43 -43 -35 -107 16 -133 55 -28 118 10 118 72 0 43 -27
73 -72 80 -30 5 -41 2 -62 -19z"/>
<path d="M1465 1575 c-52 -51 -17 -135 56 -135 26 0 46 7 59 20 13 13 20 33
20 59 0 73 -84 108 -135 56z"/>
<path d="M985 1578 c-68 -37 -56 -135 19 -154 28 -7 81 18 90 41 29 78 -41
151 -109 113z"/>
<path d="M565 1515 c-53 -52 -18 -135 56 -135 47 0 79 34 79 82 0 70 -86 103
-135 53z"/>
<path d="M1886 1519 c-58 -45 -21 -139 55 -139 72 0 106 84 54 135 -30 31 -73
32 -109 4z"/>
<path d="M530 1317 c-55 -28 -64 -94 -18 -137 60 -55 158 16 127 92 -6 16 -24
35 -40 43 -34 18 -37 18 -69 2z"/>
<path d="M1959 1315 c-38 -21 -55 -66 -37 -101 27 -58 94 -69 138 -22 26 29
25 71 -2 102 -29 32 -66 40 -99 21z"/>
<path d="M851 1279 c-35 -57 -24 -144 25 -200 12 -14 11 -15 -15 -11 -50 7
-89 -54 -62 -96 6 -10 10 -10 21 3 15 18 51 20 68 3 21 -21 14 -82 -11 -106
-50 -47 -126 -19 -178 64 -27 44 -19 52 27 30 29 -13 35 -14 31 -3 -3 8 -15
48 -28 88 l-22 74 -17 -41 c-28 -65 -40 -64 -40 5 l0 61 -52 -21 c-29 -11 -54
-22 -55 -23 -1 -1 14 -26 32 -56 37 -59 95 -199 120 -290 l15 -56 113 15 c222
28 752 19 979 -16 l36 -5 22 72 c30 99 82 220 119 275 17 25 31 50 31 54 0 4
-18 13 -41 20 -23 7 -48 15 -56 18 -13 5 -14 -1 -9 -33 4 -22 3 -51 -2 -64 -9
-23 -10 -22 -33 27 l-23 51 -26 -81 c-15 -45 -26 -83 -25 -85 1 -1 19 5 40 13
20 9 39 14 41 12 11 -11 -65 -103 -99 -120 -63 -32 -127 1 -127 66 0 47 31 74
65 59 14 -6 25 -17 25 -24 0 -26 20 17 20 44 0 35 -24 58 -61 58 -33 0 -37 11
-12 31 21 18 43 71 43 106 0 14 -10 46 -21 71 l-21 43 -30 -28 c-46 -44 -61
-80 -55 -132 3 -25 9 -54 13 -65 6 -16 4 -17 -14 -7 -50 27 -92 2 -92 -55 l0
-34 25 16 c24 16 27 16 45 -1 30 -27 26 -72 -10 -105 -52 -48 -159 -53 -214
-9 -33 26 -42 43 -51 98 l-7 44 28 -7 c16 -4 46 -24 66 -44 21 -19 39 -34 42
-31 2 2 7 44 11 92 l7 88 -37 -26 c-21 -14 -46 -25 -56 -25 -9 0 -24 -3 -33
-6 -25 -10 -19 15 17 65 18 25 36 52 41 59 5 9 -19 12 -109 12 l-117 0 29 -37
c38 -50 65 -94 61 -98 -8 -9 -83 15 -109 34 -16 12 -31 21 -34 21 -5 0 1 -81
11 -149 l5 -34 32 31 c33 31 68 52 86 52 17 0 12 -51 -8 -96 -15 -34 -28 -45
-65 -59 -78 -30 -164 -8 -203 51 -31 49 16 116 56 80 20 -18 20 -18 27 8 14
56 -43 94 -97 66 -17 -10 -18 -8 -9 15 14 38 12 112 -4 143 -8 15 -26 38 -39
51 l-26 23 -20 -33z"/>
</g>
</svg>
