<?xml version="1.0" standalone="no"?>
<!DOCTYPE svg PUBLIC "-//W3C//DTD SVG 20010904//EN"
 "http://www.w3.org/TR/2001/REC-SVG-20010904/DTD/svg10.dtd">
<svg version="1.0" xmlns="http://www.w3.org/2000/svg" viewBox="0 0 256.000000 256.000000"
 preserveAspectRatio="xMidYMid meet">
<metadata>
Created by potrace 1.11, written by Peter Selinger 2001-2013
</metadata>
<g transform="translate(0.000000,256.000000) scale(0.100000,-0.100000)" stroke="none">
<path d="M1214 2066 c-17 -8 -44 -31 -60 -52 l-29 -37 -3 -316 c-3 -352 0
-379 62 -426 69 -53 175 -36 227 36 23 33 24 40 27 247 2 116 6 212 9 212 24
0 133 -73 178 -121 267 -280 108 -741 -275 -800 -258 -40 -498 137 -541 399
-22 133 15 265 106 376 61 75 75 102 75 145 0 115 -129 198 -229 146 -52 -26
-141 -136 -187 -230 -63 -128 -85 -224 -85 -365 0 -231 83 -425 249 -582 88
-83 180 -138 302 -180 90 -30 102 -32 240 -32 138 0 150 2 240 32 219 76 386
223 481 425 96 207 96 467 0 674 -88 186 -250 338 -437 409 -132 50 -287 67
-350 40z"/>
</g>
</svg>
