<?xml version="1.0" standalone="no"?>
<!DOCTYPE svg PUBLIC "-//W3C//DTD SVG 20010904//EN"
 "http://www.w3.org/TR/2001/REC-SVG-20010904/DTD/svg10.dtd">
<svg version="1.0" xmlns="http://www.w3.org/2000/svg" viewBox="0 0 256.000000 256.000000"
 preserveAspectRatio="xMidYMid meet">
<metadata>
Created by potrace 1.11, written by Peter Selinger 2001-2013
</metadata>
<g transform="translate(0.000000,256.000000) scale(0.100000,-0.100000)" stroke="none">
<path d="M1130 2065 c-330 -67 -572 -312 -636 -643 -66 -346 117 -707 439
-861 127 -61 191 -75 347 -75 156 0 220 14 346 74 163 79 295 211 374 374 60
126 74 190 74 346 0 156 -14 220 -75 347 -155 323 -522 508 -869 438z m300
-167 c25 -6 83 -28 130 -51 69 -32 100 -55 165 -121 92 -93 136 -167 165 -282
25 -96 26 -218 3 -275 -26 -67 -83 -80 -164 -39 -41 21 -98 81 -171 180 -85
114 -261 292 -341 344 -52 34 -214 102 -223 93 -2 -1 1 -45 7 -97 22 -221 -32
-386 -156 -468 -59 -39 -104 -48 -141 -30 -41 19 -54 53 -54 138 0 168 61 311
185 436 163 164 372 224 595 172z"/>
</g>
</svg>
