<?xml version="1.0" standalone="no"?>
<!DOCTYPE svg PUBLIC "-//W3C//DTD SVG 20010904//EN"
 "http://www.w3.org/TR/2001/REC-SVG-20010904/DTD/svg10.dtd">
<svg version="1.0" xmlns="http://www.w3.org/2000/svg" viewBox="0 0 256.000000 256.000000"
 preserveAspectRatio="xMidYMid meet">
<metadata>
Created by potrace 1.11, written by Peter Selinger 2001-2013
</metadata>
<g transform="translate(0.000000,256.000000) scale(0.100000,-0.100000)" stroke="none">
<path d="M580 2052 c0 -15 27 -329 60 -697 33 -369 60 -679 60 -691 0 -19 28
-29 289 -103 l289 -81 289 81 c158 44 289 81 289 82 3 4 124 1393 124 1415 l0
22 -700 0 -700 0 0 -28z m1140 -284 c0 -13 -3 -53 -7 -90 l-6 -68 -338 0 -338
0 5 -67 c3 -38 7 -78 10 -90 l4 -23 320 0 320 0 -5 -52 c-3 -29 -15 -151 -25
-272 -11 -120 -20 -220 -22 -221 -2 -1 -83 -24 -181 -50 l-178 -48 -177 48
c-97 26 -179 50 -182 52 -2 2 -9 65 -15 139 l-10 134 87 0 87 0 7 -69 6 -69
102 -26 101 -26 95 27 95 28 7 70 c4 39 9 89 11 112 l5 43 -307 2 -306 3 -22
230 c-12 127 -22 247 -22 268 l-1 37 440 0 440 0 0 -22z"/>
</g>
</svg>
