<?xml version="1.0" standalone="no"?>
<!DOCTYPE svg PUBLIC "-//W3C//DTD SVG 20010904//EN"
 "http://www.w3.org/TR/2001/REC-SVG-20010904/DTD/svg10.dtd">
<svg version="1.0" xmlns="http://www.w3.org/2000/svg" viewBox="0 0 256.000000 256.000000"
 preserveAspectRatio="xMidYMid meet">
<metadata>
Created by potrace 1.11, written by Peter Selinger 2001-2013
</metadata>
<g transform="translate(0.000000,256.000000) scale(0.100000,-0.100000)" stroke="none">
<path d="M480 1285 l0 -325 85 0 85 0 0 325 0 325 -85 0 -85 0 0 -325z"/>
<path d="M700 1285 l0 -325 75 0 75 0 1 193 1 192 28 -185 c16 -102 29 -188
29 -192 1 -5 25 -8 54 -8 l54 0 23 183 c13 100 26 187 29 194 3 6 6 -76 6
-183 l-1 -194 73 0 73 0 0 325 0 325 -109 0 -108 0 -6 -37 c-3 -21 -11 -84
-18 -141 -7 -56 -14 -100 -16 -98 -4 3 -42 246 -43 269 0 4 -49 7 -110 7
l-110 0 0 -325z"/>
<path d="M1270 1286 l0 -326 149 0 c253 0 246 -9 246 317 0 229 -1 243 -21
270 -37 50 -66 58 -226 61 l-148 4 0 -326z m220 188 c11 -28 12 -335 1 -374
-4 -15 -15 -26 -29 -28 l-22 -3 0 215 c0 210 1 216 20 216 13 0 24 -10 30 -26z"/>
<path d="M1700 1285 l0 -325 80 0 c64 0 80 3 80 15 0 19 9 19 32 -1 10 -10 40
-19 66 -22 44 -4 53 -1 83 26 l34 30 3 216 3 216 -30 30 c-25 25 -37 30 -79
30 -35 0 -57 -6 -76 -21 l-26 -20 0 75 0 76 -85 0 -85 0 0 -325z m210 106 c16
-30 13 -313 -3 -336 -30 -40 -37 -7 -37 169 0 95 3 176 7 179 11 12 22 8 33
-12z"/>
</g>
</svg>
