<?xml version="1.0" standalone="no"?>
<!DOCTYPE svg PUBLIC "-//W3C//DTD SVG 20010904//EN"
 "http://www.w3.org/TR/2001/REC-SVG-20010904/DTD/svg10.dtd">
<svg version="1.0" xmlns="http://www.w3.org/2000/svg" viewBox="0 0 256.000000 256.000000"
 preserveAspectRatio="xMidYMid meet">
<metadata>
Created by potrace 1.11, written by Peter Selinger 2001-2013
</metadata>
<g transform="translate(0.000000,256.000000) scale(0.100000,-0.100000)" stroke="none">
<path d="M582 2059 c-26 -13 -55 -39 -70 -62 l-27 -41 0 -676 0 -676 27 -41
c16 -24 44 -49 70 -62 44 -21 52 -21 698 -21 646 0 654 0 698 21 26 13 54 38
70 62 l27 41 0 676 0 676 -27 41 c-16 24 -44 49 -70 62 -44 21 -52 21 -699 21
-649 0 -654 0 -697 -21z m1299 -186 c10 -12 14 -49 14 -135 0 -151 4 -148
-154 -148 -154 0 -151 -3 -151 151 0 94 3 121 16 133 23 24 256 23 275 -1z
m-464 -318 c106 -52 167 -152 167 -275 0 -88 -22 -145 -79 -208 -117 -130
-333 -130 -450 0 -57 63 -79 120 -79 208 0 61 5 85 27 132 75 154 259 218 414
143z m-624 -237 c-10 -154 36 -278 142 -384 96 -97 209 -144 345 -144 136 0
249 47 346 144 106 106 150 221 142 373 l-5 93 69 0 69 0 -3 -350 c-3 -320 -5
-351 -21 -367 -17 -17 -56 -18 -585 -20 -444 -2 -572 0 -592 10 l-25 13 -5
357 -5 357 66 0 67 0 -5 -82z"/>
</g>
</svg>
