<?xml version="1.0" standalone="no"?>
<!DOCTYPE svg PUBLIC "-//W3C//DTD SVG 20010904//EN"
 "http://www.w3.org/TR/2001/REC-SVG-20010904/DTD/svg10.dtd">
<svg version="1.0" xmlns="http://www.w3.org/2000/svg" viewBox="0 0 256.000000 256.000000"
 preserveAspectRatio="xMidYMid meet">
<metadata>
Created by potrace 1.11, written by Peter Selinger 2001-2013
</metadata>
<g transform="translate(0.000000,256.000000) scale(0.100000,-0.100000)" stroke="none">
<path d="M585 1966 c-37 -17 -80 -62 -94 -99 -7 -18 -11 -144 -11 -338 0 -365
7 -415 77 -559 87 -179 261 -320 459 -370 100 -26 412 -28 512 -5 274 65 492
291 541 559 17 92 15 678 -3 719 -16 39 -61 82 -99 96 -45 17 -1343 14 -1382
-3z m1163 -222 c59 -15 111 -30 116 -35 9 -8 -39 -214 -55 -240 -5 -9 -39 -4
-133 21 -102 27 -125 36 -122 49 3 9 17 64 32 124 18 73 31 107 41 107 7 0 62
-12 121 -26z m-736 -276 c4 -179 11 -207 68 -272 106 -120 293 -120 400 2 36
40 70 118 70 159 0 10 29 13 131 13 l132 0 -6 -62 c-14 -169 -133 -336 -294
-413 -302 -144 -665 21 -748 342 -10 40 -15 108 -15 225 l0 168 129 0 129 0 4
-162z"/>
</g>
</svg>
