<?xml version="1.0" standalone="no"?>
<!DOCTYPE svg PUBLIC "-//W3C//DTD SVG 20010904//EN"
 "http://www.w3.org/TR/2001/REC-SVG-20010904/DTD/svg10.dtd">
<svg version="1.0" xmlns="http://www.w3.org/2000/svg" viewBox="0 0 256.000000 256.000000"
 preserveAspectRatio="xMidYMid meet">
<metadata>
Created by potrace 1.11, written by Peter Selinger 2001-2013
</metadata>
<g transform="translate(0.000000,256.000000) scale(0.100000,-0.100000)" stroke="none">
<path d="M1387 1978 c-79 -134 -52 -292 68 -413 92 -92 219 -135 341 -115 75
12 121 37 177 93 47 48 67 89 25 50 -84 -76 -244 -82 -379 -13 -139 72 -238
249 -211 382 5 29 9 54 7 56 -2 2 -15 -16 -28 -40z"/>
<path d="M1032 1873 c-62 -96 -85 -171 -84 -278 2 -234 164 -451 414 -553 51
-20 85 -26 173 -30 227 -9 390 68 497 232 48 75 49 90 1 41 -86 -89 -204 -136
-343 -137 -110 -1 -174 14 -285 67 -193 93 -326 268 -353 463 -12 80 -2 175
23 235 8 20 14 37 11 37 -2 0 -26 -35 -54 -77z"/>
<path d="M612 1726 c-101 -134 -140 -263 -129 -420 24 -325 254 -620 579 -746
175 -68 415 -66 588 3 136 55 255 152 333 269 58 89 56 98 -11 36 -119 -109
-267 -161 -462 -161 -187 0 -332 43 -488 146 -84 54 -200 165 -250 238 -141
208 -183 450 -113 656 11 32 19 59 18 60 -1 1 -30 -36 -65 -81z"/>
</g>
</svg>
