<?xml version="1.0" standalone="no"?>
<!DOCTYPE svg PUBLIC "-//W3C//DTD SVG 20010904//EN"
 "http://www.w3.org/TR/2001/REC-SVG-20010904/DTD/svg10.dtd">
<svg version="1.0" xmlns="http://www.w3.org/2000/svg" viewBox="0 0 256.000000 256.000000"
 preserveAspectRatio="xMidYMid meet">
<metadata>
Created by potrace 1.11, written by Peter Selinger 2001-2013
</metadata>
<g transform="translate(0.000000,256.000000) scale(0.100000,-0.100000)" stroke="none">
<path d="M1130 2065 c-329 -66 -572 -313 -636 -643 -66 -346 117 -707 439
-861 127 -61 191 -75 347 -75 156 0 220 14 346 74 163 79 295 211 374 374 60
126 74 190 74 346 0 156 -14 220 -75 347 -155 323 -522 508 -869 438z m321
-254 c162 -51 303 -191 361 -359 30 -88 32 -249 4 -332 -62 -185 -191 -314
-376 -376 -83 -28 -244 -26 -332 4 -187 64 -333 228 -373 417 -40 191 12 364
154 506 154 153 356 204 562 140z"/>
<path d="M1476 1554 c-178 -35 -306 -100 -351 -179 -31 -55 -37 -89 -24 -138
23 -87 90 -139 180 -139 136 0 243 165 282 435 6 42 11 41 -87 21z"/>
</g>
</svg>
