<?xml version="1.0" standalone="no"?>
<!DOCTYPE svg PUBLIC "-//W3C//DTD SVG 20010904//EN"
 "http://www.w3.org/TR/2001/REC-SVG-20010904/DTD/svg10.dtd">
<svg version="1.0" xmlns="http://www.w3.org/2000/svg" viewBox="0 0 256.000000 256.000000"
 preserveAspectRatio="xMidYMid meet">
<metadata>
Created by potrace 1.11, written by Peter Selinger 2001-2013
</metadata>
<g transform="translate(0.000000,256.000000) scale(0.100000,-0.100000)" stroke="none">
<path d="M1314 1816 c-34 -8 -88 -27 -120 -43 -65 -31 -162 -120 -189 -173
-10 -19 -18 -36 -19 -37 -2 -2 -20 6 -41 17 -52 27 -142 27 -194 1 -81 -42
-127 -124 -119 -212 3 -27 2 -49 -1 -49 -17 0 -94 -86 -118 -133 -23 -44 -28
-64 -28 -132 1 -104 27 -167 101 -234 96 -88 76 -85 672 -89 445 -2 532 -1
583 13 264 67 324 394 102 552 -48 34 -48 34 -59 113 -40 277 -304 466 -570
406z m-175 -500 c56 -10 121 -59 205 -156 92 -108 124 -130 188 -130 39 0 50
4 72 31 33 39 33 79 0 118 -22 27 -33 31 -72 31 -30 0 -60 -8 -82 -21 l-34
-21 -33 37 c-18 21 -33 42 -33 47 0 4 18 19 40 34 46 30 122 43 195 32 182
-28 237 -258 87 -363 -38 -26 -54 -30 -123 -34 -117 -5 -164 21 -277 151 -101
117 -132 138 -196 138 -63 0 -96 -31 -96 -90 0 -59 33 -90 97 -90 31 0 60 7
83 21 l34 21 33 -38 c29 -36 31 -40 16 -56 -51 -57 -196 -77 -278 -39 -77 36
-115 95 -115 181 0 60 13 96 48 133 44 47 130 80 187 71 11 -1 35 -5 54 -8z"/>
</g>
</svg>
