<?xml version="1.0" standalone="no"?>
<!DOCTYPE svg PUBLIC "-//W3C//DTD SVG 20010904//EN"
 "http://www.w3.org/TR/2001/REC-SVG-20010904/DTD/svg10.dtd">
<svg version="1.0" xmlns="http://www.w3.org/2000/svg" viewBox="0 0 256.000000 256.000000"
 preserveAspectRatio="xMidYMid meet">
<metadata>
Created by potrace 1.11, written by Peter Selinger 2001-2013
</metadata>
<g transform="translate(0.000000,256.000000) scale(0.100000,-0.100000)" stroke="none">
<path d="M1471 1963 c-32 -22 -81 -102 -81 -131 0 -25 29 -82 41 -82 4 0 10
17 14 38 7 41 25 79 25 52 0 -8 -4 -32 -9 -52 -8 -33 -6 -38 9 -38 24 0 49 31
61 74 8 28 6 50 -6 91 -8 30 -19 56 -24 59 -4 3 -18 -2 -30 -11z"/>
<path d="M1004 1895 c-3 -19 -3 -51 1 -72 8 -42 54 -93 84 -93 l21 0 -20 41
c-28 54 -18 62 12 10 27 -47 35 -50 44 -16 13 53 -22 112 -87 145 -21 11 -40
20 -43 20 -3 0 -8 -16 -12 -35z"/>
<path d="M1241 1805 c-69 -79 -86 -163 -43 -222 13 -18 27 -33 32 -33 4 0 11
27 15 60 10 86 25 84 18 -2 l-6 -73 24 16 c66 44 81 132 39 222 -33 70 -42 73
-79 32z"/>
<path d="M727 1793 c-38 -6 -42 -23 -18 -71 49 -97 115 -137 180 -110 l34 13
-57 38 c-31 20 -56 39 -56 42 0 3 27 -9 61 -26 34 -16 63 -28 66 -25 3 2 0 21
-7 40 -14 45 -60 83 -108 91 -20 4 -44 8 -52 9 -8 2 -28 1 -43 -1z"/>
<path d="M1555 1694 c-92 -32 -146 -111 -130 -186 l7 -31 40 47 c52 60 61 52
13 -11 -41 -53 -34 -64 29 -43 70 23 125 107 126 193 0 42 -2 47 -22 46 -13 0
-41 -7 -63 -15z"/>
<path d="M994 1644 c-24 -62 -23 -132 2 -173 19 -33 68 -70 79 -59 3 3 1 27
-5 53 -15 68 -6 67 17 -2 l20 -58 18 28 c39 61 12 162 -60 225 -20 18 -40 32
-45 32 -4 0 -16 -21 -26 -46z"/>
<path d="M732 1542 c-29 -9 1 -140 44 -186 30 -32 81 -56 118 -56 37 0 39 14
5 46 -52 49 -55 70 -3 26 29 -24 52 -38 58 -32 12 12 0 69 -23 107 -32 52
-154 110 -199 95z"/>
<path d="M1700 1508 c-49 -25 -67 -58 -56 -102 5 -21 12 -26 39 -26 50 1 96
48 117 119 8 30 8 31 -24 31 -17 0 -52 -10 -76 -22z"/>
<path d="M1935 1523 c-29 -7 -65 -43 -65 -65 0 -11 4 -17 8 -14 13 8 92 25 92
19 0 -2 -21 -13 -46 -25 -41 -18 -45 -22 -31 -35 22 -22 81 -19 116 6 36 26
74 77 67 90 -6 9 -87 32 -108 30 -7 -1 -22 -3 -33 -6z"/>
<path d="M1322 1487 c-6 -7 -16 -73 -22 -147 -6 -74 -13 -141 -15 -148 -10
-29 -24 3 -51 114 -28 113 -43 139 -66 116 -9 -9 -8 -44 1 -133 7 -66 15 -128
18 -136 15 -39 -26 -1 -72 67 -28 40 -56 75 -63 78 -24 8 -23 -26 3 -84 29
-65 58 -172 76 -276 7 -45 23 -87 46 -125 35 -58 35 -58 31 -155 l-5 -98 112
0 112 0 -5 100 -5 100 37 40 c20 23 52 74 70 113 25 54 46 84 87 120 45 39 51
49 39 57 -30 21 -83 3 -122 -41 -30 -35 -39 -40 -51 -30 -33 27 -29 75 18 221
26 78 44 148 41 156 -14 38 -39 10 -95 -106 -32 -66 -60 -117 -64 -113 -4 3
-7 72 -7 153 0 100 -4 150 -12 158 -15 15 -23 15 -36 -1z"/>
<path d="M540 1418 c-18 -13 -40 -33 -48 -46 -14 -21 -13 -23 21 -37 52 -22
113 -19 137 5 33 33 26 49 -17 39 -48 -11 -55 -11 -49 0 3 5 22 12 41 15 37 7
42 15 23 34 -19 19 -72 14 -108 -10z"/>
<path d="M1623 1295 c-17 -7 -39 -28 -48 -46 l-17 -32 27 7 c15 4 41 9 59 12
l31 4 -30 -14 c-16 -9 -38 -15 -47 -16 -32 0 -29 -20 6 -37 49 -23 100 -6 168
57 l53 49 -37 15 c-46 20 -122 20 -165 1z"/>
<path d="M770 1243 c0 -5 7 -32 15 -59 26 -87 99 -154 170 -154 14 0 25 4 25
8 0 4 -20 28 -45 52 -63 61 -56 72 9 16 30 -25 57 -46 60 -46 3 0 6 14 6 31 0
49 -35 95 -93 123 -55 27 -147 45 -147 29z"/>
<path d="M621 1219 c-39 -8 -86 -40 -86 -60 0 -21 64 -52 112 -53 36 -1 49 4
65 24 l20 25 -48 6 c-41 5 -44 6 -14 8 50 2 65 14 43 33 -24 21 -51 26 -92 17z"/>
<path d="M1756 1114 l-30 -17 65 -33 c72 -37 66 -44 -11 -14 -62 24 -60 24
-60 1 0 -27 39 -71 76 -87 60 -25 184 -11 184 20 0 20 -55 91 -90 116 -41 29
-97 35 -134 14z"/>
<path d="M1613 950 c-32 -13 -29 -25 15 -44 36 -15 20 -15 -36 0 -24 7 -24 7
-8 -24 9 -18 29 -38 44 -46 42 -21 122 -25 152 -6 13 8 13 13 -3 43 -35 65
-111 100 -164 77z"/>
<path d="M970 919 c-35 -22 -59 -48 -72 -80 -8 -20 16 -29 83 -29 51 0 93 25
102 61 5 18 2 20 -16 15 -58 -16 -68 -14 -28 5 l45 21 -25 14 c-33 18 -49 17
-89 -7z"/>
</g>
</svg>
