<?xml version="1.0" standalone="no"?>
<!DOCTYPE svg PUBLIC "-//W3C//DTD SVG 20010904//EN"
 "http://www.w3.org/TR/2001/REC-SVG-20010904/DTD/svg10.dtd">
<svg version="1.0" xmlns="http://www.w3.org/2000/svg" viewBox="0 0 256.000000 256.000000"
 preserveAspectRatio="xMidYMid meet">
<metadata>
Created by potrace 1.11, written by Peter Selinger 2001-2013
</metadata>
<g transform="translate(0.000000,256.000000) scale(0.100000,-0.100000)" stroke="none">
<path d="M505 1655 l-25 -24 0 -351 0 -351 25 -24 c30 -31 73 -32 109 -4 24
19 26 27 26 93 0 64 3 75 24 95 l25 23 33 -47 c120 -172 146 -195 201 -181 28
7 57 50 57 84 0 10 -38 71 -85 134 -47 64 -85 119 -85 122 0 3 27 32 60 64 49
47 60 64 60 91 0 45 -14 67 -50 80 -44 15 -68 2 -153 -79 -41 -38 -77 -70 -81
-70 -3 0 -6 74 -6 164 l0 165 -26 20 c-36 28 -79 27 -109 -4z"/>
<path d="M1395 1655 l-25 -24 0 -351 0 -351 25 -24 c32 -33 78 -33 110 0 22
21 25 33 25 98 0 59 4 77 18 90 10 10 21 17 25 17 3 0 36 -43 73 -96 37 -53
76 -104 87 -115 44 -41 116 -13 132 52 7 27 -15 64 -122 204 l-53 70 65 64
c70 68 79 96 49 139 -43 61 -98 46 -194 -52 -35 -36 -68 -66 -72 -66 -4 0 -8
72 -8 160 0 157 -1 161 -25 185 -15 16 -36 25 -55 25 -19 0 -40 -9 -55 -25z"/>
<path d="M1110 1442 l-30 -30 0 -232 c0 -183 3 -237 15 -259 24 -48 77 -55
122 -17 l28 24 0 246 c0 232 -1 247 -20 265 -11 11 -34 23 -52 27 -27 5 -37 1
-63 -24z"/>
<path d="M1975 1302 c-51 -10 -80 -72 -59 -127 8 -19 55 -45 84 -45 32 0 80
53 80 87 0 53 -53 96 -105 85z"/>
</g>
</svg>
