<?xml version="1.0" standalone="no"?>
<!DOCTYPE svg PUBLIC "-//W3C//DTD SVG 20010904//EN"
 "http://www.w3.org/TR/2001/REC-SVG-20010904/DTD/svg10.dtd">
<svg version="1.0" xmlns="http://www.w3.org/2000/svg" viewBox="0 0 256.000000 256.000000"
 preserveAspectRatio="xMidYMid meet">
<metadata>
Created by potrace 1.11, written by Peter Selinger 2001-2013
</metadata>
<g transform="translate(0.000000,256.000000) scale(0.100000,-0.100000)" stroke="none">
<path d="M480 1410 l0 -490 540 0 540 0 260 -130 260 -130 0 620 0 620 -800 0
-800 0 0 -490z m487 220 c87 -128 89 -130 126 -130 l37 0 0 -80 0 -80 -37 0
c-37 0 -40 -3 -133 -135 l-95 -135 -113 0 c-88 0 -112 3 -106 13 4 6 61 83
126 169 65 87 118 162 118 169 0 6 -52 82 -115 170 -63 87 -115 161 -115 164
0 3 49 5 109 5 l109 0 89 -130z m403 0 l0 -130 68 0 68 0 89 130 88 130 109 0
c59 0 108 -2 108 -5 0 -2 -52 -77 -115 -165 -63 -88 -115 -165 -115 -170 0 -5
53 -80 118 -167 65 -87 121 -164 126 -170 5 -10 -18 -13 -106 -13 l-113 0 -95
135 -94 135 -68 0 -68 0 0 -135 0 -135 -90 0 -90 0 0 345 0 345 90 0 90 0 0
-130z"/>
</g>
</svg>
