<?xml version="1.0" standalone="no"?>
<!DOCTYPE svg PUBLIC "-//W3C//DTD SVG 20010904//EN"
 "http://www.w3.org/TR/2001/REC-SVG-20010904/DTD/svg10.dtd">
<svg version="1.0" xmlns="http://www.w3.org/2000/svg" viewBox="0 0 256.000000 256.000000"
 preserveAspectRatio="xMidYMid meet">
<metadata>
Created by potrace 1.11, written by Peter Selinger 2001-2013
</metadata>
<g transform="translate(0.000000,256.000000) scale(0.100000,-0.100000)" stroke="none">
<path d="M555 2046 c-16 -7 -39 -23 -50 -36 -19 -20 -20 -39 -23 -259 l-3
-237 56 -18 c61 -21 130 -82 170 -150 27 -47 55 -144 55 -194 0 -24 9 -45 30
-69 17 -18 30 -41 30 -50 0 -11 -6 -8 -21 11 -25 32 -42 33 -61 4 -30 -45
-151 -18 -220 50 l-38 36 0 -267 c0 -295 3 -313 60 -342 17 -9 55 -15 93 -15
l65 0 41 98 c23 54 52 114 65 133 20 29 23 44 19 81 -3 26 1 78 8 115 7 37 12
86 10 108 -3 47 10 86 39 115 29 29 57 25 75 -10 17 -34 19 -44 5 -35 -13 8
-13 -1 -1 -24 7 -13 2 -29 -20 -62 -38 -57 -38 -82 -1 -46 15 15 31 27 35 27
10 0 -11 -40 -35 -67 -11 -12 -18 -26 -15 -30 3 -5 -3 -24 -14 -41 -10 -18
-19 -34 -19 -37 0 -2 25 9 56 26 76 39 135 40 174 1 15 -16 40 -36 55 -46 33
-22 58 -77 49 -111 -6 -24 -4 -25 42 -25 92 -1 184 -51 232 -126 l27 -43 233
-1 c322 0 322 0 322 219 l0 129 -37 13 c-63 21 -147 18 -175 -7 -13 -12 -29
-23 -35 -25 -7 -2 -37 -38 -66 -79 -62 -88 -97 -110 -179 -110 -72 0 -204 25
-234 45 -34 22 -49 88 -32 134 11 28 28 44 78 73 145 82 133 79 260 85 148 7
213 -5 328 -64 46 -23 86 -43 88 -43 2 0 4 244 4 543 0 410 -3 548 -13 566
-24 47 -62 65 -143 69 -40 2 -74 1 -74 -3 0 -4 16 -26 36 -47 91 -101 97 -200
14 -243 -51 -26 -63 -21 -57 28 2 23 8 51 11 63 6 15 2 23 -17 31 -15 7 -30
26 -36 46 -9 27 -19 36 -44 42 -18 4 -36 7 -40 6 -12 -2 -47 18 -88 50 -20 16
-46 29 -58 29 -17 0 -20 -4 -15 -30 6 -25 3 -30 -19 -35 -14 -4 -30 -5 -34 -2
-5 3 -42 1 -83 -4 -83 -10 -114 -31 -126 -83 -4 -17 -13 -41 -21 -53 -15 -22
-80 -53 -113 -53 -18 0 -20 -7 -20 -56 0 -30 5 -64 10 -75 12 -21 40 -25 58
-7 18 18 14 38 -7 38 -31 0 -44 24 -23 43 42 38 145 70 154 48 4 -11 125 -18
135 -7 14 13 -22 26 -73 26 -59 0 -77 15 -72 57 2 23 14 33 63 58 56 28 68 30
170 30 93 0 115 -3 145 -21 40 -23 80 -86 80 -126 0 -28 -5 -35 -80 -98 -23
-19 -52 -46 -65 -58 -13 -13 -29 -21 -34 -18 -6 4 -24 33 -42 66 -32 60 -59
84 -59 51 0 -24 -41 -61 -69 -61 -12 0 -47 12 -76 26 -52 24 -75 25 -75 3 0
-5 17 -17 38 -26 20 -10 49 -28 65 -40 l27 -22 45 20 c85 38 127 10 90 -60
-28 -56 -132 -89 -222 -72 -24 5 -43 7 -43 5 0 -2 18 -16 40 -30 39 -26 42
-27 98 -14 31 7 69 18 83 26 46 23 130 95 141 120 8 17 18 24 32 22 15 -2 26
6 37 29 9 18 19 30 23 26 10 -11 7 -113 -6 -154 -15 -52 -31 -64 -110 -85 -56
-15 -73 -16 -101 -6 -71 25 -91 1 -34 -42 40 -29 146 -29 202 0 32 17 42 28
49 60 13 62 24 84 42 84 27 0 86 50 80 67 -15 39 56 59 87 25 52 -58 64 -200
23 -287 -66 -142 -314 -275 -512 -275 -54 0 -74 6 -152 45 -66 33 -99 57 -127
91 -29 34 -33 45 -19 41 99 -30 404 -59 404 -39 0 11 -16 15 -105 26 -30 4
-46 13 -65 38 -31 41 -66 75 -113 111 -20 15 -37 36 -37 46 0 17 -4 18 -35 8
-32 -10 -38 -8 -65 18 -20 20 -33 26 -40 19 -7 -7 17 -32 75 -78 46 -37 87
-72 91 -77 10 -17 -27 -49 -59 -49 -36 0 -142 27 -177 45 -14 7 -46 34 -72 58
-62 60 -86 136 -83 257 1 51 6 85 12 85 6 0 31 -27 55 -60 49 -66 82 -92 128
-102 24 -4 30 -2 30 11 0 20 -43 98 -77 139 -30 37 -30 85 1 145 13 26 29 73
36 104 6 32 16 60 21 63 32 21 -13 25 -243 25 -188 -1 -261 -4 -283 -14z m408
-103 c9 -50 -19 -109 -77 -165 -33 -31 -48 -55 -52 -80 -9 -51 22 -192 56
-263 l29 -59 -25 -23 c-33 -30 -53 -29 -103 7 -82 59 -134 177 -134 301 0 53
6 80 30 131 51 108 116 166 210 186 51 11 60 7 66 -35z m106 -668 c58 -30 86
-56 111 -106 12 -22 35 -49 53 -59 44 -27 144 -60 230 -75 64 -11 69 -14 47
-22 -14 -6 -63 -14 -110 -17 -47 -4 -112 -14 -145 -21 -94 -22 -165 2 -205 68
-11 18 -36 79 -56 137 -20 58 -38 111 -41 119 -8 20 58 6 116 -24z"/>
</g>
</svg>
