<?xml version="1.0" standalone="no"?>
<!DOCTYPE svg PUBLIC "-//W3C//DTD SVG 20010904//EN"
 "http://www.w3.org/TR/2001/REC-SVG-20010904/DTD/svg10.dtd">
<svg version="1.0" xmlns="http://www.w3.org/2000/svg" viewBox="0 0 256.000000 256.000000"
 preserveAspectRatio="xMidYMid meet">
<metadata>
Created by potrace 1.11, written by Peter Selinger 2001-2013
</metadata>
<g transform="translate(0.000000,256.000000) scale(0.100000,-0.100000)" stroke="none">
<path d="M657 1815 c-163 -15 -177 -18 -177 -39 0 -21 337 -746 357 -768 23
-26 43 -23 231 26 l168 43 93 -164 c58 -103 101 -168 115 -174 18 -9 74 8 311
93 159 57 290 108 292 113 2 6 -42 71 -97 145 -55 74 -97 137 -92 141 4 3 56
19 115 34 78 20 106 32 103 42 -8 21 -195 251 -209 256 -20 8 -270 -38 -274
-50 -2 -6 32 -62 76 -124 55 -77 77 -116 68 -120 -15 -8 -439 -109 -458 -109
-8 0 -95 136 -204 318 -103 174 -195 325 -203 335 -17 19 -13 19 -215 2z m355
-343 c97 -169 178 -313 180 -321 2 -11 -35 -24 -150 -51 l-153 -37 -73 151
c-40 83 -115 238 -166 344 -51 105 -91 194 -89 197 6 5 169 22 229 23 l45 1
177 -307z m921 -45 c39 -48 67 -90 64 -93 -6 -6 -190 -55 -193 -51 0 1 -34 46
-73 100 -40 55 -71 100 -69 102 7 7 154 33 178 32 18 -2 42 -25 93 -90z m-55
-323 c46 -64 80 -120 75 -124 -12 -10 -455 -160 -473 -160 -14 0 -170 248
-170 269 0 5 91 32 203 60 111 29 213 56 227 61 14 5 32 9 40 9 8 0 53 -52 98
-115z"/>
</g>
</svg>
