<?xml version="1.0" standalone="no"?>
<!DOCTYPE svg PUBLIC "-//W3C//DTD SVG 20010904//EN"
 "http://www.w3.org/TR/2001/REC-SVG-20010904/DTD/svg10.dtd">
<svg version="1.0" xmlns="http://www.w3.org/2000/svg" viewBox="0 0 256.000000 256.000000"
 preserveAspectRatio="xMidYMid meet">
<metadata>
Created by potrace 1.11, written by Peter Selinger 2001-2013
</metadata>
<g transform="translate(0.000000,256.000000) scale(0.100000,-0.100000)" stroke="none">
<path d="M755 1707 c-193 -64 -288 -235 -272 -487 12 -192 100 -321 251 -365
67 -20 227 -20 297 1 69 20 149 63 149 80 0 7 -12 44 -26 83 l-26 70 -43 -34
c-98 -74 -239 -87 -312 -29 -96 78 -127 239 -76 398 48 151 238 203 356 98 48
-44 81 -113 132 -277 45 -144 83 -222 135 -279 82 -88 194 -126 380 -126 197
0 301 41 352 139 48 92 35 202 -33 276 -46 50 -104 77 -226 105 -146 34 -173
52 -173 118 0 66 44 102 125 102 71 0 113 -22 133 -70 l17 -41 45 6 c134 18
130 16 130 39 0 26 -35 104 -58 129 -9 11 -39 31 -67 45 -41 21 -68 26 -150
30 -179 8 -283 -33 -335 -134 -35 -69 -36 -180 -1 -241 41 -71 101 -104 256
-138 138 -30 179 -61 173 -132 -4 -47 -36 -70 -113 -83 -73 -13 -155 -4 -215
22 -92 39 -123 86 -194 296 -67 196 -95 252 -157 313 -73 71 -135 91 -289 95
-85 3 -138 0 -165 -9z"/>
</g>
</svg>
