<?xml version="1.0" standalone="no"?>
<!DOCTYPE svg PUBLIC "-//W3C//DTD SVG 20010904//EN"
 "http://www.w3.org/TR/2001/REC-SVG-20010904/DTD/svg10.dtd">
<svg version="1.0" xmlns="http://www.w3.org/2000/svg" viewBox="0 0 256.000000 256.000000"
 preserveAspectRatio="xMidYMid meet">
<metadata>
Created by potrace 1.11, written by Peter Selinger 2001-2013
</metadata>
<g transform="translate(0.000000,256.000000) scale(0.100000,-0.100000)" stroke="none">
<path d="M1171 2045 c-54 -38 -91 -43 -131 -20 -46 26 -96 19 -140 -21 l-40
-37 -59 13 c-68 14 -100 4 -135 -43 -31 -42 -27 -146 10 -227 24 -55 26 -66
18 -123 -13 -97 -9 -167 13 -217 20 -45 20 -45 0 -90 -21 -49 -25 -116 -12
-217 7 -56 5 -70 -18 -120 -47 -109 -44 -204 9 -254 22 -21 35 -24 100 -24 65
0 77 -3 87 -20 6 -11 23 -33 39 -48 26 -27 30 -28 116 -25 l89 3 42 -38 c48
-44 78 -57 127 -57 75 0 112 41 121 135 4 45 -14 161 -32 207 -7 16 12 18 266
20 l274 3 0 490 0 490 -251 3 -251 2 -6 66 c-8 82 -31 132 -76 161 -50 34 -98
30 -160 -12z m39 -745 c0 -387 -3 -560 -11 -560 -13 0 -337 97 -350 105 -15
10 -12 954 4 960 15 6 303 52 335 54 l22 1 0 -560z m234 324 c9 -4 16 -18 16
-34 0 -31 10 -41 58 -60 30 -12 36 -11 63 9 29 22 31 22 50 5 24 -22 24 -32
-2 -60 -20 -21 -21 -26 -9 -56 19 -48 28 -57 63 -60 28 -3 32 -7 32 -33 0 -27
-4 -30 -33 -33 -28 -3 -36 -10 -54 -47 l-22 -45 24 -25 c26 -27 22 -47 -13
-69 -12 -8 -22 -5 -42 14 l-25 24 -45 -22 c-37 -18 -44 -26 -47 -54 -2 -28 -7
-34 -31 -36 -31 -4 -33 0 -41 78 l-6 55 38 -3 c57 -5 122 33 150 88 27 55 28
92 1 146 -27 57 -78 89 -143 90 -41 0 -51 4 -57 23 -6 16 -4 23 6 27 9 4 15
19 15 39 0 39 19 52 54 39z m57 -213 c24 -24 29 -38 29 -76 0 -65 -39 -105
-102 -105 -24 0 -53 7 -65 15 l-22 15 20 47 c11 26 23 66 26 90 6 42 6 43 45
43 30 0 46 -7 69 -29z"/>
</g>
</svg>
