<?xml version="1.0" standalone="no"?>
<!DOCTYPE svg PUBLIC "-//W3C//DTD SVG 20010904//EN"
 "http://www.w3.org/TR/2001/REC-SVG-20010904/DTD/svg10.dtd">
<svg version="1.0" xmlns="http://www.w3.org/2000/svg" viewBox="0 0 256.000000 256.000000"
 preserveAspectRatio="xMidYMid meet">
<metadata>
Created by potrace 1.11, written by Peter Selinger 2001-2013
</metadata>
<g transform="translate(0.000000,256.000000) scale(0.100000,-0.100000)" stroke="none">
<path d="M1130 2065 c-330 -67 -572 -312 -636 -643 -66 -346 117 -707 439
-861 127 -61 191 -75 347 -75 156 0 220 14 346 74 163 79 295 211 374 374 60
126 74 190 74 346 0 156 -14 220 -75 347 -155 323 -522 508 -869 438z m210
-385 l0 -80 -60 0 -60 0 0 -320 0 -320 130 0 129 0 3 88 3 87 93 3 92 3 0
-171 0 -170 -375 0 -375 0 0 80 0 80 55 0 55 0 0 320 0 320 -55 0 -55 0 0 80
0 80 210 0 210 0 0 -80z"/>
</g>
</svg>
