<?xml version="1.0" standalone="no"?>
<!DOCTYPE svg PUBLIC "-//W3C//DTD SVG 20010904//EN"
 "http://www.w3.org/TR/2001/REC-SVG-20010904/DTD/svg10.dtd">
<svg version="1.0" xmlns="http://www.w3.org/2000/svg" viewBox="0 0 256.000000 256.000000"
 preserveAspectRatio="xMidYMid meet">
<metadata>
Created by potrace 1.11, written by Peter Selinger 2001-2013
</metadata>
<g transform="translate(0.000000,256.000000) scale(0.100000,-0.100000)" stroke="none">
<path d="M664 1875 c-10 -42 1 -137 21 -180 38 -80 110 -138 266 -213 190 -91
236 -144 227 -258 -3 -39 -2 -43 11 -27 29 38 52 105 53 152 0 95 -40 135
-254 246 -71 37 -150 84 -176 105 -51 40 -106 116 -117 163 -10 37 -23 43 -31
12z"/>
<path d="M605 1563 c9 -75 28 -114 76 -157 52 -48 121 -81 231 -112 51 -15
110 -35 131 -46 42 -21 77 -69 78 -108 1 -49 18 11 18 69 1 48 -2 57 -32 85
-32 30 -55 41 -239 116 -116 47 -193 101 -230 160 -17 28 -33 50 -36 50 -2 0
-1 -26 3 -57z"/>
<path d="M1428 1450 c-76 -24 -126 -77 -162 -173 -57 -152 -193 -271 -359
-313 -120 -31 -289 -4 -387 63 l-35 23 -3 -35 c-5 -53 31 -119 74 -140 43 -20
81 -15 214 27 78 24 121 31 240 37 128 7 152 11 202 35 80 38 156 122 192 215
35 88 111 175 190 217 30 16 53 31 50 34 -3 2 -22 5 -42 5 -20 1 -62 4 -92 8
-30 3 -67 2 -82 -3z"/>
<path d="M2025 1398 c-27 -23 -79 -55 -115 -72 -58 -27 -78 -31 -185 -36 -141
-7 -189 -26 -267 -103 -57 -57 -62 -74 -11 -44 33 19 57 22 198 27 160 6 163
7 238 42 92 44 160 105 183 163 9 24 15 48 13 53 -2 6 -26 -8 -54 -30z"/>
<path d="M719 1263 c19 -36 97 -103 142 -122 26 -12 80 -25 120 -29 41 -5 82
-12 92 -17 14 -6 17 -2 17 22 0 43 -28 63 -106 74 -92 12 -169 35 -223 65 -52
29 -54 29 -42 7z"/>
<path d="M1904 1144 c-39 -19 -107 -42 -151 -51 -70 -15 -89 -15 -150 -4 -39
8 -91 12 -116 9 -41 -5 -137 -45 -137 -57 0 -3 22 -7 48 -7 26 -1 65 -9 87
-19 136 -57 304 -24 429 86 37 33 77 82 64 78 -2 0 -35 -16 -74 -35z"/>
<path d="M865 896 c-16 -8 -61 -32 -100 -55 -74 -44 -132 -53 -192 -30 -25 9
-24 6 17 -35 50 -52 96 -67 140 -45 16 8 67 51 114 97 83 80 89 98 21 68z"/>
<path d="M954 885 c-14 -14 -36 -50 -49 -79 -31 -71 -78 -123 -118 -132 -28
-6 -30 -8 -12 -15 11 -4 41 -8 67 -8 61 -1 113 40 128 102 24 96 32 119 51
138 19 19 19 19 -11 19 -20 0 -40 -9 -56 -25z"/>
</g>
</svg>
