<?xml version="1.0" standalone="no"?>
<!DOCTYPE svg PUBLIC "-//W3C//DTD SVG 20010904//EN"
 "http://www.w3.org/TR/2001/REC-SVG-20010904/DTD/svg10.dtd">
<svg version="1.0" xmlns="http://www.w3.org/2000/svg" viewBox="0 0 256.000000 256.000000"
 preserveAspectRatio="xMidYMid meet">
<metadata>
Created by potrace 1.11, written by Peter Selinger 2001-2013
</metadata>
<g transform="translate(0.000000,256.000000) scale(0.100000,-0.100000)" stroke="none">
<path d="M570 2017 c-128 -67 -113 -265 23 -316 81 -31 201 2 243 66 59 89 23
219 -73 259 -52 22 -143 18 -193 -9z"/>
<path d="M1575 1557 c-22 -8 -54 -21 -71 -30 -34 -17 -113 -93 -116 -111 -1
-6 -4 21 -7 59 l-6 70 -169 0 -169 0 -4 -512 -3 -513 175 0 175 0 0 323 0 323
30 48 c39 61 100 90 172 84 63 -6 96 -31 128 -94 25 -49 25 -51 28 -366 l3
-318 170 0 169 0 0 333 c0 370 -7 426 -61 527 -39 73 -92 124 -168 158 -67 31
-209 41 -276 19z"/>
<path d="M500 1035 l0 -515 170 0 170 0 0 515 0 515 -170 0 -170 0 0 -515z"/>
</g>
</svg>
