<?xml version="1.0" standalone="no"?>
<!DOCTYPE svg PUBLIC "-//W3C//DTD SVG 20010904//EN"
 "http://www.w3.org/TR/2001/REC-SVG-20010904/DTD/svg10.dtd">
<svg version="1.0" xmlns="http://www.w3.org/2000/svg" viewBox="0 0 256.000000 256.000000"
 preserveAspectRatio="xMidYMid meet">
<metadata>
Created by potrace 1.11, written by Peter Selinger 2001-2013
</metadata>
<g transform="translate(0.000000,256.000000) scale(0.100000,-0.100000)" stroke="none">
<path d="M791 2065 c-122 -38 -231 -159 -231 -256 0 -37 10 -56 96 -170 l96
-129 -60 -88 c-33 -48 -76 -119 -96 -159 -37 -74 -87 -211 -85 -235 0 -7 13
23 28 67 36 104 91 212 153 302 71 102 70 102 111 46 l35 -47 -40 -59 c-106
-156 -163 -332 -156 -481 7 -125 34 -194 107 -267 125 -125 329 -143 557 -48
254 106 547 404 665 678 53 124 69 190 76 312 5 91 3 117 -16 176 -58 192
-202 289 -426 286 -124 -1 -235 -32 -383 -105 -57 -28 -107 -47 -111 -42 -5 5
-43 55 -85 112 -43 57 -89 107 -102 113 -34 12 -80 10 -133 -6z m904 -150
c157 -41 254 -144 286 -304 14 -73 7 -196 -16 -286 -26 -98 -127 -291 -201
-383 -82 -102 -233 -239 -326 -294 -192 -114 -408 -138 -563 -62 -218 107
-251 399 -78 696 25 43 49 80 53 83 5 3 51 -53 103 -123 l95 -128 231 -98 230
-99 68 57 c249 211 367 493 284 680 -24 56 -75 104 -141 135 -107 50 -303 31
-452 -45 -26 -13 -51 -24 -56 -24 -5 0 -23 20 -40 44 l-31 43 77 36 c179 82
342 107 477 72z m-856 -60 l23 -35 -49 -44 c-27 -24 -57 -60 -68 -79 l-19 -36
-28 39 c-28 38 -29 40 -13 71 20 38 100 119 117 119 7 0 24 -16 37 -35z m349
-230 c84 -113 152 -209 152 -215 0 -28 -134 -41 -177 -17 -28 15 -285 356
-277 369 9 15 109 62 145 67 3 1 73 -91 157 -204z m492 113 c63 -29 103 -65
133 -123 31 -57 31 -205 -1 -289 -43 -118 -144 -256 -248 -341 -52 -42 -59
-45 -65 -29 -4 11 -20 116 -34 234 -15 118 -30 220 -33 225 -3 6 -50 69 -104
141 -54 72 -98 133 -98 136 0 9 77 38 155 59 99 27 221 22 295 -13z m-681
-187 l131 -174 0 -56 c0 -54 -33 -151 -47 -138 -3 4 -77 102 -163 219 -156
210 -158 213 -144 240 22 42 76 100 85 91 4 -4 67 -86 138 -182z m374 -193 c3
-13 13 -74 22 -137 l17 -114 -29 -23 c-15 -13 -32 -23 -37 -24 -5 0 -59 23
-121 51 l-113 51 25 55 c14 30 26 72 27 93 l1 39 60 0 c34 -1 76 6 95 14 47
20 47 20 53 -5z"/>
</g>
</svg>
