<?xml version="1.0" standalone="no"?>
<!DOCTYPE svg PUBLIC "-//W3C//DTD SVG 20010904//EN"
 "http://www.w3.org/TR/2001/REC-SVG-20010904/DTD/svg10.dtd">
<svg version="1.0" xmlns="http://www.w3.org/2000/svg" viewBox="0 0 256.000000 256.000000"
 preserveAspectRatio="xMidYMid meet">
<metadata>
Created by potrace 1.11, written by Peter Selinger 2001-2013
</metadata>
<g transform="translate(0.000000,256.000000) scale(0.100000,-0.100000)" stroke="none">
<path d="M577 1582 c-30 -33 -76 -147 -89 -219 -19 -113 10 -260 72 -360 15
-26 26 -33 51 -33 26 0 30 3 24 18 -48 112 -59 170 -59 292 -1 116 2 132 32
216 17 50 32 94 32 98 0 14 -48 5 -63 -12z"/>
<path d="M1925 1573 c52 -125 59 -157 59 -293 0 -128 -1 -140 -32 -222 -18
-47 -32 -89 -32 -92 0 -14 48 -5 62 12 28 31 68 120 83 184 29 123 14 234 -48
358 -29 59 -35 65 -66 68 -29 3 -33 1 -26 -15z"/>
<path d="M1698 1477 c-74 -20 -78 -22 -78 -49 0 -26 -3 -28 -40 -28 -38 0 -40
-2 -40 -30 0 -28 2 -30 40 -30 l40 0 0 -81 c0 -93 8 -113 51 -128 40 -14 226
-15 234 -1 3 6 4 19 0 30 -5 15 -17 20 -58 22 l-52 3 -3 78 -3 77 56 0 c54 0
55 0 55 30 0 30 -1 30 -55 30 l-55 0 0 44 c0 25 -3 47 -7 49 -5 2 -43 -5 -85
-16z"/>
<path d="M880 1396 c-25 -7 -53 -16 -62 -21 -13 -5 -18 -3 -18 9 0 13 -12 16
-70 16 l-70 0 0 -140 0 -140 75 0 75 0 0 74 c0 89 13 130 46 145 34 15 129 14
142 -2 6 -7 13 -58 14 -113 l3 -99 78 -3 77 -3 0 89 c0 117 12 134 99 140 92
7 101 -5 101 -130 l0 -98 75 0 75 0 0 113 c0 105 -2 115 -22 134 -50 46 -187
57 -288 23 -57 -19 -62 -20 -93 -3 -42 22 -177 27 -237 9z"/>
</g>
</svg>
