<?xml version="1.0" standalone="no"?>
<!DOCTYPE svg PUBLIC "-//W3C//DTD SVG 20010904//EN"
 "http://www.w3.org/TR/2001/REC-SVG-20010904/DTD/svg10.dtd">
<svg version="1.0" xmlns="http://www.w3.org/2000/svg" viewBox="0 0 256.000000 256.000000"
 preserveAspectRatio="xMidYMid meet">
<metadata>
Created by potrace 1.11, written by Peter Selinger 2001-2013
</metadata>
<g transform="translate(0.000000,256.000000) scale(0.100000,-0.100000)" stroke="none">
<path d="M855 1701 c-103 -47 -163 -185 -125 -286 5 -14 13 -57 16 -94 11
-119 -23 -171 -113 -171 -50 0 -102 -28 -131 -71 -20 -29 -23 -43 -19 -90 8
-97 63 -149 156 -149 46 0 56 4 92 38 51 47 61 103 34 192 -17 56 -17 59 1 97
27 54 93 86 182 86 81 1 130 -15 164 -51 39 -41 42 -65 17 -135 -34 -95 -8
-171 72 -212 44 -23 130 -19 170 8 71 48 100 135 64 197 -21 37 -19 103 5 133
45 57 188 79 275 43 85 -36 110 -89 81 -172 -21 -63 -20 -112 4 -152 61 -100
211 -95 262 8 54 106 -18 230 -132 230 -94 0 -130 64 -109 193 25 151 23 196
-8 257 -38 72 -100 112 -183 118 -92 7 -124 -9 -220 -109 -73 -76 -90 -89
-118 -89 -49 0 -80 21 -145 94 -32 37 -76 75 -97 86 -50 26 -140 26 -195 1z
m492 -247 c79 -38 111 -126 75 -207 -44 -99 -169 -123 -248 -46 -80 78 -60
205 40 250 51 23 88 24 133 3z"/>
</g>
</svg>
