<?xml version="1.0" standalone="no"?>
<!DOCTYPE svg PUBLIC "-//W3C//DTD SVG 20010904//EN"
 "http://www.w3.org/TR/2001/REC-SVG-20010904/DTD/svg10.dtd">
<svg version="1.0" xmlns="http://www.w3.org/2000/svg" viewBox="0 0 256.000000 256.000000"
 preserveAspectRatio="xMidYMid meet">
<metadata>
Created by potrace 1.11, written by Peter Selinger 2001-2013
</metadata>
<g transform="translate(0.000000,256.000000) scale(0.100000,-0.100000)" stroke="none">
<path d="M1449 2031 l-29 -29 0 -270 0 -269 25 -25 c14 -14 39 -28 56 -32 18
-3 132 -6 256 -6 240 0 275 6 307 51 14 20 16 59 16 276 0 174 -4 260 -12 278
-23 51 -45 55 -328 55 l-262 0 -29 -29z"/>
<path d="M1040 1968 c-24 -13 -53 -36 -64 -51 -20 -28 -21 -40 -21 -430 l0
-402 24 -34 c49 -69 63 -71 471 -71 334 0 368 2 405 19 84 39 105 83 105 222
l0 99 -237 0 c-258 0 -289 6 -340 61 -49 53 -53 81 -53 354 l0 255 -123 0
c-108 0 -128 -3 -167 -22z"/>
<path d="M615 1761 c-53 -24 -111 -90 -125 -140 -7 -28 -10 -192 -8 -503 3
-507 1 -488 65 -552 65 -66 59 -66 576 -66 520 0 509 -1 580 68 50 48 67 109
67 234 l0 98 -349 0 c-376 0 -396 2 -465 55 -18 14 -46 49 -62 77 l-29 53 -3
348 -3 347 -102 0 c-77 0 -112 -5 -142 -19z"/>
</g>
</svg>
