<?xml version="1.0" standalone="no"?>
<!DOCTYPE svg PUBLIC "-//W3C//DTD SVG 20010904//EN"
 "http://www.w3.org/TR/2001/REC-SVG-20010904/DTD/svg10.dtd">
<svg version="1.0" xmlns="http://www.w3.org/2000/svg" viewBox="0 0 256.000000 256.000000"
 preserveAspectRatio="xMidYMid meet">
<metadata>
Created by potrace 1.11, written by Peter Selinger 2001-2013
</metadata>
<g transform="translate(0.000000,256.000000) scale(0.100000,-0.100000)" stroke="none">
<path d="M990 1535 l0 -125 -125 0 -125 0 0 -130 0 -130 -130 0 -130 0 0 -125
0 -125 385 0 385 0 0 380 0 380 -130 0 -130 0 0 -125z"/>
<path d="M1310 1280 l0 -380 386 0 387 0 -6 64 c-19 205 -128 407 -285 531
-115 92 -306 165 -429 165 l-53 0 0 -380z"/>
</g>
</svg>
