<?xml version="1.0" standalone="no"?>
<!DOCTYPE svg PUBLIC "-//W3C//DTD SVG 20010904//EN"
 "http://www.w3.org/TR/2001/REC-SVG-20010904/DTD/svg10.dtd">
<svg version="1.0" xmlns="http://www.w3.org/2000/svg" viewBox="0 0 256.000000 256.000000"
 preserveAspectRatio="xMidYMid meet">
<metadata>
Created by potrace 1.11, written by Peter Selinger 2001-2013
</metadata>
<g transform="translate(0.000000,256.000000) scale(0.100000,-0.100000)" stroke="none">
<path d="M1740 1751 c-112 -36 -180 -128 -180 -241 0 -107 68 -201 169 -235
160 -53 325 67 325 235 0 93 -54 179 -138 222 -43 22 -136 32 -176 19z"/>
<path d="M1134 1642 c-22 -11 -56 -38 -76 -62 -123 -143 -21 -361 169 -360
138 1 230 99 221 236 -5 74 -37 130 -99 171 -55 36 -154 43 -215 15z"/>
<path d="M636 1566 c-106 -40 -163 -163 -120 -264 34 -83 131 -140 214 -126
57 10 117 51 145 98 44 75 29 194 -31 247 -56 49 -145 68 -208 45z"/>
<path d="M1700 1179 c-59 -26 -106 -72 -138 -134 -22 -43 -26 -63 -26 -145
l-1 -95 270 0 270 0 3 81 c5 137 -53 241 -162 294 -57 27 -155 27 -216 -1z"/>
<path d="M1122 1139 c-92 -46 -146 -149 -140 -271 l3 -63 240 0 240 0 3 80 c4
96 -13 146 -65 200 -20 21 -55 46 -77 56 -57 26 -149 25 -204 -2z"/>
<path d="M650 1121 c-114 -35 -174 -125 -168 -251 l3 -65 218 -3 217 -2 0 77
c0 94 -20 143 -78 195 -56 51 -126 69 -192 49z"/>
</g>
</svg>
