<?xml version="1.0" standalone="no"?>
<!DOCTYPE svg PUBLIC "-//W3C//DTD SVG 20010904//EN"
 "http://www.w3.org/TR/2001/REC-SVG-20010904/DTD/svg10.dtd">
<svg version="1.0" xmlns="http://www.w3.org/2000/svg" viewBox="0 0 256.000000 256.000000"
 preserveAspectRatio="xMidYMid meet">
<metadata>
Created by potrace 1.11, written by Peter Selinger 2001-2013
</metadata>
<g transform="translate(0.000000,256.000000) scale(0.100000,-0.100000)" stroke="none">
<path d="M510 2040 c-23 -23 -34 -62 -26 -93 3 -13 32 -60 64 -104 41 -56 67
-107 87 -165 32 -96 57 -150 91 -195 l25 -32 -21 -80 c-40 -158 -17 -330 54
-406 38 -40 82 -47 110 -16 13 14 34 97 36 141 0 3 14 -19 30 -48 37 -67 73
-108 163 -185 l72 -62 -50 56 c-59 66 -144 205 -182 301 -16 37 -31 68 -35 68
-22 0 -61 -85 -71 -155 -13 -89 -29 -96 -64 -25 -46 94 -50 244 -8 343 21 51
19 90 -6 113 -27 25 -60 91 -89 179 -30 92 -42 116 -106 204 -30 40 -54 81
-54 91 0 27 24 42 57 34 40 -10 124 -53 151 -77 17 -16 42 -23 98 -28 124 -12
263 -90 394 -221 76 -76 168 -212 198 -293 12 -33 53 -121 90 -195 l67 -135
89 -32 c78 -28 276 -145 276 -164 0 -3 -33 -9 -72 -12 -72 -6 -163 -31 -173
-48 -10 -15 23 -66 70 -107 25 -22 83 -59 128 -82 45 -23 101 -58 125 -77 24
-19 45 -33 48 -30 6 6 -66 92 -104 125 -15 13 -56 43 -92 66 -36 24 -71 50
-78 59 -12 14 -8 17 29 27 23 6 68 16 100 21 107 17 107 18 56 75 -59 65 -186
156 -267 190 -36 15 -71 32 -78 38 -18 13 -72 121 -138 273 -29 68 -75 156
-103 196 -102 147 -311 320 -436 360 -27 9 -77 20 -110 23 -36 4 -68 14 -80
25 -11 10 -49 31 -85 48 -79 38 -149 42 -180 11z"/>
</g>
</svg>
