<?xml version="1.0" standalone="no"?>
<!DOCTYPE svg PUBLIC "-//W3C//DTD SVG 20010904//EN"
 "http://www.w3.org/TR/2001/REC-SVG-20010904/DTD/svg10.dtd">
<svg version="1.0" xmlns="http://www.w3.org/2000/svg" viewBox="0 0 256.000000 256.000000"
 preserveAspectRatio="xMidYMid meet">
<metadata>
Created by potrace 1.11, written by Peter Selinger 2001-2013
</metadata>
<g transform="translate(0.000000,256.000000) scale(0.100000,-0.100000)" stroke="none">
<path d="M869 2066 c-85 -30 -140 -82 -173 -160 -23 -56 -24 -1197 -1 -1252
24 -58 70 -108 127 -140 52 -29 55 -29 236 -32 l182 -4 0 156 0 155 -86 61
c-73 52 -90 60 -116 55 -60 -14 -118 35 -118 99 0 13 12 38 26 55 21 26 33 31
69 31 36 0 48 -5 69 -31 14 -17 26 -41 26 -53 0 -17 16 -35 59 -65 33 -22 62
-41 65 -41 3 0 6 64 6 143 l-1 142 -85 59 c-72 49 -91 57 -116 52 -58 -11
-118 37 -118 94 0 63 65 110 125 90 37 -12 65 -47 65 -83 0 -17 16 -34 60 -65
32 -23 61 -42 65 -42 3 0 5 60 5 133 l0 133 -87 60 c-80 55 -92 60 -130 56
-37 -3 -47 0 -73 26 -49 49 -39 116 22 148 60 31 137 -10 138 -75 1 -21 14
-35 63 -68 l62 -42 3 124 3 125 39 0 40 0 0 -220 c0 -121 2 -220 6 -220 3 0
32 18 65 40 44 31 59 47 59 65 0 13 12 37 26 54 21 26 33 31 69 31 36 0 48 -5
69 -31 14 -17 26 -42 26 -55 0 -64 -58 -113 -118 -99 -26 5 -43 -3 -116 -55
l-86 -61 0 -135 0 -135 62 43 c50 35 64 50 69 78 16 78 105 106 160 51 40 -41
40 -91 -1 -132 -26 -26 -36 -30 -77 -27 -44 2 -55 -3 -130 -57 l-83 -58 0
-145 0 -144 28 19 c99 66 102 68 102 94 0 64 78 106 138 75 61 -32 71 -99 22
-148 -26 -26 -36 -29 -73 -26 -38 4 -50 -1 -129 -56 l-88 -60 0 -59 0 -59 183
4 c180 3 183 3 235 32 57 32 103 82 127 140 22 53 22 1199 0 1252 -24 58 -70
108 -127 140 l-53 29 -390 2 c-302 2 -398 0 -426 -11z"/>
</g>
</svg>
