<?xml version="1.0" standalone="no"?>
<!DOCTYPE svg PUBLIC "-//W3C//DTD SVG 20010904//EN"
 "http://www.w3.org/TR/2001/REC-SVG-20010904/DTD/svg10.dtd">
<svg version="1.0" xmlns="http://www.w3.org/2000/svg" viewBox="0 0 256.000000 256.000000"
 preserveAspectRatio="xMidYMid meet">
<metadata>
Created by potrace 1.11, written by Peter Selinger 2001-2013
</metadata>
<g transform="translate(0.000000,256.000000) scale(0.100000,-0.100000)" stroke="none">
<path d="M1145 2069 c-349 -69 -597 -323 -656 -673 -14 -82 -7 -226 15 -306
78 -293 289 -507 577 -586 89 -25 308 -25 399 0 277 75 501 299 576 576 25 91
25 310 0 399 -79 288 -292 497 -586 578 -68 18 -258 25 -325 12z m283 -424
c254 -116 311 -456 110 -652 -67 -66 -138 -96 -235 -101 -136 -7 -240 41 -323
150 -168 222 -53 557 214 624 69 18 168 9 234 -21z"/>
</g>
</svg>
