<?xml version="1.0" standalone="no"?>
<!DOCTYPE svg PUBLIC "-//W3C//DTD SVG 20010904//EN"
 "http://www.w3.org/TR/2001/REC-SVG-20010904/DTD/svg10.dtd">
<svg version="1.0" xmlns="http://www.w3.org/2000/svg" viewBox="0 0 256.000000 256.000000"
 preserveAspectRatio="xMidYMid meet">
<metadata>
Created by potrace 1.11, written by Peter Selinger 2001-2013
</metadata>
<g transform="translate(0.000000,256.000000) scale(0.100000,-0.100000)" stroke="none">
<path d="M950 1989 c-250 -49 -456 -89 -457 -89 -2 0 -3 -276 -3 -613 l0 -613
443 -92 c244 -51 453 -96 465 -99 l22 -5 0 801 c0 440 -3 801 -7 800 -5 0
-213 -41 -463 -90z m118 -462 c27 -18 49 -45 69 -84 25 -53 28 -68 28 -163 -1
-94 -3 -110 -27 -156 -33 -62 -75 -100 -130 -114 -109 -30 -218 45 -248 171
-26 106 4 253 63 318 60 65 170 78 245 28z"/>
<path d="M897 1422 c-39 -40 -55 -124 -39 -199 15 -74 51 -113 103 -113 85 0
134 125 98 254 -24 86 -107 116 -162 58z"/>
<path d="M1480 1582 l0 -157 54 -33 c30 -17 57 -32 61 -32 17 0 475 315 475
327 0 7 -9 22 -20 33 -19 19 -33 20 -295 20 l-275 0 0 -158z"/>
<path d="M1835 1393 c-126 -84 -235 -153 -240 -153 -6 0 -34 16 -63 35 l-52
36 0 -211 0 -210 273 0 c273 0 274 0 295 23 22 23 22 27 20 329 l-3 305 -230
-154z"/>
</g>
</svg>
