<?xml version="1.0" standalone="no"?>
<!DOCTYPE svg PUBLIC "-//W3C//DTD SVG 20010904//EN"
 "http://www.w3.org/TR/2001/REC-SVG-20010904/DTD/svg10.dtd">
<svg version="1.0" xmlns="http://www.w3.org/2000/svg" viewBox="0 0 256.000000 256.000000"
 preserveAspectRatio="xMidYMid meet">
<metadata>
Created by potrace 1.11, written by Peter Selinger 2001-2013
</metadata>
<g transform="translate(0.000000,256.000000) scale(0.100000,-0.100000)" stroke="none">
<path d="M1106 2070 c-379 -60 -602 -275 -623 -600 -9 -141 35 -304 105 -390
l21 -25 53 28 c29 15 81 54 116 86 l62 59 -30 49 c-118 189 20 444 285 526 88
27 238 28 334 3 214 -57 354 -208 355 -381 0 -116 -49 -196 -158 -253 -47 -25
-61 -27 -161 -27 -167 0 -155 -19 -155 254 l0 228 -52 7 c-69 8 -177 8 -218 0
l-32 -7 4 -381 c2 -210 -1 -400 -5 -422 -16 -82 -64 -102 -148 -64 -70 31 -69
32 -69 -84 0 -97 2 -107 25 -134 55 -66 229 -81 331 -29 111 56 173 166 181
323 l6 92 36 -11 c20 -5 79 -10 131 -10 358 2 634 315 571 645 -34 173 -163
333 -341 421 -137 67 -262 97 -430 102 -74 2 -162 0 -194 -5z"/>
</g>
</svg>
