<?xml version="1.0" standalone="no"?>
<!DOCTYPE svg PUBLIC "-//W3C//DTD SVG 20010904//EN"
 "http://www.w3.org/TR/2001/REC-SVG-20010904/DTD/svg10.dtd">
<svg version="1.0" xmlns="http://www.w3.org/2000/svg" viewBox="0 0 256.000000 256.000000"
 preserveAspectRatio="xMidYMid meet">
<metadata>
Created by potrace 1.11, written by Peter Selinger 2001-2013
</metadata>
<g transform="translate(0.000000,256.000000) scale(0.100000,-0.100000)" stroke="none">
<path d="M1160 1680 c-308 -24 -557 -135 -648 -289 -38 -65 -38 -157 0 -222
104 -177 404 -291 768 -291 373 0 683 122 774 304 50 101 23 203 -78 295 -159
146 -490 228 -816 203z m117 -104 c-3 -7 -8 -34 -12 -59 l-7 -45 85 -3 c135
-6 146 -26 107 -214 -11 -53 -20 -99 -20 -101 0 -2 -21 -4 -46 -4 l-47 0 6 38
c3 20 11 69 18 108 17 97 13 104 -59 104 l-59 0 -24 -122 -25 -123 -48 -3
c-46 -3 -48 -2 -43 20 3 13 22 112 43 221 l38 197 49 0 c38 0 48 -3 44 -14z
m-221 -121 c92 -38 78 -197 -24 -269 -36 -26 -53 -30 -127 -34 -82 -4 -85 -5
-91 -31 -21 -92 -17 -86 -65 -86 -24 0 -44 5 -43 10 0 6 18 103 40 217 l39
208 118 0 c81 0 129 -5 153 -15z m775 -23 c24 -27 29 -41 29 -82 0 -65 -18
-108 -63 -147 -44 -38 -91 -53 -173 -53 l-62 0 -8 -57 -9 -58 -47 -3 c-30 -2
-48 1 -48 8 0 6 19 106 41 221 l42 210 134 -3 135 -3 29 -33z"/>
<path d="M869 1398 c0 -2 -9 -42 -18 -90 l-18 -88 51 0 c65 0 97 16 118 60 41
80 17 120 -73 120 -32 0 -59 -1 -60 -2z"/>
<path d="M1601 1333 c-7 -38 -15 -78 -18 -90 -5 -21 -2 -23 39 -23 95 0 138
37 138 118 0 52 -14 62 -85 62 l-62 0 -12 -67z"/>
</g>
</svg>
