<?xml version="1.0" standalone="no"?>
<!DOCTYPE svg PUBLIC "-//W3C//DTD SVG 20010904//EN"
 "http://www.w3.org/TR/2001/REC-SVG-20010904/DTD/svg10.dtd">
<svg version="1.0" xmlns="http://www.w3.org/2000/svg" viewBox="0 0 256.000000 256.000000"
 preserveAspectRatio="xMidYMid meet">
<metadata>
Created by potrace 1.11, written by Peter Selinger 2001-2013
</metadata>
<g transform="translate(0.000000,256.000000) scale(0.100000,-0.100000)" stroke="none">
<path d="M1155 2069 c-72 -12 -138 -33 -141 -44 -2 -8 427 -405 556 -514 l40
-34 0 266 0 266 -57 21 c-121 45 -274 60 -398 39z"/>
<path d="M845 1949 c-193 -130 -323 -334 -356 -558 -12 -87 -7 -217 11 -283
l11 -38 348 318 c191 174 349 321 351 326 2 8 -288 276 -299 276 -3 0 -33 -19
-66 -41z"/>
<path d="M1692 1488 l3 -473 164 -3 c91 -1 168 1 173 6 17 17 38 117 45 209
15 219 -62 433 -214 594 -59 63 -151 139 -167 139 -3 0 -5 -213 -4 -472z"/>
<path d="M705 1134 c-88 -80 -161 -149 -163 -154 -10 -27 99 -192 178 -269 60
-60 137 -117 145 -109 3 3 4 156 3 341 l-3 336 -160 -145z"/>
<path d="M952 738 l3 -193 85 -29 c71 -25 106 -30 211 -34 154 -5 248 15 384
82 145 72 259 179 339 319 l28 47 -526 0 -526 0 2 -192z"/>
</g>
</svg>
