<?xml version="1.0" standalone="no"?>
<!DOCTYPE svg PUBLIC "-//W3C//DTD SVG 20010904//EN"
 "http://www.w3.org/TR/2001/REC-SVG-20010904/DTD/svg10.dtd">
<svg version="1.0" xmlns="http://www.w3.org/2000/svg" viewBox="0 0 256.000000 256.000000"
 preserveAspectRatio="xMidYMid meet">
<metadata>
Created by potrace 1.11, written by Peter Selinger 2001-2013
</metadata>
<g transform="translate(0.000000,256.000000) scale(0.100000,-0.100000)" stroke="none">
<path d="M595 2068 c-3 -7 -4 -366 -3 -798 l3 -785 253 -3 252 -2 0 474 0 475
-107 3 c-95 3 -108 5 -108 21 0 9 69 98 154 197 130 153 158 180 181 180 23 0
51 -27 181 -180 85 -99 154 -188 154 -197 0 -16 -13 -18 -107 -21 l-108 -3 0
-219 0 -220 78 0 c329 1 547 226 545 565 -2 250 -129 420 -373 501 -49 16
-104 18 -523 22 -379 3 -468 1 -472 -10z"/>
</g>
</svg>
