<?xml version="1.0" standalone="no"?>
<!DOCTYPE svg PUBLIC "-//W3C//DTD SVG 20010904//EN"
 "http://www.w3.org/TR/2001/REC-SVG-20010904/DTD/svg10.dtd">
<svg version="1.0" xmlns="http://www.w3.org/2000/svg" viewBox="0 0 256.000000 256.000000"
 preserveAspectRatio="xMidYMid meet">
<metadata>
Created by potrace 1.11, written by Peter Selinger 2001-2013
</metadata>
<g transform="translate(0.000000,256.000000) scale(0.100000,-0.100000)" stroke="none">
<path d="M1185 2069 c-145 -24 -289 -99 -378 -198 -63 -71 -124 -196 -139
-289 -30 -178 43 -363 163 -418 48 -21 55 -16 74 57 14 52 14 55 -11 91 -55
78 -68 172 -39 281 21 81 49 132 106 192 92 98 205 140 358 133 112 -5 190
-34 254 -96 69 -66 90 -122 95 -244 11 -273 -119 -498 -287 -498 -32 0 -85 25
-110 51 -45 48 -45 84 -1 235 22 77 43 164 46 195 23 206 -229 215 -286 10
-14 -50 -12 -149 4 -194 13 -35 10 -54 -52 -310 -63 -261 -65 -277 -66 -402 0
-131 7 -185 24 -185 13 0 116 158 143 221 14 30 39 110 56 179 42 166 39 158
57 132 43 -62 165 -100 270 -83 218 34 372 207 420 471 38 210 -3 363 -133
501 -134 142 -348 205 -568 168z"/>
</g>
</svg>
