<?xml version="1.0" standalone="no"?>
<!DOCTYPE svg PUBLIC "-//W3C//DTD SVG 20010904//EN"
 "http://www.w3.org/TR/2001/REC-SVG-20010904/DTD/svg10.dtd">
<svg version="1.0" xmlns="http://www.w3.org/2000/svg" viewBox="0 0 256.000000 256.000000"
 preserveAspectRatio="xMidYMid meet">
<metadata>
Created by potrace 1.11, written by Peter Selinger 2001-2013
</metadata>
<g transform="translate(0.000000,256.000000) scale(0.100000,-0.100000)" stroke="none">
<path d="M555 2071 c-11 -5 -31 -21 -45 -36 l-25 -27 0 -289 0 -289 33 -32 32
-33 278 -3 c399 -5 375 -29 370 370 l-3 278 -33 32 -32 33 -278 2 c-152 1
-286 -2 -297 -6z m399 -188 c152 -107 87 -345 -98 -361 -140 -11 -244 117
-205 255 15 55 69 114 119 131 56 18 138 7 184 -25z"/>
<path d="M1435 2071 c-11 -5 -31 -21 -45 -36 l-25 -27 0 -289 0 -289 33 -32
32 -33 278 -3 c308 -4 323 -1 357 62 14 27 16 65 13 308 l-3 278 -33 32 -32
33 -278 2 c-152 1 -286 -2 -297 -6z m399 -188 c152 -107 87 -345 -98 -361
-140 -11 -244 117 -205 255 15 55 69 114 119 131 56 18 138 7 184 -25z"/>
<path d="M555 1191 c-11 -5 -31 -21 -45 -36 l-25 -27 0 -289 0 -289 33 -32 32
-33 278 -3 c399 -5 375 -29 370 370 l-3 278 -33 32 -32 33 -278 2 c-152 1
-286 -2 -297 -6z m375 -186 c36 -19 77 -65 94 -107 54 -128 -42 -268 -184
-268 -145 0 -241 145 -181 275 21 47 80 102 119 111 15 3 32 7 37 9 17 6 88
-7 115 -20z"/>
<path d="M1435 1191 c-11 -5 -31 -21 -45 -36 l-25 -27 0 -289 0 -289 33 -32
32 -33 286 -3 285 -3 40 40 40 40 -3 285 -3 286 -33 32 -32 33 -278 2 c-152 1
-286 -2 -297 -6z m375 -186 c36 -19 77 -65 94 -107 54 -128 -42 -268 -184
-268 -145 0 -241 145 -181 275 21 47 80 102 119 111 15 3 32 7 37 9 17 6 88
-7 115 -20z"/>
</g>
</svg>
