<?xml version="1.0" standalone="no"?>
<!DOCTYPE svg PUBLIC "-//W3C//DTD SVG 20010904//EN"
 "http://www.w3.org/TR/2001/REC-SVG-20010904/DTD/svg10.dtd">
<svg version="1.0" xmlns="http://www.w3.org/2000/svg" viewBox="0 0 256.000000 256.000000"
 preserveAspectRatio="xMidYMid meet">
<metadata>
Created by potrace 1.11, written by Peter Selinger 2001-2013
</metadata>
<g transform="translate(0.000000,256.000000) scale(0.100000,-0.100000)" stroke="none">
<path d="M1150 2034 c-322 -62 -549 -258 -641 -554 -34 -108 -34 -292 0 -400
82 -262 269 -446 541 -532 65 -20 95 -23 230 -23 171 0 240 15 365 77 282 142
450 419 432 718 -4 77 -36 221 -52 238 -2 2 -23 -10 -48 -26 -52 -36 -221
-125 -326 -171 -40 -17 -71 -34 -69 -36 3 -3 46 8 96 24 76 24 92 26 92 14 0
-20 -129 -248 -191 -339 -48 -69 -105 -132 -113 -123 -2 2 0 31 5 64 4 33 11
120 15 194 7 130 6 134 -12 127 -63 -26 -73 -27 -101 -14 -50 24 -59 65 -28
141 6 15 1 17 -51 16 -33 0 -120 -6 -194 -13 -74 -8 -137 -11 -140 -9 -9 8 71
72 176 142 111 73 289 169 298 161 3 -3 -1 -24 -8 -45 -24 -69 -45 -145 -41
-145 2 0 37 69 78 153 40 83 93 183 116 221 28 46 39 72 32 79 -5 5 -47 21
-93 34 -66 20 -110 26 -213 28 -71 2 -141 1 -155 -1z m70 -760 c0 -4 -18 -24
-40 -45 -38 -37 -97 -136 -86 -146 3 -3 19 6 37 21 39 33 89 60 89 47 0 -5
-18 -33 -40 -62 -22 -30 -36 -55 -30 -57 17 -6 120 60 149 95 14 18 29 33 34
33 11 0 8 -30 -7 -73 -43 -121 -165 -207 -368 -262 l-88 -24 0 24 c0 36 48
182 82 249 42 83 131 170 194 190 55 16 74 19 74 10z"/>
<path d="M1713 1881 c-41 -25 -71 -66 -83 -112 -33 -120 94 -245 213 -209 48
14 117 78 117 108 0 33 -18 35 -34 3 -37 -70 -107 -95 -180 -62 -108 47 -107
202 0 247 39 16 41 20 16 33 -14 7 -27 5 -49 -8z"/>
<path d="M1764 1821 c-30 -13 -64 -59 -64 -88 0 -103 132 -140 184 -51 45 75
-40 173 -120 139z"/>
</g>
</svg>
