<?xml version="1.0" standalone="no"?>
<!DOCTYPE svg PUBLIC "-//W3C//DTD SVG 20010904//EN"
 "http://www.w3.org/TR/2001/REC-SVG-20010904/DTD/svg10.dtd">
<svg version="1.0" xmlns="http://www.w3.org/2000/svg" viewBox="0 0 256.000000 256.000000"
 preserveAspectRatio="xMidYMid meet">
<metadata>
Created by potrace 1.11, written by Peter Selinger 2001-2013
</metadata>
<g transform="translate(0.000000,256.000000) scale(0.100000,-0.100000)" stroke="none">
<path d="M1140 2065 c-351 -78 -589 -391 -567 -745 7 -115 27 -191 75 -288
119 -240 365 -393 634 -392 46 0 101 5 123 10 34 8 42 7 50 -8 6 -9 35 -42 65
-73 62 -65 123 -89 219 -89 96 0 101 4 101 70 l0 59 -57 26 c-59 27 -123 79
-123 101 0 6 25 30 55 53 110 83 212 237 251 378 9 32 18 101 21 154 19 336
-202 646 -523 734 -84 23 -244 28 -324 10z m274 -198 c107 -49 192 -167 222
-306 18 -87 18 -325 0 -412 -13 -58 -43 -132 -74 -178 -8 -11 -21 -5 -64 27
-69 53 -126 78 -211 92 -95 17 -99 14 -95 -67 l3 -66 42 -14 c43 -15 123 -85
123 -108 0 -21 -79 -27 -144 -10 -75 20 -111 42 -170 105 -90 96 -126 216
-126 420 0 150 13 237 45 309 94 204 274 288 449 208z"/>
</g>
</svg>
