<?xml version="1.0" standalone="no"?>
<!DOCTYPE svg PUBLIC "-//W3C//DTD SVG 20010904//EN"
 "http://www.w3.org/TR/2001/REC-SVG-20010904/DTD/svg10.dtd">
<svg version="1.0" xmlns="http://www.w3.org/2000/svg" viewBox="0 0 256.000000 256.000000"
 preserveAspectRatio="xMidYMid meet">
<metadata>
Created by potrace 1.11, written by Peter Selinger 2001-2013
</metadata>
<g transform="translate(0.000000,256.000000) scale(0.100000,-0.100000)" stroke="none">
<path d="M1490 1963 c-69 -11 -188 -60 -252 -102 -147 -97 -253 -232 -376
-483 -133 -269 -203 -528 -206 -758 l-1 -125 388 -3 c213 -1 387 0 387 2 0 2
-18 57 -39 122 -68 203 -85 303 -85 504 0 164 1 180 27 256 34 101 106 214
178 277 30 27 92 67 138 90 71 35 95 42 158 46 88 4 149 -11 203 -50 l38 -28
18 26 c17 26 16 27 -12 51 -92 76 -213 141 -315 167 -52 14 -189 18 -249 8z"/>
<path d="M867 1722 c-20 -21 -37 -41 -37 -44 0 -9 85 -68 97 -68 5 0 25 20 46
44 l37 44 -49 31 c-26 17 -50 31 -52 31 -3 0 -22 -17 -42 -38z"/>
<path d="M621 1314 c-12 -32 -20 -58 -19 -59 2 -2 32 -12 68 -23 l65 -20 16
37 c35 78 35 76 -29 100 -33 11 -64 21 -69 21 -6 0 -20 -25 -32 -56z"/>
<path d="M496 862 c-2 -15 -7 -48 -11 -74 l-6 -46 58 -7 c32 -4 64 -7 72 -8
10 -2 18 19 28 72 8 40 13 75 11 76 -2 1 -35 5 -75 8 -72 6 -72 6 -77 -21z"/>
</g>
</svg>
