<?xml version="1.0" standalone="no"?>
<!DOCTYPE svg PUBLIC "-//W3C//DTD SVG 20010904//EN"
 "http://www.w3.org/TR/2001/REC-SVG-20010904/DTD/svg10.dtd">
<svg version="1.0" xmlns="http://www.w3.org/2000/svg" viewBox="0 0 256.000000 256.000000"
 preserveAspectRatio="xMidYMid meet">
<metadata>
Created by potrace 1.11, written by Peter Selinger 2001-2013
</metadata>
<g transform="translate(0.000000,256.000000) scale(0.100000,-0.100000)" stroke="none">
<path d="M1016 1923 c-207 -44 -381 -177 -467 -357 -180 -375 6 -791 411 -918
64 -19 95 -23 210 -22 118 0 145 4 215 27 210 70 373 229 436 427 14 43 23
103 26 177 l5 111 44 17 c54 21 139 96 164 146 36 69 22 109 -35 109 -49 0
-183 37 -255 71 -36 16 -110 57 -166 90 -55 32 -103 59 -107 59 -3 0 -7 -136
-9 -302 -3 -299 -3 -304 -27 -351 -33 -63 -117 -142 -188 -174 -74 -34 -178
-42 -254 -20 -102 30 -178 121 -179 214 0 109 89 237 206 294 79 39 189 50
267 26 l47 -15 0 193 0 192 -69 12 c-92 15 -190 13 -275 -6z"/>
</g>
</svg>
