<?xml version="1.0" standalone="no"?>
<!DOCTYPE svg PUBLIC "-//W3C//DTD SVG 20010904//EN"
 "http://www.w3.org/TR/2001/REC-SVG-20010904/DTD/svg10.dtd">
<svg version="1.0" xmlns="http://www.w3.org/2000/svg" viewBox="0 0 256.000000 256.000000"
 preserveAspectRatio="xMidYMid meet">
<metadata>
Created by potrace 1.11, written by Peter Selinger 2001-2013
</metadata>
<g transform="translate(0.000000,256.000000) scale(0.100000,-0.100000)" stroke="none">
<path d="M598 2051 l-33 -29 0 -494 0 -493 22 -31 c29 -40 30 -40 338 -124
143 -39 267 -73 276 -75 9 -3 20 -28 28 -67 7 -33 21 -84 32 -112 23 -60 86
-149 99 -141 6 4 10 26 10 50 0 63 7 74 51 81 48 8 55 17 26 33 -43 23 -110
147 -85 156 7 2 130 36 273 75 308 84 309 84 338 124 l22 31 0 493 0 494 -33
29 c-18 16 -42 29 -55 29 -48 -1 -559 -148 -590 -170 l-30 -23 -46 26 c-45 25
-545 167 -588 167 -13 0 -37 -13 -55 -29z m322 -162 c124 -33 239 -68 255 -78
l30 -17 5 -432 c3 -238 1 -432 -3 -432 -8 0 -363 95 -474 126 l-53 15 0 440
c0 241 3 439 7 439 4 0 109 -27 233 -61z m960 -378 c0 -410 -1 -440 -17 -445
-60 -18 -500 -136 -508 -136 -8 0 -11 481 -5 852 0 20 72 47 279 104 124 35
232 63 239 63 9 1 12 -93 12 -438z"/>
<path d="M772 1738 l3 -63 155 -42 c85 -23 165 -44 178 -48 22 -5 23 -4 20 57
l-3 63 -150 41 c-82 22 -163 44 -178 48 l-28 7 3 -63z"/>
<path d="M770 1488 l0 -64 163 -43 c89 -24 170 -46 180 -49 16 -4 18 2 15 58
l-3 63 -155 42 c-85 23 -165 45 -177 49 -22 7 -23 5 -23 -56z"/>
<path d="M770 1236 l0 -63 173 -47 c94 -25 175 -46 180 -46 4 0 7 27 7 59 0
48 -3 61 -17 65 -10 3 -85 23 -168 46 -82 22 -156 43 -162 45 -10 3 -13 -13
-13 -59z"/>
<path d="M1605 1752 l-170 -47 -3 -63 c-3 -61 -2 -62 20 -57 13 4 93 25 178
48 l155 42 3 63 c2 34 -1 62 -5 61 -4 0 -84 -22 -178 -47z"/>
<path d="M1605 1500 l-170 -47 -3 -63 c-3 -56 -1 -62 15 -58 10 3 91 25 181
49 l162 43 0 63 c0 35 -3 62 -7 62 -5 -1 -84 -23 -178 -49z"/>
<path d="M1645 1259 c-77 -22 -157 -44 -177 -50 l-38 -10 0 -59 c0 -33 3 -60
8 -60 4 0 85 21 180 46 l172 47 0 64 c0 34 -1 63 -2 62 -2 0 -66 -18 -143 -40z"/>
</g>
</svg>
