<?xml version="1.0" standalone="no"?>
<!DOCTYPE svg PUBLIC "-//W3C//DTD SVG 20010904//EN"
 "http://www.w3.org/TR/2001/REC-SVG-20010904/DTD/svg10.dtd">
<svg version="1.0" xmlns="http://www.w3.org/2000/svg" viewBox="0 0 256.000000 256.000000"
 preserveAspectRatio="xMidYMid meet">
<metadata>
Created by potrace 1.11, written by Peter Selinger 2001-2013
</metadata>
<g transform="translate(0.000000,256.000000) scale(0.100000,-0.100000)" stroke="none">
<path d="M1128 1827 c-79 -27 -165 -84 -214 -141 -46 -54 -101 -165 -110 -222
-6 -40 -3 -48 19 -72 36 -38 43 -61 57 -194 7 -65 14 -118 15 -118 1 0 28 16
60 35 196 118 454 118 650 0 32 -19 59 -35 60 -35 1 0 8 53 15 118 14 134 21
156 57 194 25 27 26 29 14 80 -62 279 -356 446 -623 355z"/>
<path d="M604 1419 c-17 -5 -50 -29 -72 -53 -100 -109 -45 -275 101 -305 26
-6 34 -20 87 -143 32 -75 60 -152 62 -170 l3 -33 60 0 60 0 -3 65 c-4 83 -50
498 -58 525 -27 91 -139 144 -240 114z"/>
<path d="M1831 1420 c-44 -19 -82 -52 -100 -88 -17 -34 -29 -126 -75 -563 -5
-53 3 -61 65 -57 52 3 54 4 57 33 2 17 30 94 63 171 59 139 61 142 96 147 49
8 102 52 125 105 53 118 -27 251 -155 259 -29 1 -63 -2 -76 -7z"/>
<path d="M1180 1170 c-81 -13 -168 -46 -229 -86 l-54 -36 7 -66 c4 -37 9 -82
12 -99 l6 -33 358 0 358 0 6 32 c3 17 9 62 12 99 l7 67 -54 36 c-104 70 -292
108 -429 86z"/>
</g>
</svg>
