<?xml version="1.0" standalone="no"?>
<!DOCTYPE svg PUBLIC "-//W3C//DTD SVG 20010904//EN"
 "http://www.w3.org/TR/2001/REC-SVG-20010904/DTD/svg10.dtd">
<svg version="1.0" xmlns="http://www.w3.org/2000/svg" viewBox="0 0 256.000000 256.000000"
 preserveAspectRatio="xMidYMid meet">
<metadata>
Created by potrace 1.11, written by Peter Selinger 2001-2013
</metadata>
<g transform="translate(0.000000,256.000000) scale(0.100000,-0.100000)" stroke="none">
<path d="M1734 1906 l-44 -43 -141 33 c-78 19 -146 34 -153 34 -6 0 -26 -44
-45 -98 -18 -53 -47 -133 -63 -178 l-29 -80 -100 -12 c-106 -13 -254 -57 -327
-97 l-42 -24 -43 19 c-75 35 -169 19 -219 -37 -25 -27 -48 -87 -48 -123 0 -39
25 -98 54 -130 19 -20 25 -40 28 -98 20 -288 396 -501 815 -461 308 29 548
183 608 392 9 31 15 75 14 97 -3 33 2 45 28 72 54 56 67 124 38 195 -20 48
-41 71 -87 94 -48 25 -114 24 -163 -1 l-40 -20 -62 30 c-94 46 -165 68 -283
87 l-108 17 49 140 c27 77 51 142 54 144 9 9 257 -51 260 -62 2 -6 6 -23 9
-38 9 -38 60 -86 108 -99 33 -9 49 -8 84 6 87 33 122 115 85 199 -26 60 -69
86 -140 86 -50 0 -57 -3 -97 -44z m135 -17 c68 -24 80 -122 18 -159 -44 -27
-71 -25 -109 9 -26 23 -32 36 -31 65 1 39 24 73 58 87 27 11 28 11 64 -2z
m-414 -394 c115 -20 227 -65 312 -124 107 -75 162 -162 170 -266 14 -181 -161
-350 -432 -416 -133 -33 -333 -31 -467 4 -176 46 -327 149 -386 261 -22 43
-26 64 -27 131 0 100 25 156 105 235 154 152 448 223 725 175z m-738 -83 c9
-6 -3 -24 -40 -63 -29 -31 -61 -74 -72 -97 -11 -23 -23 -42 -27 -42 -13 0 -38
58 -38 90 0 42 24 86 58 104 29 16 99 21 119 8z m1243 -7 c58 -30 80 -128 41
-176 -11 -13 -21 -22 -23 -19 -3 3 -17 27 -33 54 -15 27 -48 69 -72 94 -34 34
-42 47 -32 53 22 14 87 10 119 -6z"/>
<path d="M1030 1283 c-62 -20 -90 -56 -90 -119 0 -54 53 -104 110 -104 34 0
48 6 76 34 29 29 34 41 34 79 0 36 -6 51 -29 76 -16 17 -36 31 -44 31 -9 0
-21 2 -29 4 -7 3 -20 2 -28 -1z"/>
<path d="M1484 1276 c-41 -18 -74 -62 -74 -98 0 -123 163 -162 215 -51 16 33
16 41 4 77 -23 64 -87 96 -145 72z"/>
<path d="M1013 893 c-4 -11 4 -25 27 -44 102 -86 349 -91 465 -11 48 34 60 72
21 72 -14 0 -27 -4 -30 -9 -16 -26 -106 -54 -188 -59 -99 -5 -165 8 -220 44
-44 28 -66 30 -75 7z"/>
</g>
</svg>
