<?xml version="1.0" standalone="no"?>
<!DOCTYPE svg PUBLIC "-//W3C//DTD SVG 20010904//EN"
 "http://www.w3.org/TR/2001/REC-SVG-20010904/DTD/svg10.dtd">
<svg version="1.0" xmlns="http://www.w3.org/2000/svg" viewBox="0 0 256.000000 256.000000"
 preserveAspectRatio="xMidYMid meet">
<metadata>
Created by potrace 1.11, written by Peter Selinger 2001-2013
</metadata>
<g transform="translate(0.000000,256.000000) scale(0.100000,-0.100000)" stroke="none">
<path d="M1170 2065 c-36 -8 -102 -33 -146 -55 -96 -47 -176 -126 -221 -217
-26 -54 -28 -67 -28 -173 0 -108 2 -119 31 -180 34 -71 97 -143 165 -186 24
-15 136 -67 249 -116 233 -100 269 -126 277 -199 4 -35 0 -51 -19 -79 -81
-121 -329 -100 -529 46 l-46 33 -96 -114 c-54 -64 -97 -119 -97 -125 0 -16
126 -99 212 -139 132 -62 201 -76 363 -75 129 0 146 2 225 30 196 69 309 194
340 376 24 135 -22 281 -117 369 -67 63 -113 88 -313 170 -217 88 -241 101
-274 139 -50 60 -26 148 50 186 30 15 59 19 129 18 102 -1 170 -22 256 -80 28
-19 53 -34 55 -34 2 0 43 48 90 108 l85 107 -47 42 c-59 52 -156 104 -249 133
-92 28 -255 35 -345 15z"/>
</g>
</svg>
