<?xml version="1.0" standalone="no"?>
<!DOCTYPE svg PUBLIC "-//W3C//DTD SVG 20010904//EN"
 "http://www.w3.org/TR/2001/REC-SVG-20010904/DTD/svg10.dtd">
<svg version="1.0" xmlns="http://www.w3.org/2000/svg" viewBox="0 0 256.000000 256.000000"
 preserveAspectRatio="xMidYMid meet">
<metadata>
Created by potrace 1.11, written by Peter Selinger 2001-2013
</metadata>
<g transform="translate(0.000000,256.000000) scale(0.100000,-0.100000)" stroke="none">
<path d="M1580 1920 c-57 -14 -80 -69 -42 -103 14 -13 36 -17 93 -16 93 2 146
-13 201 -54 97 -73 142 -187 119 -302 -15 -72 -6 -101 34 -111 41 -10 72 18
84 76 31 144 -9 286 -111 388 -102 103 -252 151 -378 122z"/>
<path d="M1031 1720 c-171 -62 -405 -277 -495 -458 -114 -227 -43 -419 199
-537 136 -67 239 -89 415 -88 156 0 235 13 355 58 211 79 368 242 369 384 0
100 -48 163 -168 216 -46 20 -57 29 -51 43 3 9 11 37 17 62 32 139 -106 195
-315 126 -48 -16 -90 -26 -93 -23 -3 3 0 31 7 61 15 69 2 125 -38 155 -34 27
-127 28 -202 1z m263 -375 c189 -40 306 -147 306 -280 0 -138 -140 -266 -350
-322 -99 -26 -255 -23 -350 6 -129 39 -211 104 -245 195 -91 239 286 476 639
401z"/>
<path d="M1017 1216 c-209 -75 -247 -316 -63 -402 101 -47 234 -23 313 58 97
100 98 219 2 302 -64 55 -168 72 -252 42z m52 -189 c35 -29 29 -93 -12 -122
-31 -22 -93 -19 -117 5 -27 27 -25 62 5 99 35 40 86 48 124 18z"/>
<path d="M1591 1691 c-26 -26 -27 -45 -1 -71 13 -13 33 -20 61 -20 51 0 75
-13 94 -51 11 -21 14 -43 10 -74 -6 -39 -5 -45 19 -60 24 -16 28 -16 51 -1 30
20 39 51 33 117 -10 97 -87 168 -193 177 -44 4 -56 1 -74 -17z"/>
</g>
</svg>
