<?xml version="1.0" standalone="no"?>
<!DOCTYPE svg PUBLIC "-//W3C//DTD SVG 20010904//EN"
 "http://www.w3.org/TR/2001/REC-SVG-20010904/DTD/svg10.dtd">
<svg version="1.0" xmlns="http://www.w3.org/2000/svg" viewBox="0 0 256.000000 256.000000"
 preserveAspectRatio="xMidYMid meet">
<metadata>
Created by potrace 1.11, written by Peter Selinger 2001-2013
</metadata>
<g transform="translate(0.000000,256.000000) scale(0.100000,-0.100000)" stroke="none">
<path d="M1246 1735 c-36 -14 -136 -83 -136 -95 0 -3 -11 -17 -25 -32 l-24
-28 -61 16 c-161 41 -306 -62 -328 -231 l-7 -57 -49 -19 c-90 -34 -136 -100
-136 -194 0 -67 17 -110 60 -153 50 -50 84 -63 182 -69 l91 -6 -6 24 c-3 13
-11 44 -17 69 -23 91 12 201 83 254 17 13 57 35 87 49 50 22 56 28 73 74 22
65 95 146 161 181 46 24 62 27 151 27 110 0 148 -13 220 -76 33 -29 38 -31 83
-22 43 8 47 11 45 37 -6 77 -97 192 -188 235 -63 31 -199 39 -259 16z"/>
<path d="M1225 1471 c-60 -27 -122 -102 -144 -175 l-19 -61 -56 -16 c-109 -33
-156 -91 -156 -196 0 -75 34 -148 87 -183 l37 -25 507 -3 507 -3 32 28 c63 52
78 143 38 223 -18 36 -34 50 -75 70 -41 20 -52 30 -53 49 -1 79 -61 167 -132
196 -48 20 -138 22 -182 6 -26 -11 -32 -8 -77 34 -27 26 -65 53 -84 61 -50 21
-180 18 -230 -5z"/>
</g>
</svg>
