<?xml version="1.0" standalone="no"?>
<!DOCTYPE svg PUBLIC "-//W3C//DTD SVG 20010904//EN"
 "http://www.w3.org/TR/2001/REC-SVG-20010904/DTD/svg10.dtd">
<svg version="1.0" xmlns="http://www.w3.org/2000/svg" viewBox="0 0 256.000000 256.000000"
 preserveAspectRatio="xMidYMid meet">
<metadata>
Created by potrace 1.11, written by Peter Selinger 2001-2013
</metadata>
<g transform="translate(0.000000,256.000000) scale(0.100000,-0.100000)" stroke="none">
<path d="M652 2060 c-18 -11 -41 -34 -52 -52 -19 -31 -20 -51 -20 -367 0 -313
-1 -333 -17 -326 -66 28 -85 -20 -32 -80 43 -48 137 -114 229 -160 41 -21 76
-38 77 -39 1 0 -5 -26 -13 -56 -10 -37 -14 -90 -12 -160 3 -96 6 -112 36 -173
86 -174 289 -223 386 -93 19 25 21 44 24 212 3 167 5 185 20 182 15 -3 18 -25
22 -185 4 -163 7 -184 26 -209 33 -45 70 -67 122 -72 109 -10 208 52 264 165
29 59 33 78 36 167 3 65 -1 123 -10 162 l-15 61 76 38 c122 60 247 158 264
207 3 9 0 24 -8 34 -11 15 -17 16 -38 7 l-26 -12 -3 327 c-3 309 -4 329 -24
362 -11 19 -35 45 -54 57 l-33 23 -596 0 c-577 0 -597 -1 -629 -20z m1188 -73
c67 -23 70 -39 70 -404 l0 -323 -51 -25 c-95 -49 -190 -67 -358 -71 -162 -3
-182 -9 -196 -55 -6 -18 -10 -16 -48 16 -45 39 -42 38 -177 36 -119 -3 -251
21 -347 60 l-74 31 3 343 3 343 24 26 c13 14 33 27 45 29 11 2 257 5 546 5
382 1 535 -2 560 -11z"/>
<path d="M985 1581 c-81 -36 -126 -123 -105 -201 14 -51 54 -98 105 -121 180
-82 358 124 232 268 -61 69 -152 91 -232 54z"/>
<path d="M1435 1581 c-83 -37 -129 -126 -106 -203 46 -154 259 -187 349 -54
78 116 -17 276 -163 276 -22 0 -58 -9 -80 -19z"/>
</g>
</svg>
