<?xml version="1.0" standalone="no"?>
<!DOCTYPE svg PUBLIC "-//W3C//DTD SVG 20010904//EN"
 "http://www.w3.org/TR/2001/REC-SVG-20010904/DTD/svg10.dtd">
<svg version="1.0" xmlns="http://www.w3.org/2000/svg" viewBox="0 0 256.000000 256.000000"
 preserveAspectRatio="xMidYMid meet">
<metadata>
Created by potrace 1.11, written by Peter Selinger 2001-2013
</metadata>
<g transform="translate(0.000000,256.000000) scale(0.100000,-0.100000)" stroke="none">
<path d="M1560 2058 c-82 -21 -84 -22 -50 -30 120 -28 240 -74 240 -92 0 -6
-21 -68 -46 -138 l-46 -127 -37 25 c-62 43 -164 69 -271 69 -105 0 -146 -15
-177 -61 -25 -39 -23 -112 4 -150 25 -35 146 -102 278 -154 187 -74 284 -149
342 -267 33 -67 38 -86 41 -168 5 -104 -13 -185 -54 -248 -22 -34 -23 -38 -7
-34 10 3 63 16 118 28 87 19 105 27 137 59 64 64 66 51 -76 665 -77 334 -134
560 -145 574 -50 70 -115 82 -251 49z"/>
<path d="M815 1885 c-27 -7 -95 -23 -150 -36 -87 -19 -105 -27 -137 -59 -64
-63 -66 -50 77 -664 138 -598 139 -602 214 -633 38 -16 92 -13 166 8 l40 11
-60 23 c-81 30 -165 73 -165 84 0 7 107 257 116 269 1 2 26 -12 55 -31 101
-64 160 -81 289 -81 92 -1 122 3 147 17 61 33 84 98 64 175 -19 71 -65 105
-277 208 -170 82 -202 102 -264 160 -49 47 -80 86 -102 132 -31 63 -33 73 -32
172 0 115 15 164 68 228 31 35 26 37 -49 17z"/>
</g>
</svg>
