<?xml version="1.0" standalone="no"?>
<!DOCTYPE svg PUBLIC "-//W3C//DTD SVG 20010904//EN"
 "http://www.w3.org/TR/2001/REC-SVG-20010904/DTD/svg10.dtd">
<svg version="1.0" xmlns="http://www.w3.org/2000/svg" viewBox="0 0 256.000000 256.000000"
 preserveAspectRatio="xMidYMid meet">
<metadata>
Created by potrace 1.11, written by Peter Selinger 2001-2013
</metadata>
<g transform="translate(0.000000,256.000000) scale(0.100000,-0.100000)" stroke="none">
<path d="M1405 1623 c-11 -2 -35 -9 -53 -14 l-32 -11 2 -331 3 -332 305 0
c290 0 307 1 345 21 22 11 54 40 70 63 26 37 30 51 30 110 0 58 -4 74 -28 108
-45 66 -127 100 -200 83 -35 -7 -37 -6 -43 19 -30 141 -123 240 -259 276 -58
15 -100 17 -140 8z"/>
<path d="M1256 1565 c-3 -9 -6 -151 -6 -315 0 -230 3 -300 13 -308 7 -6 17 -8
23 -4 16 10 23 201 16 432 -6 178 -9 205 -23 208 -9 2 -19 -4 -23 -13z"/>
<path d="M1186 1308 c-7 -260 0 -373 24 -373 23 0 32 150 23 392 -7 181 -10
208 -24 211 -15 3 -17 -22 -23 -230z"/>
<path d="M996 1491 c-4 -5 -8 -129 -9 -275 -1 -199 1 -268 10 -277 7 -7 16 -9
20 -5 22 21 18 535 -3 556 -8 8 -14 8 -18 1z"/>
<path d="M1063 1474 c-14 -33 -10 -521 4 -535 23 -23 28 23 28 278 0 185 -3
255 -12 264 -10 10 -14 8 -20 -7z"/>
<path d="M926 1404 c-8 -95 -6 -398 3 -439 11 -54 26 -27 34 63 10 113 -4 444
-19 449 -7 2 -13 -24 -18 -73z"/>
<path d="M1126 1471 c-11 -17 -7 -524 4 -535 23 -23 32 15 37 161 7 248 -12
422 -41 374z"/>
<path d="M858 1268 c-6 -198 1 -328 17 -330 16 -2 24 66 24 203 1 177 -9 309
-24 309 -9 0 -13 -51 -17 -182z"/>
<path d="M795 1263 c-12 -204 6 -386 31 -312 9 28 8 390 -1 419 -14 45 -23 13
-30 -107z"/>
</g>
</svg>
