<?xml version="1.0" standalone="no"?>
<!DOCTYPE svg PUBLIC "-//W3C//DTD SVG 20010904//EN"
 "http://www.w3.org/TR/2001/REC-SVG-20010904/DTD/svg10.dtd">
<svg version="1.0" xmlns="http://www.w3.org/2000/svg" viewBox="0 0 256.000000 256.000000"
 preserveAspectRatio="xMidYMid meet">
<metadata>
Created by potrace 1.11, written by Peter Selinger 2001-2013
</metadata>
<g transform="translate(0.000000,256.000000) scale(0.100000,-0.100000)" stroke="none">
<path d="M1130 2065 c-329 -66 -572 -313 -636 -643 -66 -346 117 -707 439
-861 127 -61 191 -75 347 -75 156 0 220 14 346 74 163 79 295 211 374 374 60
126 74 190 74 346 0 156 -14 220 -75 347 -155 323 -522 508 -869 438z m295
-430 c129 -21 227 -50 331 -99 73 -35 93 -49 103 -74 16 -39 -2 -82 -41 -96
-22 -8 -41 -3 -105 27 -249 115 -570 145 -851 80 -71 -16 -73 -16 -100 4 -39
29 -43 83 -7 111 79 62 422 86 670 47z m-109 -266 c147 -20 377 -102 419 -150
25 -27 16 -81 -16 -96 -24 -12 -36 -8 -122 32 -112 54 -208 80 -348 95 -113
13 -267 1 -359 -26 -47 -14 -54 -14 -76 1 -35 23 -41 61 -15 89 16 17 45 28
104 40 45 9 91 18 102 20 43 8 238 5 311 -5z m-11 -259 c95 -14 223 -55 287
-94 44 -26 54 -36 56 -63 3 -27 -1 -35 -21 -44 -20 -9 -35 -5 -95 25 -159 80
-342 103 -562 71 l-123 -19 -18 22 c-22 28 -14 61 20 74 84 32 324 46 456 28z"/>
</g>
</svg>
