<?xml version="1.0" standalone="no"?>
<!DOCTYPE svg PUBLIC "-//W3C//DTD SVG 20010904//EN"
 "http://www.w3.org/TR/2001/REC-SVG-20010904/DTD/svg10.dtd">
<svg version="1.0" xmlns="http://www.w3.org/2000/svg" viewBox="0 0 256.000000 256.000000"
 preserveAspectRatio="xMidYMid meet">
<metadata>
Created by potrace 1.11, written by Peter Selinger 2001-2013
</metadata>
<g transform="translate(0.000000,256.000000) scale(0.100000,-0.100000)" stroke="none">
<path d="M1344 1902 c-71 -25 -95 -46 -381 -334 -221 -222 -253 -258 -253
-285 0 -40 27 -71 68 -79 33 -7 39 -1 305 263 150 149 282 276 294 282 12 6
44 11 71 11 39 0 58 -6 90 -30 73 -52 142 -30 142 46 0 98 -202 174 -336 126z"/>
<path d="M985 1895 c-31 -10 -87 -62 -243 -222 -240 -245 -257 -272 -256 -398
0 -66 5 -89 26 -131 80 -153 266 -217 413 -141 66 34 595 562 595 594 0 51
-40 93 -88 93 -9 0 -141 -124 -293 -276 -235 -235 -282 -277 -315 -284 -109
-25 -209 76 -184 185 9 40 100 142 344 385 86 85 156 158 156 162 0 10 -49 34
-85 41 -16 4 -48 0 -70 -8z"/>
<path d="M1683 1576 c-23 -7 -56 -23 -75 -34 -18 -12 -153 -142 -300 -289
-235 -236 -268 -273 -268 -300 0 -46 30 -77 74 -77 35 0 52 15 304 266 147
146 277 271 289 277 12 6 44 11 72 11 44 0 56 -5 91 -36 50 -45 66 -96 49
-156 -9 -37 -47 -79 -257 -291 -235 -236 -246 -249 -227 -263 11 -8 36 -20 57
-26 72 -21 104 1 325 225 241 243 258 269 258 397 0 97 -19 146 -84 213 -76
81 -207 116 -308 83z"/>
<path d="M1475 1091 c-148 -148 -281 -274 -293 -281 -45 -22 -111 -15 -159 19
-48 34 -87 39 -120 16 -52 -36 -33 -104 44 -153 91 -58 200 -66 300 -22 79 35
603 565 603 610 0 29 -53 80 -81 80 -17 0 -98 -74 -294 -269z"/>
</g>
</svg>
