<?xml version="1.0" standalone="no"?>
<!DOCTYPE svg PUBLIC "-//W3C//DTD SVG 20010904//EN"
 "http://www.w3.org/TR/2001/REC-SVG-20010904/DTD/svg10.dtd">
<svg version="1.0" xmlns="http://www.w3.org/2000/svg" viewBox="0 0 256.000000 256.000000"
 preserveAspectRatio="xMidYMid meet">
<metadata>
Created by potrace 1.11, written by Peter Selinger 2001-2013
</metadata>
<g transform="translate(0.000000,256.000000) scale(0.100000,-0.100000)" stroke="none">
<path d="M1725 2068 c-27 -5 -51 -11 -53 -13 -3 -2 20 -142 49 -311 l53 -306
54 6 c30 4 60 10 67 14 10 6 -30 272 -90 589 -6 36 -6 35 -80 21z"/>
<path d="M1345 1913 c-27 -18 -49 -40 -49 -47 1 -12 183 -285 302 -454 l44
-62 51 37 c29 20 53 38 55 38 2 2 -338 505 -352 521 0 1 -23 -14 -51 -33z"/>
<path d="M1040 1594 c-18 -30 -30 -57 -27 -60 18 -19 530 -313 537 -309 13 8
62 95 58 105 -2 8 -523 320 -533 320 -2 0 -18 -25 -35 -56z"/>
<path d="M925 1328 c-13 -40 -33 -118 -31 -118 2 0 138 -36 302 -80 164 -44
301 -77 305 -73 9 10 39 123 32 123 -4 0 -543 144 -586 156 -9 3 -19 -1 -22
-8z"/>
<path d="M650 810 l0 -330 525 0 525 0 -2 328 -3 327 -52 3 -53 3 0 -275 0
-276 -415 0 -415 0 0 275 0 275 -55 0 -55 0 0 -330z"/>
<path d="M866 1038 c-3 -13 -6 -43 -6 -68 l0 -46 306 -28 c169 -15 310 -24
314 -19 5 4 10 34 12 65 l3 58 -40 5 c-22 3 -141 14 -265 25 -124 11 -246 23
-271 26 -42 5 -47 3 -53 -18z"/>
<path d="M850 760 l0 -70 315 0 315 0 0 70 0 70 -315 0 -315 0 0 -70z"/>
</g>
</svg>
