<?xml version="1.0" standalone="no"?>
<!DOCTYPE svg PUBLIC "-//W3C//DTD SVG 20010904//EN"
 "http://www.w3.org/TR/2001/REC-SVG-20010904/DTD/svg10.dtd">
<svg version="1.0" xmlns="http://www.w3.org/2000/svg" viewBox="0 0 256.000000 256.000000"
 preserveAspectRatio="xMidYMid meet">
<metadata>
Created by potrace 1.11, written by Peter Selinger 2001-2013
</metadata>
<g transform="translate(0.000000,256.000000) scale(0.100000,-0.100000)" stroke="none">
<path d="M1816 1639 c-85 -20 -149 -86 -164 -170 -6 -31 -29 -74 -72 -135 -64
-91 -64 -91 -121 -103 l-58 -11 -248 99 c-366 147 -350 139 -363 172 -19 46
-73 87 -124 94 -92 14 -186 -67 -186 -159 0 -103 114 -186 210 -153 34 12 48
7 340 -109 281 -112 306 -124 317 -152 16 -38 64 -79 110 -91 75 -21 158 24
188 102 13 35 33 54 113 112 64 47 112 74 144 81 139 32 215 176 159 300 -24
52 -94 112 -140 120 -20 3 -43 7 -51 9 -8 1 -33 -1 -54 -6z m121 -89 c99 -60
93 -199 -12 -250 -51 -25 -69 -25 -122 0 -59 26 -85 71 -80 136 6 83 57 133
137 134 27 0 58 -8 77 -20z"/>
<path d="M1833 1538 c-100 -26 -112 -168 -17 -213 50 -24 95 -13 134 32 29 32
32 41 27 81 -8 74 -73 119 -144 100z"/>
</g>
</svg>
