<?xml version="1.0" standalone="no"?>
<!DOCTYPE svg PUBLIC "-//W3C//DTD SVG 20010904//EN"
 "http://www.w3.org/TR/2001/REC-SVG-20010904/DTD/svg10.dtd">
<svg version="1.0" xmlns="http://www.w3.org/2000/svg" viewBox="0 0 256.000000 256.000000"
 preserveAspectRatio="xMidYMid meet">
<metadata>
Created by potrace 1.11, written by Peter Selinger 2001-2013
</metadata>
<g transform="translate(0.000000,256.000000) scale(0.100000,-0.100000)" stroke="none">
<path d="M1194 1881 c-101 -26 -194 -107 -242 -209 l-27 -57 -3 -310 c-3 -299
-4 -311 -24 -332 -14 -15 -33 -23 -55 -23 -76 0 -93 34 -93 191 l0 109 -136 0
-136 0 4 -157 c4 -148 6 -162 32 -215 35 -73 100 -139 174 -175 50 -24 69 -28
147 -28 82 0 97 3 157 33 81 40 148 110 179 190 22 54 23 74 26 352 2 162 6
305 8 317 6 27 59 57 89 49 49 -12 61 -31 66 -108 l5 -73 55 -26 c52 -25 57
-26 100 -13 25 8 62 19 84 25 l39 10 -5 93 c-4 72 -11 105 -33 154 -33 73
-111 152 -182 183 -52 23 -175 34 -229 20z"/>
<path d="M1810 1130 c0 -136 -12 -175 -58 -187 -38 -10 -63 -4 -89 20 -22 19
-23 29 -23 149 0 70 -4 128 -9 128 -5 0 -38 -9 -73 -20 -79 -25 -90 -25 -138
0 -22 11 -45 20 -51 20 -9 0 -11 -36 -6 -142 4 -112 10 -155 27 -200 29 -79
96 -150 178 -190 60 -30 75 -33 157 -33 79 0 97 3 149 29 76 37 135 96 172
172 28 56 29 66 33 217 l3 157 -136 0 -136 0 0 -120z"/>
</g>
</svg>
