<?xml version="1.0" standalone="no"?>
<!DOCTYPE svg PUBLIC "-//W3C//DTD SVG 20010904//EN"
 "http://www.w3.org/TR/2001/REC-SVG-20010904/DTD/svg10.dtd">
<svg version="1.0" xmlns="http://www.w3.org/2000/svg" viewBox="0 0 256.000000 256.000000"
 preserveAspectRatio="xMidYMid meet">
<metadata>
Created by potrace 1.11, written by Peter Selinger 2001-2013
</metadata>
<g transform="translate(0.000000,256.000000) scale(0.100000,-0.100000)" stroke="none">
<path d="M630 1280 l0 -800 205 0 205 0 0 65 0 64 -102 3 -103 3 0 665 0 665
103 3 102 3 0 64 0 65 -205 0 -205 0 0 -800z"/>
<path d="M1217 2073 c-4 -3 -7 -33 -7 -65 l0 -58 33 0 c92 -1 186 -49 229
-117 22 -36 23 -50 28 -248 5 -209 6 -211 34 -259 19 -33 46 -59 87 -84 32
-21 58 -40 59 -44 0 -4 -17 -16 -38 -27 -46 -23 -98 -81 -120 -130 -11 -26
-17 -87 -21 -218 -4 -129 -10 -186 -19 -195 -9 -9 -54 -14 -143 -16 l-130 -4
3 -61 3 -62 175 0 c167 0 177 1 225 25 83 42 89 61 95 292 5 179 7 199 26 225
28 38 78 71 128 84 60 16 66 24 66 89 l0 58 -49 17 c-73 24 -135 68 -154 108
-14 28 -17 66 -17 195 0 211 -15 265 -100 355 -64 69 -130 107 -225 132 -61
15 -156 20 -168 8z"/>
<path d="M1216 1504 c-11 -10 -16 -34 -16 -69 0 -73 14 -85 99 -85 39 0 72 5
79 12 7 7 12 39 12 75 0 75 -10 83 -99 83 -41 0 -64 -5 -75 -16z"/>
</g>
</svg>
