<?xml version="1.0" standalone="no"?>
<!DOCTYPE svg PUBLIC "-//W3C//DTD SVG 20010904//EN"
 "http://www.w3.org/TR/2001/REC-SVG-20010904/DTD/svg10.dtd">
<svg version="1.0" xmlns="http://www.w3.org/2000/svg" viewBox="0 0 256.000000 256.000000"
 preserveAspectRatio="xMidYMid meet">
<metadata>
Created by potrace 1.11, written by Peter Selinger 2001-2013
</metadata>
<g transform="translate(0.000000,256.000000) scale(0.100000,-0.100000)" stroke="none">
<path d="M480 1495 l0 -75 80 0 80 0 0 -215 0 -215 90 0 90 0 0 215 0 215 80
0 80 0 0 75 0 75 -250 0 -250 0 0 -75z"/>
<path d="M1010 1280 l0 -290 245 0 245 0 0 75 0 75 -155 0 -155 0 0 35 0 35
155 0 155 0 0 70 0 70 -155 0 -155 0 0 35 0 35 155 0 155 0 0 75 0 75 -245 0
-245 0 0 -290z"/>
<path d="M1530 1279 l0 -291 178 4 c203 4 240 14 304 86 96 107 87 340 -18
432 -55 48 -116 60 -301 60 l-163 0 0 -291z m332 104 c24 -24 32 -42 36 -81
10 -106 -37 -162 -135 -162 l-53 0 0 141 0 141 60 -4 c52 -4 66 -9 92 -35z"/>
</g>
</svg>
