<?xml version="1.0" standalone="no"?>
<!DOCTYPE svg PUBLIC "-//W3C//DTD SVG 20010904//EN"
 "http://www.w3.org/TR/2001/REC-SVG-20010904/DTD/svg10.dtd">
<svg version="1.0" xmlns="http://www.w3.org/2000/svg" viewBox="0 0 256.000000 256.000000"
 preserveAspectRatio="xMidYMid meet">
<metadata>
Created by potrace 1.11, written by Peter Selinger 2001-2013
</metadata>
<g transform="translate(0.000000,256.000000) scale(0.100000,-0.100000)" stroke="none">
<path d="M681 2066 c-6 -7 -9 -20 -6 -27 3 -8 122 -79 265 -159 143 -80 259
-149 260 -155 0 -6 -111 -12 -302 -15 -167 -3 -304 -7 -306 -8 -1 -1 -11 -17
-22 -34 -19 -32 -20 -52 -20 -571 0 -575 0 -580 49 -607 13 -6 247 -10 683
-10 724 0 692 -3 717 57 8 21 11 177 9 577 l-3 548 -28 24 -28 24 -300 0
c-215 0 -300 3 -297 11 2 6 123 78 268 160 265 148 289 167 249 192 -12 8 -78
-26 -293 -147 -153 -86 -286 -156 -296 -156 -10 0 -142 70 -293 155 -152 85
-280 155 -285 155 -5 0 -15 -6 -21 -14z m1180 -505 l29 -29 0 -336 c0 -229 -4
-343 -11 -360 -26 -56 -29 -57 -614 -54 l-537 3 -29 33 -29 32 0 341 0 341 29
29 29 29 552 0 552 0 29 -29z"/>
</g>
</svg>
