<?xml version="1.0" standalone="no"?>
<!DOCTYPE svg PUBLIC "-//W3C//DTD SVG 20010904//EN"
 "http://www.w3.org/TR/2001/REC-SVG-20010904/DTD/svg10.dtd">
<svg version="1.0" xmlns="http://www.w3.org/2000/svg" viewBox="0 0 256.000000 256.000000"
 preserveAspectRatio="xMidYMid meet">
<metadata>
Created by potrace 1.11, written by Peter Selinger 2001-2013
</metadata>
<g transform="translate(0.000000,256.000000) scale(0.100000,-0.100000)" stroke="none">
<path d="M1230 2073 c-35 -13 -607 -338 -629 -357 -13 -12 -32 -39 -42 -61
-17 -36 -19 -70 -19 -375 0 -305 2 -339 19 -375 10 -22 29 -50 42 -61 13 -12
158 -97 323 -189 326 -184 357 -195 427 -160 103 53 588 331 608 349 13 11 32
39 42 61 17 36 19 70 19 375 0 305 -2 339 -19 375 -23 50 -50 75 -128 115 -56
30 -64 31 -98 20 -53 -17 -93 -63 -165 -186 -102 -174 -97 -237 35 -381 77
-84 90 -112 75 -159 -22 -66 -104 -96 -159 -58 -27 19 -53 76 -45 98 3 8 -4
35 -15 60 -16 38 -25 46 -46 46 -41 0 -82 -51 -107 -134 -22 -73 -24 -100 -13
-172 13 -80 -47 -142 -127 -131 -107 14 -139 143 -53 214 31 25 39 43 79 183
25 85 44 155 42 157 -1 2 -13 -19 -25 -46 -17 -35 -28 -47 -40 -44 -23 6 -104
-59 -142 -113 -52 -77 -121 -90 -174 -34 -21 22 -28 39 -28 70 0 51 19 72 98
110 59 28 195 120 260 175 l30 26 -45 -22 c-25 -13 -71 -26 -102 -30 -34 -4
-70 -16 -89 -30 -49 -34 -95 -31 -131 10 -25 28 -29 39 -24 69 11 69 29 77
184 77 124 0 141 3 186 24 72 36 116 84 181 199 94 168 88 219 -37 281 -58 29
-111 38 -148 24z"/>
</g>
</svg>
