<?xml version="1.0" standalone="no"?>
<!DOCTYPE svg PUBLIC "-//W3C//DTD SVG 20010904//EN"
 "http://www.w3.org/TR/2001/REC-SVG-20010904/DTD/svg10.dtd">
<svg version="1.0" xmlns="http://www.w3.org/2000/svg" viewBox="0 0 256.000000 256.000000"
 preserveAspectRatio="xMidYMid meet">
<metadata>
Created by potrace 1.11, written by Peter Selinger 2001-2013
</metadata>
<g transform="translate(0.000000,256.000000) scale(0.100000,-0.100000)" stroke="none">
<path d="M1075 1740 c-127 -20 -238 -65 -284 -114 -24 -26 -27 -26 -161 -26
l-137 0 36 -70 c33 -64 35 -71 22 -92 -80 -126 -91 -267 -32 -393 114 -245
415 -311 627 -139 l51 41 33 -48 c52 -77 53 -77 95 -10 l36 60 52 -42 c141
-115 332 -129 479 -35 184 117 242 371 127 554 l-30 46 28 56 c15 32 29 60 31
65 2 4 -56 7 -128 7 l-132 0 -34 30 c-92 80 -209 111 -444 115 -96 2 -202 0
-235 -5z m455 -68 c36 -12 83 -34 105 -49 l40 -28 -60 -6 c-79 -7 -163 -46
-216 -101 -40 -41 -109 -165 -109 -198 0 -8 -11 10 -24 41 -32 80 -59 120
-114 171 -55 52 -141 88 -208 88 -27 0 -43 4 -39 10 13 21 96 61 166 80 105
28 362 24 459 -8z m-514 -166 c71 -33 129 -88 161 -154 39 -81 39 -193 2 -273
-55 -116 -152 -181 -279 -187 -99 -5 -172 22 -238 86 -73 71 -96 129 -97 232
0 66 5 95 21 131 76 165 268 239 430 165z m737 19 c100 -26 178 -91 221 -184
31 -69 30 -198 -4 -266 -34 -71 -108 -139 -177 -165 -77 -29 -187 -25 -255 8
-141 69 -216 232 -173 377 35 123 129 211 248 235 62 12 77 11 140 -5z"/>
<path d="M844 1400 c-147 -34 -201 -203 -101 -317 94 -106 266 -74 322 59 22
53 19 97 -11 156 -39 79 -128 122 -210 102z m113 -76 c109 -69 59 -244 -70
-244 -127 0 -184 148 -89 233 41 37 110 42 159 11z"/>
<path d="M1655 1405 c-5 -2 -22 -6 -37 -9 -61 -14 -137 -111 -138 -176 0 -108
89 -200 195 -200 60 0 103 19 142 63 105 120 41 296 -117 321 -19 3 -39 3 -45
1z m68 -69 c103 -44 117 -180 24 -236 -67 -41 -158 -16 -190 53 -21 43 -21 68
-3 110 16 39 45 65 82 77 41 12 51 12 87 -4z"/>
</g>
</svg>
