<?xml version="1.0" standalone="no"?>
<!DOCTYPE svg PUBLIC "-//W3C//DTD SVG 20010904//EN"
 "http://www.w3.org/TR/2001/REC-SVG-20010904/DTD/svg10.dtd">
<svg version="1.0" xmlns="http://www.w3.org/2000/svg" viewBox="0 0 256.000000 256.000000"
 preserveAspectRatio="xMidYMid meet">
<metadata>
Created by potrace 1.11, written by Peter Selinger 2001-2013
</metadata>
<g transform="translate(0.000000,256.000000) scale(0.100000,-0.100000)" stroke="none">
<path d="M1105 2033 c-24 -165 -124 -300 -269 -364 l-46 -20 0 -114 0 -115 84
0 84 0 4 -337 c3 -329 4 -339 27 -390 88 -198 397 -270 696 -162 l85 31 0 124
c0 68 -2 124 -4 124 -2 0 -35 -15 -72 -32 -61 -29 -79 -33 -154 -33 -94 0
-135 16 -174 68 -20 27 -21 42 -24 318 l-3 289 190 0 191 0 0 125 0 125 -190
0 -190 0 0 205 0 205 -114 0 -114 0 -7 -47z"/>
</g>
</svg>
