<?xml version="1.0" standalone="no"?>
<!DOCTYPE svg PUBLIC "-//W3C//DTD SVG 20010904//EN"
 "http://www.w3.org/TR/2001/REC-SVG-20010904/DTD/svg10.dtd">
<svg version="1.0" xmlns="http://www.w3.org/2000/svg" viewBox="0 0 256.000000 256.000000"
 preserveAspectRatio="xMidYMid meet">
<metadata>
Created by potrace 1.11, written by Peter Selinger 2001-2013
</metadata>
<g transform="translate(0.000000,256.000000) scale(0.100000,-0.100000)" stroke="none">
<path d="M1482 1912 c-137 -49 -229 -187 -220 -328 l3 -54 -32 0 c-42 0 -154
24 -223 48 -135 47 -273 136 -369 237 l-52 55 -16 -38 c-9 -20 -19 -71 -21
-112 -5 -97 22 -173 84 -238 24 -25 42 -48 39 -50 -2 -3 -33 4 -67 16 -35 11
-64 20 -65 19 -1 -1 3 -27 9 -57 20 -109 78 -185 181 -234 l72 -35 -73 -3 -72
-3 21 -42 c41 -84 159 -172 229 -173 54 -1 51 -16 -12 -53 -96 -57 -205 -88
-316 -90 -105 -2 -105 -7 5 -58 285 -132 633 -113 892 48 130 81 263 227 333
368 61 121 108 307 108 432 0 36 5 45 39 72 39 31 116 119 110 126 -3 2 -29
-5 -59 -15 -30 -11 -66 -19 -79 -20 -22 0 -20 3 17 40 34 32 82 105 82 124 0
3 -24 -6 -52 -19 -29 -13 -73 -29 -98 -36 -44 -12 -47 -11 -90 20 -65 47 -106
62 -185 67 -52 4 -83 0 -123 -14z"/>
</g>
</svg>
