<?xml version="1.0" standalone="no"?>
<!DOCTYPE svg PUBLIC "-//W3C//DTD SVG 20010904//EN"
 "http://www.w3.org/TR/2001/REC-SVG-20010904/DTD/svg10.dtd">
<svg version="1.0" xmlns="http://www.w3.org/2000/svg" viewBox="0 0 256.000000 256.000000"
 preserveAspectRatio="xMidYMid meet">
<metadata>
Created by potrace 1.11, written by Peter Selinger 2001-2013
</metadata>
<g transform="translate(0.000000,256.000000) scale(0.100000,-0.100000)" stroke="none">
<path d="M1463 2066 c-48 -22 -56 -47 -50 -150 7 -119 43 -241 117 -391 69
-143 136 -229 202 -263 43 -22 51 -23 79 -12 108 45 259 413 259 631 0 121
-144 185 -440 195 -105 4 -142 1 -167 -10z"/>
<path d="M1010 2029 c-199 -39 -410 -127 -469 -195 -53 -59 -62 -136 -36 -286
28 -160 98 -360 196 -558 154 -312 333 -510 461 -510 96 0 271 144 422 348
108 147 106 142 51 142 -61 0 -91 17 -158 90 -127 137 -287 475 -342 723 -22
100 -18 216 9 246 19 21 19 21 -10 20 -16 0 -72 -9 -124 -20z"/>
</g>
</svg>
