<?xml version="1.0" standalone="no"?>
<!DOCTYPE svg PUBLIC "-//W3C//DTD SVG 20010904//EN"
 "http://www.w3.org/TR/2001/REC-SVG-20010904/DTD/svg10.dtd">
<svg version="1.0" xmlns="http://www.w3.org/2000/svg" viewBox="0 0 256.000000 256.000000"
 preserveAspectRatio="xMidYMid meet">
<metadata>
Created by potrace 1.11, written by Peter Selinger 2001-2013
</metadata>
<g transform="translate(0.000000,256.000000) scale(0.100000,-0.100000)" stroke="none">
<path d="M1860 1999 c-34 -56 -102 -106 -169 -126 -121 -34 -196 -91 -221
-169 -14 -41 -8 -115 11 -158 11 -24 17 -27 46 -23 92 15 240 120 302 214 17
25 31 40 31 31 0 -43 -125 -168 -245 -244 -41 -26 -75 -51 -75 -56 0 -16 93
-67 135 -73 173 -26 325 201 288 433 -11 69 -43 165 -66 195 -11 16 -15 13
-37 -24z"/>
<path d="M993 1611 c-87 -25 -165 -75 -239 -154 -216 -228 -215 -577 1 -805
120 -127 256 -180 435 -169 194 11 333 93 440 258 79 122 109 294 76 440 -22
98 -27 105 -57 86 -13 -8 -41 -20 -61 -27 -21 -6 -38 -13 -38 -15 0 -2 7 -30
15 -62 64 -245 -97 -504 -335 -542 -64 -10 -73 -7 -39 16 125 88 251 275 294
438 27 101 30 245 7 355 -11 52 -26 110 -33 128 -13 30 -14 22 -16 -107 -7
-405 -121 -701 -312 -804 -46 -26 -53 -27 -96 -16 -61 15 -153 76 -197 130
-50 62 -77 120 -94 203 -62 295 187 571 473 526 34 -6 68 -13 75 -15 10 -4 20
15 35 60 l22 66 -27 11 c-15 6 -81 12 -147 14 -95 3 -133 0 -182 -15z"/>
</g>
</svg>
