<?xml version="1.0" standalone="no"?>
<!DOCTYPE svg PUBLIC "-//W3C//DTD SVG 20010904//EN"
 "http://www.w3.org/TR/2001/REC-SVG-20010904/DTD/svg10.dtd">
<svg version="1.0" xmlns="http://www.w3.org/2000/svg" viewBox="0 0 256.000000 256.000000"
 preserveAspectRatio="xMidYMid meet">
<metadata>
Created by potrace 1.11, written by Peter Selinger 2001-2013
</metadata>
<g transform="translate(0.000000,256.000000) scale(0.100000,-0.100000)" stroke="none">
<path d="M1703 1955 c-108 -33 -199 -118 -257 -239 -19 -39 -38 -82 -42 -95
-5 -21 -4 -23 12 -16 35 14 123 18 153 6 41 -18 54 -49 49 -120 -5 -75 -70
-209 -151 -316 -130 -170 -181 -96 -262 374 -40 239 -60 303 -107 348 -46 43
-70 53 -126 53 -84 0 -138 -36 -365 -238 l-127 -114 31 -39 c17 -21 35 -41 40
-44 5 -4 36 10 68 30 68 42 88 41 125 -8 41 -53 63 -118 146 -421 44 -160 93
-318 110 -352 39 -80 101 -150 147 -165 155 -51 374 105 638 456 246 327 331
551 282 742 -32 120 -106 173 -241 172 -45 0 -100 -6 -123 -14z"/>
</g>
</svg>
