<?xml version="1.0" standalone="no"?>
<!DOCTYPE svg PUBLIC "-//W3C//DTD SVG 20010904//EN"
 "http://www.w3.org/TR/2001/REC-SVG-20010904/DTD/svg10.dtd">
<svg version="1.0" xmlns="http://www.w3.org/2000/svg" viewBox="0 0 256.000000 256.000000"
 preserveAspectRatio="xMidYMid meet">
<metadata>
Created by potrace 1.11, written by Peter Selinger 2001-2013
</metadata>
<g transform="translate(0.000000,256.000000) scale(0.100000,-0.100000)" stroke="none">
<path d="M1501 2059 c-86 -28 -177 -115 -210 -202 -62 -167 -40 -382 55 -538
32 -53 107 -131 169 -175 l30 -21 -29 -54 c-58 -107 -223 -330 -244 -329 -10
1 -110 140 -156 217 -108 182 -198 448 -240 718 -9 55 -19 115 -22 133 l-5 32
-134 0 c-76 0 -135 -4 -135 -9 0 -5 11 -74 24 -153 82 -479 243 -856 460
-1074 118 -118 185 -146 259 -108 110 57 316 297 428 500 l39 71 63 7 c34 4
77 9 95 13 l32 5 0 94 0 93 -79 -6 c-160 -12 -285 56 -352 192 -26 53 -32 80
-36 152 -6 108 7 163 48 197 53 45 117 27 145 -40 18 -43 18 -164 0 -232 l-13
-52 33 -30 c41 -36 95 -53 154 -48 l45 3 24 70 c29 88 40 247 21 326 -24 101
-84 189 -155 226 -87 46 -211 54 -314 22z"/>
</g>
</svg>
