<?xml version="1.0" standalone="no"?>
<!DOCTYPE svg PUBLIC "-//W3C//DTD SVG 20010904//EN"
 "http://www.w3.org/TR/2001/REC-SVG-20010904/DTD/svg10.dtd">
<svg version="1.0" xmlns="http://www.w3.org/2000/svg" viewBox="0 0 256.000000 256.000000"
 preserveAspectRatio="xMidYMid meet">
<metadata>
Created by potrace 1.11, written by Peter Selinger 2001-2013
</metadata>
<g transform="translate(0.000000,256.000000) scale(0.100000,-0.100000)" stroke="none">
<path d="M486 1848 c4 -13 82 -276 174 -586 92 -309 170 -565 174 -569 3 -3 8
-4 10 -2 2 2 49 159 106 349 56 190 105 351 109 358 4 7 55 -148 114 -344 59
-197 109 -359 112 -362 3 -3 7 -3 9 -1 2 2 70 227 151 499 80 272 148 503 151
513 5 15 20 17 130 17 68 0 124 -2 124 -4 0 -2 -45 -81 -100 -176 -74 -126
-100 -181 -100 -206 l0 -34 53 0 c70 0 115 -14 150 -47 51 -49 61 -79 62 -183
0 -81 -4 -102 -23 -139 -37 -68 -67 -91 -121 -91 -28 0 -59 8 -78 20 -31 18
-83 88 -83 110 0 14 -2 13 -65 -14 -30 -14 -55 -30 -55 -36 0 -23 50 -107 85
-143 61 -62 108 -82 200 -82 97 0 141 20 208 95 56 62 87 140 94 237 14 173
-53 314 -179 379 l-46 24 109 187 c77 134 109 197 109 221 l0 32 -288 0 -289
0 -104 -354 c-57 -195 -107 -352 -110 -348 -3 4 -43 135 -89 292 -45 157 -91
313 -102 348 l-19 62 -74 0 c-41 0 -75 -3 -75 -6 0 -4 14 -52 31 -108 17 -56
31 -110 31 -121 0 -19 -130 -466 -137 -474 -2 -2 -7 7 -10 20 -3 13 -50 173
-103 354 l-97 330 -78 3 c-78 3 -79 3 -71 -20z"/>
</g>
</svg>
