<?xml version="1.0" standalone="no"?>
<!DOCTYPE svg PUBLIC "-//W3C//DTD SVG 20010904//EN"
 "http://www.w3.org/TR/2001/REC-SVG-20010904/DTD/svg10.dtd">
<svg version="1.0" xmlns="http://www.w3.org/2000/svg" viewBox="0 0 256.000000 256.000000"
 preserveAspectRatio="xMidYMid meet">
<metadata>
Created by potrace 1.11, written by Peter Selinger 2001-2013
</metadata>
<g transform="translate(0.000000,256.000000) scale(0.100000,-0.100000)" stroke="none">
<path d="M1185 2074 c-258 -42 -476 -202 -585 -429 -59 -122 -80 -213 -80
-344 0 -124 21 -225 70 -327 l37 -79 -69 -204 c-37 -113 -67 -206 -65 -207 1
-1 97 29 212 66 l210 67 35 -17 c143 -70 320 -95 480 -66 560 102 824 740 502
1213 -98 143 -264 260 -437 307 -60 17 -254 29 -310 20z m310 -159 c201 -67
355 -222 418 -420 32 -100 32 -290 0 -390 -50 -156 -169 -300 -310 -373 -118
-61 -180 -76 -308 -76 -124 0 -187 15 -295 69 l-66 33 -119 -38 c-66 -22 -120
-38 -122 -36 -2 1 15 55 36 119 l40 117 -34 56 c-64 107 -80 171 -80 329 1
126 3 147 27 207 85 224 253 371 483 424 91 21 232 12 330 -21z"/>
<path d="M974 1648 c-48 -50 -64 -90 -64 -156 0 -77 18 -125 83 -225 70 -106
134 -177 213 -233 68 -48 207 -109 273 -120 96 -15 202 51 216 134 4 25 3 48
-3 55 -6 7 -51 32 -101 57 l-91 44 -46 -52 c-25 -29 -53 -52 -61 -52 -21 0
-97 44 -150 87 -49 39 -133 152 -133 178 0 10 16 35 35 56 19 22 35 42 35 47
0 4 -17 52 -38 107 l-38 100 -50 3 c-45 3 -52 0 -80 -30z"/>
</g>
</svg>
