<?xml version="1.0" standalone="no"?>
<!DOCTYPE svg PUBLIC "-//W3C//DTD SVG 20010904//EN"
 "http://www.w3.org/TR/2001/REC-SVG-20010904/DTD/svg10.dtd">
<svg version="1.0" xmlns="http://www.w3.org/2000/svg" viewBox="0 0 256.000000 256.000000"
 preserveAspectRatio="xMidYMid meet">
<metadata>
Created by potrace 1.11, written by Peter Selinger 2001-2013
</metadata>
<g transform="translate(0.000000,256.000000) scale(0.100000,-0.100000)" stroke="none">
<path d="M507 1783 c-42 -7 -31 -36 16 -44 48 -8 70 -29 92 -87 10 -26 65
-148 123 -272 57 -124 140 -304 184 -400 44 -96 88 -183 97 -194 34 -34 55 -6
164 212 l103 207 68 -150 c97 -215 127 -269 153 -273 13 -2 28 6 39 20 9 13
103 218 208 457 205 466 206 468 284 478 36 5 42 9 42 30 l0 23 -167 -2 c-160
-3 -168 -4 -168 -23 0 -16 8 -21 40 -25 51 -7 65 -16 65 -43 0 -31 -293 -727
-304 -724 -6 2 -51 88 -100 192 l-91 188 31 56 c179 333 171 321 216 330 24 5
33 12 33 26 0 19 -8 20 -135 20 -127 0 -135 -1 -135 -20 0 -13 9 -21 31 -25
39 -9 54 -18 54 -34 0 -8 -30 -74 -66 -147 l-67 -134 -68 144 c-73 153 -75
167 -21 173 19 2 27 9 27 23 0 19 -7 20 -145 20 -143 0 -145 0 -148 -22 -3
-19 1 -23 22 -23 36 0 61 -38 169 -257 l94 -191 -80 -159 c-44 -87 -81 -160
-83 -162 -9 -10 -321 670 -331 720 -7 37 6 49 55 49 20 0 35 6 39 15 3 9 4 18
2 20 -7 6 -312 14 -342 8z"/>
</g>
</svg>
