<?xml version="1.0" standalone="no"?>
<!DOCTYPE svg PUBLIC "-//W3C//DTD SVG 20010904//EN"
 "http://www.w3.org/TR/2001/REC-SVG-20010904/DTD/svg10.dtd">
<svg version="1.0" xmlns="http://www.w3.org/2000/svg" viewBox="0 0 256.000000 256.000000"
 preserveAspectRatio="xMidYMid meet">
<metadata>
Created by potrace 1.11, written by Peter Selinger 2001-2013
</metadata>
<g transform="translate(0.000000,256.000000) scale(0.100000,-0.100000)" stroke="none">
<path d="M1130 2066 c-278 -59 -505 -252 -598 -508 -162 -449 86 -926 549
-1054 89 -25 308 -25 399 0 276 75 501 300 576 576 25 91 25 310 0 399 -79
288 -292 497 -586 578 -78 21 -260 26 -340 9z m288 -82 c103 -21 197 -61 279
-120 63 -45 66 -48 42 -55 -111 -29 -130 -131 -51 -264 96 -162 97 -211 16
-484 -32 -111 -61 -201 -64 -201 -3 0 -61 165 -129 368 -69 202 -126 373 -129
380 -3 8 9 12 41 12 47 0 74 18 64 44 -4 11 -46 14 -219 14 -219 0 -236 -3
-217 -40 7 -13 21 -18 52 -18 l42 0 57 -154 57 -155 -78 -233 c-44 -130 -81
-226 -85 -218 -9 23 -256 751 -256 756 0 2 20 4 44 4 47 0 72 19 62 46 -6 15
-20 16 -131 10 -101 -5 -125 -4 -125 7 0 8 25 42 57 76 171 190 426 275 671
225z m532 -444 c102 -258 41 -557 -153 -758 -54 -56 -135 -117 -143 -109 -3 3
51 167 120 366 124 358 155 479 142 545 -9 44 8 22 34 -44z m-1146 -464 c86
-236 154 -431 152 -434 -10 -10 -135 80 -188 136 -180 188 -246 438 -183 683
9 35 22 73 28 84 13 25 -4 67 191 -469z m605 -176 c85 -231 105 -297 95 -303
-23 -14 -163 -37 -222 -37 -61 0 -183 18 -195 29 -4 4 35 131 87 282 121 350
119 345 123 334 2 -6 52 -143 112 -305z"/>
</g>
</svg>
