<?xml version="1.0" standalone="no"?>
<!DOCTYPE svg PUBLIC "-//W3C//DTD SVG 20010904//EN"
 "http://www.w3.org/TR/2001/REC-SVG-20010904/DTD/svg10.dtd">
<svg version="1.0" xmlns="http://www.w3.org/2000/svg" viewBox="0 0 256.000000 256.000000"
 preserveAspectRatio="xMidYMid meet">
<metadata>
Created by potrace 1.11, written by Peter Selinger 2001-2013
</metadata>
<g transform="translate(0.000000,256.000000) scale(0.100000,-0.100000)" stroke="none">
<path d="M1130 2065 c-77 -16 -161 -45 -216 -73 l-39 -21 46 -1 c64 0 167 -33
271 -87 l87 -44 103 50 c109 54 196 81 263 81 l40 1 -35 19 c-48 26 -173 67
-244 79 -79 14 -195 12 -276 -4z"/>
<path d="M694 1823 c-123 -130 -199 -309 -211 -499 -9 -147 31 -320 103 -440
55 -91 59 -93 59 -21 1 80 34 183 105 323 59 116 174 297 253 398 54 69 57 59
-52 153 -70 59 -177 123 -208 123 -8 0 -30 -17 -49 -37z"/>
<path d="M1743 1830 c-53 -26 -187 -131 -220 -171 -9 -11 -2 -26 34 -74 75
-99 188 -274 242 -376 78 -147 113 -250 115 -336 0 -40 4 -73 7 -73 11 0 92
151 114 217 66 189 57 410 -25 589 -48 107 -160 254 -192 254 -8 0 -42 -14
-75 -30z"/>
<path d="M1170 1356 c-232 -207 -423 -469 -438 -601 -5 -45 -4 -47 47 -95 59
-55 202 -130 301 -157 90 -24 310 -24 400 0 99 27 242 102 301 157 52 49 52
49 46 98 -12 99 -113 259 -281 445 -70 78 -241 236 -264 244 -4 2 -54 -39
-112 -91z"/>
</g>
</svg>
