<?xml version="1.0" standalone="no"?>
<!DOCTYPE svg PUBLIC "-//W3C//DTD SVG 20010904//EN"
 "http://www.w3.org/TR/2001/REC-SVG-20010904/DTD/svg10.dtd">
<svg version="1.0" xmlns="http://www.w3.org/2000/svg" viewBox="0 0 256.000000 256.000000"
 preserveAspectRatio="xMidYMid meet">
<metadata>
Created by potrace 1.11, written by Peter Selinger 2001-2013
</metadata>
<g transform="translate(0.000000,256.000000) scale(0.100000,-0.100000)" stroke="none">
<path d="M480 1710 l0 -50 109 0 109 0 62 -67 c77 -84 288 -346 317 -393 25
-43 37 -142 27 -239 -6 -66 -8 -70 -37 -80 -16 -6 -63 -11 -102 -11 -67 0 -73
-2 -79 -22 -3 -13 -6 -28 -6 -35 0 -9 81 -12 348 -9 l347 3 0 34 0 34 -112 3
-113 3 0 149 0 149 52 52 c64 65 204 181 294 245 66 47 71 49 147 53 l78 3 30
41 c16 22 29 44 29 49 0 4 -139 8 -309 8 l-309 0 12 -47 12 -48 83 -5 83 -5
-141 -127 -140 -128 -124 163 c-68 89 -133 177 -146 195 l-22 32 105 0 106 0
0 50 0 50 -355 0 -355 0 0 -50z"/>
<path d="M1870 1206 l0 -226 49 0 c39 0 51 4 55 18 3 9 26 98 51 197 26 99 48
187 51 196 4 14 -8 18 -73 23 -43 4 -90 9 -105 12 l-28 6 0 -226z"/>
</g>
</svg>
