<?xml version="1.0" standalone="no"?>
<!DOCTYPE svg PUBLIC "-//W3C//DTD SVG 20010904//EN"
 "http://www.w3.org/TR/2001/REC-SVG-20010904/DTD/svg10.dtd">
<svg version="1.0" xmlns="http://www.w3.org/2000/svg" viewBox="0 0 256.000000 256.000000"
 preserveAspectRatio="xMidYMid meet">
<metadata>
Created by potrace 1.11, written by Peter Selinger 2001-2013
</metadata>
<g transform="translate(0.000000,256.000000) scale(0.100000,-0.100000)" stroke="none">
<path d="M1000 2012 c-141 -54 -177 -72 -189 -93 -13 -24 -13 -30 6 -62 35
-59 323 -450 350 -474 30 -28 67 -29 93 -3 20 20 21 30 18 336 l-3 316 -28 24
c-15 13 -38 24 -50 23 -12 -1 -101 -31 -197 -67z"/>
<path d="M1643 1648 c-24 -27 -226 -344 -236 -372 -12 -32 18 -66 58 -66 41 0
399 104 431 125 27 18 37 45 27 73 -5 11 -54 75 -111 141 -110 130 -130 142
-169 99z"/>
<path d="M673 1366 c-15 -19 -21 -54 -31 -177 -13 -163 -10 -195 17 -204 21
-6 457 89 476 105 18 15 20 70 3 92 -22 27 -384 208 -417 208 -19 0 -36 -8
-48 -24z"/>
<path d="M1450 1067 c-49 -24 -40 -55 71 -240 133 -225 154 -246 209 -217 23
12 178 231 192 271 8 25 7 34 -5 46 -9 9 -112 47 -229 84 -117 38 -213 69
-213 69 0 0 -11 -6 -25 -13z"/>
<path d="M1194 985 c-29 -20 -278 -294 -292 -322 -35 -64 -11 -85 157 -138
159 -49 195 -54 210 -27 5 9 11 120 12 246 3 215 2 229 -16 242 -24 18 -45 18
-71 -1z"/>
</g>
</svg>
