<?xml version="1.0" standalone="no"?>
<!DOCTYPE svg PUBLIC "-//W3C//DTD SVG 20010904//EN"
 "http://www.w3.org/TR/2001/REC-SVG-20010904/DTD/svg10.dtd">
<svg version="1.0" xmlns="http://www.w3.org/2000/svg" viewBox="0 0 256.000000 256.000000"
 preserveAspectRatio="xMidYMid meet">
<metadata>
Created by potrace 1.11, written by Peter Selinger 2001-2013
</metadata>
<g transform="translate(0.000000,256.000000) scale(0.100000,-0.100000)" stroke="none">
<path d="M883 1933 c52 -147 52 -149 57 -298 l5 -150 43 -3 42 -3 0 117 c0
112 2 124 51 283 28 91 53 174 55 184 5 14 -2 17 -40 17 -51 0 -46 9 -82 -144
-10 -42 -20 -76 -24 -76 -3 0 -18 50 -34 110 l-29 110 -47 0 -48 0 51 -147z"/>
<path d="M1199 1915 c-40 -21 -52 -60 -57 -178 -6 -142 2 -189 38 -227 24 -25
35 -30 77 -30 100 0 123 41 123 220 0 142 -10 185 -51 214 -28 19 -95 20 -130
1z m89 -67 c8 -8 12 -54 12 -143 0 -135 -5 -155 -42 -155 -28 0 -38 41 -38
155 0 57 4 115 10 129 10 28 38 34 58 14z"/>
<path d="M1450 1724 c0 -122 4 -213 10 -225 14 -26 69 -25 103 1 14 11 28 20
31 20 3 0 6 -9 6 -20 0 -17 7 -20 40 -20 l40 0 0 225 0 225 -40 0 -40 0 0
-173 c0 -156 -2 -176 -18 -190 -10 -10 -26 -17 -35 -17 -15 0 -17 19 -17 190
l0 190 -40 0 -40 0 0 -206z"/>
<path d="M849 1390 c-96 -9 -134 -25 -172 -69 -44 -52 -52 -113 -52 -381 0
-268 8 -329 52 -381 40 -47 74 -58 200 -69 152 -13 654 -13 806 0 125 10 145
17 190 58 48 45 59 104 64 339 9 367 -20 460 -153 495 -49 13 -816 19 -935 8z
m146 -185 l0 -40 -47 -3 -48 -3 0 -255 0 -255 -42 3 -43 3 -3 253 -2 252 -45
0 -45 0 0 45 0 46 138 -3 137 -3 0 -40z m393 -53 l3 -93 26 21 c33 26 75 26
99 -1 17 -19 19 -41 22 -198 3 -168 2 -178 -18 -204 -26 -33 -66 -36 -103 -7
-25 20 -25 20 -30 0 -4 -15 -14 -20 -41 -20 l-36 0 0 301 0 300 38 -3 37 -3 3
-93z m-300 -237 c1 -99 7 -184 12 -189 5 -5 19 -2 34 8 l26 16 0 176 0 175 38
-3 37 -3 0 -220 0 -220 -37 -3 c-35 -3 -38 -1 -38 23 l0 27 -31 -26 c-35 -29
-80 -34 -103 -10 -14 13 -16 48 -16 225 l0 210 38 -3 37 -3 3 -180z m686 175
c45 -17 66 -65 66 -152 l0 -78 -80 0 -80 0 0 -42 c0 -60 9 -86 32 -93 28 -9
48 12 48 51 0 33 1 34 40 34 l40 0 0 -46 c0 -39 -5 -51 -34 -80 -29 -29 -41
-34 -80 -34 -36 0 -52 6 -76 28 -38 33 -50 79 -50 197 0 118 12 164 50 198 32
29 77 35 124 17z"/>
<path d="M1403 1023 c-10 -3 -13 -43 -13 -148 0 -136 1 -144 20 -150 43 -14
50 8 50 149 0 149 -8 169 -57 149z"/>
</g>
</svg>
