<?xml version="1.0" standalone="no"?>
<!DOCTYPE svg PUBLIC "-//W3C//DTD SVG 20010904//EN"
 "http://www.w3.org/TR/2001/REC-SVG-20010904/DTD/svg10.dtd">
<svg version="1.0" xmlns="http://www.w3.org/2000/svg" viewBox="0 0 256.000000 256.000000"
 preserveAspectRatio="xMidYMid meet">
<metadata>
Created by potrace 1.11, written by Peter Selinger 2001-2013
</metadata>
<g transform="translate(0.000000,256.000000) scale(0.100000,-0.100000)" stroke="none">
<path d="M972 2019 c-47 -71 -71 -155 -56 -197 6 -18 25 -35 59 -52 44 -22 62
-24 155 -23 58 1 127 6 155 11 27 6 51 10 52 9 0 -1 -125 -150 -279 -332 -154
-181 -298 -352 -320 -379 l-39 -49 3 -91 3 -91 135 -11 c167 -13 232 -33 335
-103 199 -136 242 -162 311 -191 83 -34 146 -46 199 -36 44 9 109 65 136 117
24 47 45 165 35 202 l-6 27 -43 -21 c-53 -28 -156 -36 -228 -19 -62 15 -143
54 -278 134 -93 55 -151 78 -223 91 -27 4 -38 11 -38 24 0 10 162 205 360 434
l360 417 9 73 c5 39 5 76 0 81 -4 5 -38 4 -81 -3 -221 -36 -460 -32 -574 9
-104 37 -97 39 -142 -31z"/>
</g>
</svg>
